<mxfile host="Electron" modified="2024-06-04T07:45:21.007Z" agent="Mozilla/5.0 (X11; Linux x86_64) AppleWebKit/537.36 (KHTML, like Gecko) draw.io/24.4.8 Chrome/124.0.6367.207 Electron/30.0.6 Safari/537.36" etag="0iS-ZfqbHJH2ORKRG057" version="24.4.8" type="device">
  <diagram name="Page-1" id="MlcIU0E1ypLw8LMflWuq">
    <mxGraphModel dx="1362" dy="843" grid="1" gridSize="10" guides="1" tooltips="1" connect="1" arrows="1" fold="1" page="1" pageScale="1" pageWidth="1654" pageHeight="1169" math="0" shadow="0">
      <root>
        <mxCell id="0" />
        <mxCell id="1" parent="0" />
        <mxCell id="dyfqsVJVBgxQbuDTN-ic-1" value="" style="ellipse;whiteSpace=wrap;html=1;aspect=fixed;" vertex="1" parent="1">
          <mxGeometry x="260" y="380" width="180" height="180" as="geometry" />
        </mxCell>
        <mxCell id="dyfqsVJVBgxQbuDTN-ic-2" value="" style="endArrow=classic;startArrow=classic;html=1;rounded=0;" edge="1" parent="1">
          <mxGeometry width="50" height="50" relative="1" as="geometry">
            <mxPoint x="160" y="560" as="sourcePoint" />
            <mxPoint x="1210" y="560" as="targetPoint" />
          </mxGeometry>
        </mxCell>
        <mxCell id="dyfqsVJVBgxQbuDTN-ic-3" value="" style="ellipse;whiteSpace=wrap;html=1;aspect=fixed;" vertex="1" parent="1">
          <mxGeometry x="440" y="380" width="180" height="180" as="geometry" />
        </mxCell>
        <mxCell id="dyfqsVJVBgxQbuDTN-ic-4" value="" style="ellipse;whiteSpace=wrap;html=1;aspect=fixed;" vertex="1" parent="1">
          <mxGeometry x="620" y="380" width="180" height="180" as="geometry" />
        </mxCell>
        <mxCell id="dyfqsVJVBgxQbuDTN-ic-5" value="" style="ellipse;whiteSpace=wrap;html=1;aspect=fixed;" vertex="1" parent="1">
          <mxGeometry x="800" y="380" width="180" height="180" as="geometry" />
        </mxCell>
        <mxCell id="dyfqsVJVBgxQbuDTN-ic-7" value="" style="shape=image;verticalLabelPosition=bottom;labelBackgroundColor=default;verticalAlign=top;aspect=fixed;imageAspect=0;image=data:image/png,iVBORw0KGgoAAAANSUhEUgAABK0AAAJgCAYAAABIn5CCAAAABHNCSVQICAgIfAhkiAAAIABJREFUeF7s3QdgVfX5//EnezPC3nsLooCAIOJCFHFvq9a6R+to9V+11i6r1vGzztZt3VsRREUQREBA9t5D9g6BkJ3/83xPvsklBAwhCSF5nzbNzb1n3dc5JSef+3yfE5ankzAhgAACCCCAAAIIIIAAAggggAACCCBQiQTCK9G+sCsIIIAAAggggAACCCCAAAIIIIAAAgg4AUIrTgQEEEAAAQQQQAABBBBAAAEEEEAAgUonQGhV6Q4JO4QAAggggAACCCCAAAIIIIAAAgggQGjFOYAAAggggAACCCCAAAIIIIAAAgggUOkECK0q3SFhhxBAAAEEEEAAAQQQQAABBBBAAAEECK04BxBAAAEEEEAAAQQQQAABBBBAAAEEKp0AoVWlOyTsEAIIIIAAAggggAACCCCAAAIIIIAAoRXnAAIIIIAAAggggAACCCCAAAIIIIBApRMgtKp0h4QdQgABBBBAAAEEEEAAAQQQQAABBBAgtOIcQAABBBBAAAEEEEAAAQQQQAABBBCodAKEVpXukLBDCCCAAAIIIIAAAggggAACCCCAAAKEVpwDCCCAAAIIIIAAAggggAACCCCAAAKVToDQqtIdEnYIAQQQQAABBBBAAAEEEEAAAQQQQIDQinMAAQQQQAABBBBAAAEEEEAAAQQQQKDSCRBaVbpDwg4hgAACCCCAAAIIIIAAAggggAACCBBacQ4ggAACCCCAAAIIIIAAAggggAACCFQ6AUKrSndI2CEEEEAAAQQQQAABBBBAAAEEEEAAAUIrzgEEEEAAAQQQQAABBBBAAAEEEEAAgUonQGhV6Q4JO4QAAggggAACCCCAAAIIIIAAAgggQGjFOYAAAggggAACCCCAAAIIIIAAAgggUOkECK0q3SFhhxBAAAEEEEAAAQQQQAABBBBAAAEECK04BxBAAAEEEEAAAQQQQAABBBBAAAEEKp0AoVWlOyTsEAIIIIAAAggggAACCCCAAAIIIIAAoRXnAAIIIIAAAggggAACCCCAAAIIIIBApRMgtKp0h4QdQgABBBBAAAEEEEAAAQQQQAABBBAgtOIcQAABBBBAAAEEEEAAAQQQQAABBBCodAKEVpXukLBDCCCAAAIIIIAAAggggAACCCCAAAKEVpwDCCCAAAIIIIAAAggggAACCCCAAAKVToDQqtIdEnYIAQQQQAABBBBAAAEEEEAAAQQQQIDQinMAAQQQQAABBBBAAAEEEEAAAQQQQKDSCRBaVbpDwg4hgAACCCCAAAIIIIAAAggggAACCBBacQ4ggAACCCCAAAIIIIAAAggggAACCFQ6AUKrSndI2CEEEEAAAQQQQAABBBBAAAEEEEAAAUIrzgEEEEAAAQQQQAABBBBAAAEEEEAAgUonEFnp9ogdQgABBBBAAAEEjjCBvLw8t8dhYWGSm5srOTm59oOE21d4mHve5rHvoZN/zr7bMrYWmyMiIny/yxwKzT7b0+1GRkaUy7YOZT9ZFgEEEEAAAQQQMIEwvXgJrrLwQAABBBBAAAEEEChXgdDgKjRAKhpmletOsHIEEEAAAQQQQOAIEaDS6gg5UOwmAggggAACCFReAQug7Cs8PFzmzF8l73/6g8RER0nXLi1kyGk9XDWTTT6c8oFVbq5VX4mk7Nwtb74/Vrbv2CU1ayTIFRefKHVqJ2nVlq1z7+qsQ1GwKjDbx61bU+XTL3+UJcvWyW3XD5FmTeq6CjF7jQkBBBBAAAEEEKgsAoRWleVIsB8IIIAAAgggcMQK+NDK3sDcBavk/57/QurUSZLWLRpI/z6dXADli9stuPLDBUUHBIaFhcv3E+fLXx59T+LjYqRenRpy1uk9Q5YpHFpYXIF8SYYeetggBBPZsm2nvP3hOLfdC88+3oVWoesOrQILPSj729YRe+DYcQQQQAABBBCo1AJ8nFapDw87hwACCCCAAAJHgoAPovy+WnWUBVDzFqyW78bPdU+HDgEsrMwKk12798hb749zlVk2T2i1U1hYUMFlz7teWfpljR38uuxne96HSX69oZVcrr9W/vatJ4TNr2t1/basd5af8vKCcMz/nJ2Ts1cfruK2VbAwDxBAAAEEEEAAgXIQILQqB1RWiQACCCCAAALVV8AHWLkaFsXERMtHn0+Q3Pwm7L6aqSBU0hRp0ZJ1MvGnRRIbG+3Q9grA8gMqC54szIqMiCgYLmjzBT+Huybufjn/PVhG58lvtG7rjtLHth6//b225aq+LBwL2p36dft9KtxWTsG2Qquzqu8R550jgAACCCCAQHkJMDywvGRZLwIIIIAAAghUSwGrhLIwx6qYrOLqx2lLZK72uerauWVBRZTBuMBIv3864kcNnXJEEyhXRWVDBv2Up/NY+GTr2rh5h0ycslC2bEmVnbvSXKVU29YNpV+fzpJcK7Gg4sqtIX/7u9My5Lsf5sjyFRskIzNbaiTFydDBvTS8inRVW35e+x4EVkE4ZtVYEyYvlEVL18q27bskMipc2rVsJMf37ijJOtTRB2K2jA/ACnaaBwgggAACCCCAQBkJEFqVESSrQQABBBBAAAEETMCCnIzMLGml/aws/JmjPa7++9rX8vwTN+3V7NzCnq3bUuWdj8ZL08Z1pEObJjLy2+l7NV63Cq0ora5asWqj3PPgG+713dqsXbfi/lurbk0549Rj5f7fXyRdOjZz63eT7sOqNZvln098KJ98MVm2bk+VvIxM0aRKRpzXXy6/oL/USIyXnOygQssWsSAqKirChVRPvfC5vPHuWFm9fL2ExUZJ3p4Midew6sxBPeXu354rxx3brmBb9n6ZEEAAAQQQQACB8hAgtCoPVdaJAAIIIIAAAtVWwKqrbIhdYkKs9OnVwYVHP2jVkoVBtWsl5A+/C+40OHLUNNmRslv69GwvZwzqIR/qUMLwcF9xJRKh69qwabvccvd/5YdJC+TYo9vINZefJHXr1JQ167a4wGvYyCmyR0OlF568SRrUq+XcMzKy5N8vfCHvffyD1K9XU6689EQ5qX9X1z/r1bdHy0NPfKTrqCHhEYXDAa2aK12Xe/q/w+WxZz6XzhqC3f+HC6VF0/r6fKZ8MnyyDnWcKGvXbZOXn75FOrVv6oY9Wq8Jgqtqe7rzxhFAAAEEEChXAUKrcuVl5QgggAACCCBQ3QSCoXkRkpKaJmeccox8M2aGTJ+1XN547zu58+ahYg3OIzUgysrKljfe/05DKpEBfTu7uwYW9qbKHyKohVOfjZjsmrmf2LeL/O2+y6S3Blx+ate6kdz1p9dk7IR58vXoGXL1ZSe7l+YuXC0ffDZBatSIlxt+PUhuve5M1xjepuN6tJfb7n5J5uk8sdpzy/elstBq2tRl8uxLX8pRnVvIQ3+6XAaddEzBtrp3a+1Crc9GTJKvdFud2jfTIYrBUERCqwImHiCAAAIIIIBAGQrQiL0MMVkVAggggAACCCDgelVZmKPVVlbNdO5ZvSUrO0dDpekOx/eAmj1vlaz6ebNWXyXJry4ZqNVRmRKmKVBwx8BgyN2Onbvk8y+nuJBrQL/OLrDKyspxlVRWzXXqwO4yZFAvydR+VTZ00Kq2bP0Wcm3fsVt66TC+X19+igusbP02X5uWDeW6q051oZlVhYneodAmC9OmTl/ihhKeNvDogsDKhhza/rdoWk8uO7+/REdFyeSfFmvlWGpQYcXwQE56BBBAAAEEECgnASqtygmW1SKAAAIIIIBA9RUIy2+Enp6eKecP6SuPPf2Z9qXaJCNHTZfTT+nu+kG98va3sm3rLhkyuIcbSmhhVHiY3dlPm5vnN2PfsydL5i5YLY0b1pZjtNIpqIrK07sSRrkAKjo6Unp2b+N+njV3pezU6q5aNRPk57Vb3LwWNPkKrujoKFfJZc9bcNWkcbLMX7imYGhfmjZtnzpjiWvWvm7DNnn7w+9l587d7u6DtpwFX/MX/awhW6Lr02XbSq6d6MI50WGGTAgggAACCCCAQFkLEFqVtSjrQwABBBBAAIFqL2B3/bPJ7tBnPaWGnt5LXnnrW/lc+0+dcdqxLmCaNnOZxMXHyA1Xn+6CpHAbJ6j5jy1qsZVfftfudBckRdrrOhXcsU+rpGw5a54eFxvttuWjI+txlZsXNFa3eYKwq7D3VExMpK5TG7GHLGOVVpu37JQkbdD+vQ43/H7iPNezKrjHYf4dCXUfEhN0mKHunlV6BVVlhXc7dDvIhAACCCCAAAIIlJEAoVUZQbIaBBBAAAEEEEDAC1h4FIRFQbB06QUnaE+rMTJn/io3/G7S1EWybMUG6aGN1Y8/roNbzA0LzB+qpw/ynwtzoZRVOmmNlK6zcHihD6LstbT0DKlXVxur5wdb1p/KAiUb1mfL2DBAV8FlP+hkVV3p6VkFlV32XIQua1VUKVpd9auLBsjQM3q5HlY2NNFiNJtsWxZu2U+2PZvoZ+UYmBBAAAEEEECgHAQIrcoBlVUigAACCCCAAAI+zLHvndo3kb69Orrhdw8/+ZEOv9suKSlpctmFA9xQwcjISBcqFVQ15VdqRUaGS8P6tWW13oFw2cqNLnzSHMotkx9r6VDAre7ugc2a1JWY2CgHX1/vIhgZESGbNqfodna7hux5WnkVBGn6/NYU3YetLhDzQxGjdB+sKszuFNi6VSM587Sev3gQbX2EVr/IxAwIIIAAAgggUEoBGrGXEo7FEEAAAQQQQACBXxLwPcptKN7N1wx21U1ffDVVpmjD8w7tmshg7W9lgZVNof3MrerKpjq1k+TsM47ToCpXhutym7ekaCP0YP4o/b5i1Qb58PMJrsJqYL+jpGaNBBdMnaB3I7Q+VxaSTdSqLqu8soopW8a289HnkyRtT9D43VdfxeoQw5NP6Cpx2rvq4y8maVXYSrcP1rA9R6urbBr+9U9y6bWPy2vvjNHlMwqGKroXmRBAAAEEEEAAgTIWILQqY1BWhwACCCCAAALVU8CHP/7dB1VIvt9TmHTt0kJaNqvn+kjZELwzBx2roVSiG3JXdArLHx5ozdMvPvd4adooWWbOWSHX3/G83hlwjqxcvVnvRjhD/vDn17VR+yrpflRLN5wvSpumW+VTr2PayokaYm3USquH/+9jHZr4nSxZvkHGaZ+qG3Qd346d5Zq0Z2ZmFVRKWRXXSRpaDTrpGJmnzd9vv/cV+XT4jzqccZerDHvu5S/lgX++K++/PVq2btspMbpvVvFV9H0XfS/8jAACCCCAAAIIlFaA4YGllWM5BBBAAAEEEEAgXyA0uLEQKtNVJ1mgE8yQm5vjhu9dfvGJ8oiGSNY76uJz+2vlU5RkaHBklVAWANlyrg9VfiP2bH18VKfm8tCfrpD7/vG264U1Y/ZyV22VqX2pbFhg+7aN5V9/vVratW4U9JvS0KqmDgf8x32Xy/Ydu1zF1P1/f0tiY6Jd76uGOnTw1mvPkK9GT5d0vWOgH5JoFVW2X4/8+UrJ0LseTpy6UO647xWt2Ip2wdQeXXZPWqZce8MQue7KU90+23u0sIsJAQQQQAABBBAoD4GIv+hUHitmnQgggAACCCCAQHUSCO6kFyY7tIrKhtP1691JevdoL/E63M7utBepVVC1dfje1m2pMljvIHjKgG7urn+Wa1kT9N1p6a6f1HG6jC2bEB+rrwT3EezSsbkbJmgzp+xM0wAqSurWqSEXndNP/nrvZdK9a2u3DVuP7YeFTNaf6vSTbfhhhKSm7pGo6Ahp1byBPPqXX8vJJx4l67V6qkXz+m5fkjWssmGDFrLVSU7SflY9tJdWTdmZmu6et/fQqX0z+eMd58udN58tiYlxbhs2LJGeVtXpLOe9IoAAAgggULECYXrB4evWK3bLbA0BBBBAAAEEEKhGAsFwwb2rkop7rjiSX5qvuNeLe664dRd9riTLhc5TkvmLboOfEUAAAQQQQACBkggQWpVEiXkQQAABBBBAAIEDCFhwY5NVHeXq4zyterIKJV995YMd+24VUXbrv3CdwVdF+e/FvRa6WXvdDx3027P1HGhy+2P7Z5u17Wp1lE32vD1nw/v89kPXY8sEs+S/NxtI6PZ5761RaXUgfV5DAAEEEEAAgUMRILQ6FD2WRQABBBBAAAEEEEAAAQQQQAABBBAoFwHuHlgurKwUAQQQQAABBBBAAAEEEEAAAQQQQOBQBAitDkWPZRFAAAEEEEAAAQQQQAABBBBAAAEEykWA0KpcWFkpAggggAACCCCAAAIIIIAAAggggMChCBBaHYoeyyKAAAIIIIAAAggggAACCCCAAAIIlIsAoVW5sLJSBBBAAAEEEEDg8AgEd/0L7viXm5srWVnZesfCXLczoa8dnr1jqwgggAACCCCAQMkFuHtgya2YEwEEEEAAAQSqkYAFPGFhYZKTkyvZOTkSpu89LCxcoqIinIJ/PZTEP5ebm+eW0Zncy1FRkW5dxS0TuvzBPt5nH3UbUZERxW6rrLd9sPvK/AgggAACCCCAwMEKEFodrBjzI4AAAggggEC1Fthf+LO/5w8HllVWhYeHy7oN22TkqGlyxqk9pHGjZBea2WQBGhMCCCCAAAIIIFDZBSIr+w6yfwgggAACCCCAwOEQyM7OkUitWvpq9HT533tjJVIrrLp3aSl33XqO252iAVBQlZXjwqIVqzfKsy9+KZu27NR1hMt/nrhZYmOjyrzSKkv30Sqrhn89Vd76YJw0bFBLHn7gSt1WtGzctEMefPhd+XzkFPnuh3ny7L+ul5o14st8Hw7HsWGbCCCAAAIIIFA9BOhpVT2OM+8SAQQQQAABBA5SwPeBWrpig3w0bKIM+3KKPPvyl7J46dqC3lC+YskCrOArqGIa8c00efqlETLy2+ny6fAfg6GCun0fdIV+L1w2WIftpn/d77L72f5bsJ1gXr+Pi5etc/s48tsZuq1cV0llIduu3emyW7+2btvp+lqF7q/fTtF1Ft3HovMV/dkvX9x++/3nOwIIIIAAAgggUBoBKq1Ko8YyCCCAAAIIIFDlBXzAE6cVUnWTa0hCQqxraj5SK6/at23iQiCNjrTXlf4nv/dVRES4pKamyYxZyyW5VqLU1q/MzKzC4Xj5fa002ioIkUKH6lkvrLy8YGifAfsAyeaxx/a6bcNP9rztR1xsjNvH2rUSXKWXzVundpI89Kcr5IS+XeTUE7u6fbHng+1pry4LsfQ/4eF7DxW0Hl66ir36YoXuY+g++f2wddle+f0Mnb/Knyi8QQQQQAABBBAoNwEqrcqNlhUjgAACCCCAQFUQsKDIQpkcbayenp4ln385VfbsydS3pkGSC5kKK6QsrJk2a5mM0D5SCfGxbv4giAoktJmoC3Z8zyl7vCc901VDpe3JcAGShU4WHNlkr/sgyH62wMq2l7prj6uisnnty4Yyun3ULyvJ8tto2byB3HLtYBey+fXZd9t+hFs2TDIys2V3mlZk6ZffRtHwyd5DpgZ2Ftr5fcrU5VJT9zgLW1foMj7YcitkQgABBBBAAAEESilApVUp4VgMAQQQQAABBKqHgAtjNLSJi4l2/aPWrN2ifa5myHln9Zagp1R4EAJpoGR3DPxu/FwXOln/KAuXgqAnf2ifBVY6T0REhKzUvlc2nG/hkrWSkrJbEhPj5PjjOsjA/kdJ44aFTdNd6/T8sOunGUt02zNlzbqtbr1tWzeS31xxisTERLltWuWUD4wsaPp0xCQZq/2sTujbWc7X/bW7GNrrFn5Z360JkxfKrDkrZfOWFImOjpSjOjWX/n06SVft3RURUoE1+afF8uYHY+X43h3l4nOOl+E6/PH7CfM1sMqQ6JhIbfR+rJzYr4sL6nwgVz3ODt4lAggggAACCJSnAKFVeeqybgQQQAABBBA44gVc1ZIGPbV06J1VLFlj9m++myFnnd6jYCievUkLg1av2eJ6SzVvWlc6d2gms+eulC1aSaWrKKh+ssBqyvQlct/f3pRxGvwkJMS4kGrj5h3y39e/klMHdpcn/n6NLt/UBUAWWoXrCj74bKLc/4+33B0B7Ulruv7aO9/K3AWrpH2bxhKrwVVujlZZ5QXD/ayK6sepi+X5F4a5SqyzB/fSYCqo3Jo6Y6nc8+AbMn7SfDeksEmjOrJF+169+vZoF4T97d7L5OJz+xUEUDPnrJAXXhwuGzXcstDu7499oD2zIiUn2/pkibzz4ffy/+44X353wxAXjJmX7YXZMSGAAAIIIIAAAqUVILQqrRzLIYAAAggggEC1EPB9oKyy6apLBsq342bJtJnLxJqfWzBlFU7BsD3RKqs5Mn/+arn1xrOkc/umMmnKIhdsWcrk1qOPps9eLrfd86LMX/izXHPFyXLB2X2lTnKSbNu+S958f6x8/MUkuetPr8oHr/5BkrT6ygKruQtWyz80KNq2PVUGDTxafnXJSRp01ZYNm7bLi2+Mknc+Hi/xWuXkhirm50T2OE7vIpigvazi42Nc/y2brErr+tufkznzV8llFwyQX19xkjSsV9ute9jIqfLCqyPlP699Jb2OaSutWjRw64zSpu5NmtWXebrMz2s2y7/+erV779u1QszuWvjj1EXy3CsjpcfRbeSUE7u5KjALr5gQQAABBBBAAIFDEeBq4lD0WBYBBBBAAAEEqryA6+GkwY0NtzumW2sZfPIxekfAyVptNUu6dGzuqooidZ6c3Bx596Pxklyvhgw4vrMkWk+rDO33pJVVeflJUlhYuA7ZmywzdUjeBUP7yD/uv0Lq16tZYGjVVVu27pTvtQJqxKjpctn5/V0vqY8+nyir126WY3X7f7vvcummw/f81EADp9vvfUXWrt/iqqaCaCq/skv3ze4maPvua54syLrx6tNd4HTOmb3ce/BTwwa1ZcTXU2WeBmoWyrVsXj8IwnQ9mVk5EqbVW3ffdq5cpFVYfmrfRoco/vZZmafB2hz9OnlA1736WxXMyAMEEEAAAQQQQOAgBWjEfpBgzI4AAggggAAC1U8gL3+IoFVUnX3GcZKWniGjxs6UFas2SqT2ubJqpFFjZsrMuSukQ5smMkDv2LdzV1owfDAsv8pK17Fm3RaZq9VK1i7quqtOdYGVGwJooZA2Nm/auK706N7GNTafOm2xe36rhljTtbl7loZG553V1wVWVslkX+kZWdJP+0ydokGRNUV3DdF9alXkMPmhenWSE+Vmbc5+310XFARWfh+sqsuqsmxdtj9uGQvt9CtDA7iWWm3Vp2cHV11m27Zhh+10aGLPo9vq0MRcV61lk28YX/3OFN4xAggggAACCJSlAJVWZanJuhBAAAEEEECgSgpYdmPN2K05+YDju7ihczPnLJfZ81e6IXQ22RA9m6dPr/au39TutAwX3gR3DwyCK2t4vmzFemlQP1n+995Y+VyrrnJcFVRwR8Fo7Us1S/tgRepwPGvUbmGR3SVw45YddrNC6di+cTDMUJ+3sCw3M8ttu1WL+hIXF+0CsIKSqn2OhK+1su95sn3HbvlJe1vN0OGKa9dvk+WrNsiCxWuDpXSW4E6Ern2W2w97H7HajD4iMrjroDWlD+4+mOWGD1rFWUH45YZEMiGAAAIIIIAAAocmQGh1aH4sjQACCCCAAALVQUCTGwtubKhdzRpxere8HvLDQwtklA4RHHTSMbJem6NPmLxAkmsnykn9jnLBkqt6MhsrVtKfbXl73g3V03Ioa27ugqeQoXuu6boGYy2a1NWhfklO1sKjNA3AaiTFSUx0lHvO96eyyihbZ60aCdrQPTa4g6DPptychZPNZ1/p2hj+f9o76+GnPpadO9N0O4mud1aSrr+5bnfDph0ufPOVWS7isv3X/9h3937cdq0JexBOBe8pqMjy77PI5vkRAQQQQAABBBA4aAFCq4MmYwEEEEAAAQQQqHYCGtRYWyobDme5zaCTu8sb746RT774UW6/6SztcfWjq1yyoXpDBx/nQqXQIXI2vNAmC6msImrj5hR5/G+/lq5dWkhmRrYLqiwMcmGRPtY8SL8HytbQ3Bq1L1y6TlJ37XFP+gDJh0jbd+xyQ/rq16np9q/YKT9s+mr0DLnv729J3To15PqrTpO+vTpK82Z1pW2rRrJL13/ZdU/K0hUbXAN4P7kAy/+Yv/6CUEtf849D53f7xoQAAggggAACCByCAKHVIeCxKAIIIIAAAghUHwHrFeXDGWs+PrD/UXqXva/lY22SPk4bp9vQuXOH9HGBlc1n1VRuflelFEy1aibo0MHaMmee9rXSoYMd2jbZB9CquWwxq9SyKSkhTurXrSXRkZGyYNEaGXzKsa7iyQI0G5KXrb2urGl6hvaYsvBrf1mRr8qaPW+l7NFqq5NP6CoPaSP4SLvLn743q+jaui1VUndbb6z8qqoiexe8r8Iwa5+d5wkEEEAAAQQQQKAMBWg4UIaYrAoBBBBAAAEEqrBAfqWSBTeJGiSd0LezNG6YLC+9+a3MnrtKmjSuLRedc7wbomeTv2OgPbbqKZsssLJG6lZx9erbo7U6a5d73k879Oe7//y6nPerh2X097NdOFVbhxz2Oradq9z6UAOypcs3aA+pSPdlQdnkaUu0KfwsqaXD/Ny295Mp+cAtOye4o6BVb7nAyiYLyXT9Y8fPcXcvjMhvLh+yazxEAAEEEEAAAQQqXIBKqwonZ4MIIIAAAgggcCQI+OFt9t1/WfWUTfbzqQOP1jCprUycstCFR3Znv5o14vWue9YcPcLmClkuSJKsJ9UVFw6QMeNmy0TtgXXZtU/I+Wf3lfZacbVly075aNgE+U6Doyytorrj5qGuUssanp+jdyz8/MspMn/Rarnhzufl7MG9dJnGMk9/HvH1dBeCxcdGa2iV4/pn+X0M3XeryrL1NW1cR6u2ImTkt9NdNdcpJ3aTON3/z76cLB9oKJaggdwm3Rc/2dpC1xPqUtx2ChbkAQIIIIAAAgggcIgChFaHCMjiCCCAAAIIIFD1BQrvABi81+zsXB2yV1N6dm8j4ybM09AqT847s7cbrucrmmxOWy5x8VorAAAgAElEQVQ3P7yyn21IX+cOzeRff7la7n/oHZkyY4kGTz9rn6sYycrKdsP2amhT9ace+o2c1L+rC4tsHe10OOIjD14pv3/gNbHhfcu055T1xtqs4dJ1V54qnTo0lb8++r7Ex8fsVWll+VWw7/57ng5hPE7GTZwn34yZIS/9b5S8/dH3QXGW5mqXnNtfe2etkYUahrk+Wzblh2DeIHhy7/8N3Y7tsxn478XNz3MIIIAAAggggEBJBPTDuPwrkZLMzTwIIIAAAggggEA1EbChdjZkbvb8VTJ+4nx3h72Lz+unAVWUG4Znoc7KnzfLd9/PkcTEWDn/rD6u4skvN3/havnhxwUaWolce8UpbjhfcJe9oDeWDQ0crVVV3343092VMCY6Uo7t1kbO1qqqenVruNDHT/Y4XKuiVq3ZLJ8MmygLl6x1L/Xr3VmuunSg62ll+2Hh16UX9Jdo3ZYtM37SAvlp5lI5+qiWMqBvF90HqwALKqe+HDVdG8lP1KqqFG3EXl9uvHqQdGzXVL4cNc2FYucO6S1tWjV065kzf7WrAGverJ6cNrCbGx5p78UMLGwbpz4WplnlWf/enQitCo4cDxBAAAEEEEDgUAQIrQ5Fj2URQAABBBBAoNoKlLaSyIdRoRVZxSGGrj/Ir/au4ipumZI8V9r9Lsm6mQcBBBBAAAEEEChLAUKrstRkXQgggAACCCBQZQR8uGPfXWhkjdjtW8jQN/+a3e3PpuJeC54vfK0okA+x8tfg7hx4oMkHWG4endnPXtw+2iz2fNH98+sP3XZoiOaX8e9nf+spyesHei+8hgACCCCAAAIIHEiA0OpAOryGAAIIIIAAAggggAACCCCAAAIIIHBYBMIPy1bZKAIIIIAAAggggAACCCCAAAIIIIAAAgcQILQ6AA4vIYAAAggggAACCCCAAAIIIIAAAggcHgFCq8PjzlYRQAABBBBAAAEEEEAAAQQQQAABBA4gQGh1ABxeQgABBBBAAAEEEEAAAQQQQAABBBA4PAKRh2ezbBUBBBBAAAEEEKhaAqF3G7R35u/MZ3fYC+6y5551j0Onfe5SGDJP6N0Iq5YW7wYBBBBAAAEEEPhlAe4e+MtGzIEAAggggAACCJRYwIdQfoGiP4euKPS13Nw8CQ/fO9Aq8UaZEQEEEEAAAQQQqIIChFZV8KDylhBAAAEEEECg4gVCA6iMzCxJT8/SqiqRhPgYDaOsI4MFUsVXWtneWlVV2p4MycrKkejoSImNicqv0Np3mYp/d2wRAQQQQAABBBCoeAGGB1a8OVtEAAEEEEAAgSoo4EOrPRo8PfPiCBnzw1yJigyXqy49WS4653gdLhgMGfTDA/3wQftuodbwb6bJM/8dLjEaWJ1y4tFyy7WDJSoq0g0zLDqksAry8ZYQQAABBBBAAIF9BAit9iHhCQQQQAABBBBA4OAF8vKCoX3Z2Tkyd+HPMm7CPImPi9YQKlrOH9pHItzQv7CCEMqCqNzcXBdIbdueKq+99a1MmrrI1WM1a1p3r55YPrjyQVfRvSva+8rP558vOr/9HPrageYrumzRbRV9nZ8RQAABBBBAAIGyEuDugWUlyXoQQAABBBBAoFoL+P7qFurEx8VIUmKs1K1TQ36auVSmTl+yV6WVhUpBsBQ0aZ82c5l898McadqkjiQkxEhcbExBdZUPrKznlVVr2fpDvwzdXvNhUmhllg/FDrSMvWZT0XUWfS5Yf3CI/baq9QHnzSOAAAIIIIBAuQtQaVXuxGwAAQQQQAABBKqbgIVFFiRlZGS5HlXDv/5J+vTs4BgKQ6hcNyzQ5rWqLHts89ty9lxx89pzu3anS3pGpqvIioyMkJo1EjRwEsnJyZWIiODzSF9pFfTSEtmxc7fkZAfrjIqKkBpJ8W4Z246fx5bfmZrmmsEHr4fJzp1pkpmV7fa5Ro14rRqLKqgO82GX21EmBBBAAAEEEECgHAQIrcoBlVUigAACCCCAQPUWsEAnRwOhOrUTZdOWnS60uu26M6VB/VoFw/5MyMKgNeu2yhvvfSfNmtSTmJhI2ZGyu6Bqyq0nJ0fDqAhJ0eDp23Gz5fMvp8jCxWskNy9Xmusy55zZW4YO7inJtZMKAiVbr4VRS5avl69HT5evx8ySteu3SKSup23rRnLC8Z3l/LP6SIN6tQrCrlU/b5Ib73pBOrVvJnfecrb8NGOpvPTGN5K6K80NcezerZXcdv2Z0rZVo/zt2P4HFVrV+2jz7hFAAAEEEECgvAQIrcpLlvUigAACCCCAQLUVsGqltLQMGTKop0zRoYGz562Stz/8Xn5/2zmSrRVPmh0VDMcbrUHUlm2pMvjUHlK/Xg2ZpmGRVUwVDMHT4Mp6Xj348Lvysva9ql0zQdq3baJ3F4yW2fNXybCRU+XKSwfKQ3+6Qho1qO2CMAusbLu3//EVmTV3ubRq0VDatWmk+5QpY76fLR8NmyjTdUjio3+5ylVq2ZSiVVXjJy2QDL3r4cP/95EGXTN0W4mummvVmnUyc+4KWbFqo/z3/26W+nVr5odd+kaYEEAAAQQQQACBchIgtConWFaLAAIIIIAAAtVXwAVOOsyvdq1EDaOO1eBohYz/cZ7cdsOZekfBIOixeXbt3iNvvDtGh+PFSc/urXXYX5aGWjmFgZUShmk103uf/OCqsXr36CC33zhEjurUQmJjo2XewpXy+LPD9PXx0qp5A/l/d5zn7j64PWWXC7l+HDdLLvnVqXL7TWdJm5YNJE0DqTH63FP/GS6fjpgsQ07vIeee2afgQCXr/q7dsE22a4D1wO8vkr69Okp6ZqaM1TshvvDq1zJh8kJ564NxLnzLy9n7bojV92jzzhFAAAEEEECgvAQIrcpLlvUigAACCCCAQLUVcH2rIrTaak+GXHHxifLf176WWVptZcMELxjaV/tcZbtgar7eZXDuwtXSrnVjueic4+W5V0ZKuFZZ2fK+99XqtZvk3Y/Ha8VTpNx63Rlyng7r81Mzbdyenp4tq1ZvcsHVZRee4IbvWe+pB/5wkVx0bj8NutpJl47NC5b59eUny/cT58mCxT/Lz2u3FWxHszE3WV+rm68ZLNddNahgmW6dW+r8a902lixb76rIEuJjC4YjFszIAwQQQAABBBBAoAwFuHtgGWKyKgQQQAABBBBAwAQskLL/WD/1ls3qy9ln9JJNm1Jk1HczHZA1Pbd5XtSeUeFh4XL8cR1dT6rMzGz9Obg7YF6eVmtpeLVyzWZ398ET+nSSE7UXVTD5iEn0uS5y7NFtZLkO3Vv982Zdb567e+HxvTvJb644Za/AypZduGStDgXcI9EabKWm7nH7YZN9z9Cqqha6vwN0O9akPT09s6CnVp8e7d1+W3P2VA22gmAtf3f4hgACCCCAAAIIlIMAlVblgMoqEUAAAQQQQAABVyklQcXUkNN7ystvfut6W02ftVyO7trSPZ44ZaH2lIqXc7V6Klfnd3f/yw+RtC2VC5KsssmGAi5fuVHO/dUj2kxdK7HyeW1Wuzvhps0p7q5/Ns8pJ3YrCJRWa+D19ZiZuq0Vrnn7Sg21bL+ssXuUVm5l52QXHChbl/XbSkqMlXitorJt250GbV5f9aV7pMvkaKCl782Fa8EdCTnaCCCAAAIIIIBAeQgQWpWHKutEAAEEEEAAgWov4CuYDKJPzw5y2sCjZdhXP8mosTO1Mqq1fPLFJG2wvkv6apWVVVHZZFVWFhAFU1ABZT9aoKTxlwurLNxys9jL+t2arjdpnCzJyUkaMgVF9BYqvfzmKNfXyvbDemvVrBmvdyisK82b1pWNm3bIuvXb3LJ+CtPKLpvXli0MqQoruvx+BWFVsG/BThSsggcIIIAAAggggECZChBalSknK0MAAQQQQAABBEIENASyIXXRUZFy8Xn99a59k1yF1eKla+WHyQtkjw6/O0eHDvqQqDAsCpqc25rqahiVuitdunVpKY88eKU0bpis1U56B0IXOAUVT3aHv9y8XMnRSimb5uhdBf/0z3ekZlK8nKV3MLzg7L5yTLfWkpgQ6/bH7ipozdUtJPNTnnV8LzLZEEWb9g6qis7FzwgggAACCCCAQPkI0NOqfFxZKwIIIIAAAgggYMlT/lC9PDmmays5WoOnqTOWyB33vSobNm6Xls3ry8Xn9i+QCq3O8pVNjRvWdsHVnPkrZUfKbm3IrsP1tBrKQiqruLI7DlpD902bdroqKZumaA8s60dl23vg7ovkhL6d3bBCe27Xrj2yZVuKG4pYWNVlNVP7BlQhmRZHEwEEEEAAAQQQqHABQqsKJ2eDCCCAAAIIIFBtBFzfp+Dd2tC8q/XOfWvXbZWlKzbI1u2pMkSroKxflQ+bQl18gNWpQzM5/dRjZOnyDfK83l1wmy4XFxft7hAYHR0pX42eITfc9YJcf8dzsn5jcDdAW6cFWqkaUO3Zk+lWa8/Z19djZmhj96XBdguGIlabI8IbRQABBBBAAIEjSIDhgUfQwWJXEUAAAQQQQOBIECisrgod9mcVUj27t5G6dWpKrg7Ri9MA6cpLBrpQy4dWNr//8qFVDR3id+tvzpDZc1fJh8Mmyiptrm53DGxQr6bMWbBaxk9aILPmrpCLz+kn9erWdEP5+vRsL021z5XdKfCO+16Rkwd00wbrcfLTjKUyZvwc7XGVIJu3puyFGbptX4EVWolV3OtHwtFgHxFAAAEEEEDgyBUgtDpyjx17jgACCCCAAAKVSCAIeKyRetCPKjc3GL5nfaHszn72c/durWTo4J7yit5J8KJzjpeWzeq7d+CarOcHVsFyNswvGOqXlZ0tvY5tJ0/84xq558HXZcKPFlKt1Lv/RUjangztbRUhd948VO7//cWSoHf9s+Xbtmok9955odz/97fkew21Jk9b4sKsrKxsued358nWbakyTQOsoKeVbScoB7PwrLiqL7ePOput2xrB+yk01Cp4kgcIIIAAAggggEAZCYTpxUbhlUcZrZTVIIAAAggggAAC1U3ALqksGMrMzJbFy9bJpi0p0q51I614qlNwVz4Lr9au3yrztAfVUR2bSyPtVxU6LVm+Xtas3SrNmtaRNi0burv7WVDkG6Fv1nXOW7RG5i1Ypf2t0qSJLj+g/1HSSntj2Tz+ss6+27LLV25wlVjLdL0Ndd7jNPzqeUxbbQS/Tn5et0Vat2ggrVpYcBbmhh3O1gbuiQlx0rFtY0nUyizbtr/DoA1rXKTvq26dJGnfprHExtgQxOA9V7djzftFAAEEEEAAgYoRILSqGGe2ggACCCCAAALVWMCHO6UNeUqynA+sfHjlhxdWY3beOgIIIIAAAggc4QKEVkf4AWT3EUAAAQQQQKByCIQGU0X3KLQKquhrB/r5YJc72Plt20Gj+MIqLb8/RcMvH4rt7/UDvQ9eQwABBBBAAAEESiNAaFUaNZZBAAEEEEAAAQQQQAABBBBAAAEEEChXgfByXTsrRwABBBBAAAEEEEAAAQQQQAABBBBAoBQChFalQGMRBBBAAAEEEEAAAQQQQAABBBBAAIHyFSC0Kl9f1o4AAggggAACCCCAAAIIIIAAAgggUAoBQqtSoLEIAggggAACCCCAAAIIIIAAAggggED5ChBala8va0cAAQQQQAABBBBAAAEEEEAAAQQQKIUAoVUp0FgEAQQQQAABBBBAAAEEEEAAAQQQQKB8BQityteXtSOAAAIIIIAAAggggAACCCCAAAIIlEKA0KoUaCyCAAIIIIAAAggggAACCCCAAAIIIFC+AoRW5evL2hFAAAEEEEAAAQQQQAABBBBAAAEESiFAaFUKNBZBAAEEEEAAAQQQQAABBBBAAAEEEChfAUKr8vVl7QgggAACCCCAAAIIIIAAAggggAACpRAgtCoFGosggAACCCCAAAIIIIAAAggggAACCJSvAKFV+fqydgQQQAABBBBAoEwF8vLyCtaXk5MrWdk54p8Lfa1MN8rKEEAAAQQQQACBwyAQphc3hVc+h2EH2CQCCCCAAAIIIIAAAggggAACCCCAAAJFBai0KirCzwgggAACCCCAQCUWCP28cfK0JfLqW6Nl+47dbo9zc3Mr8Z6zawgggAACCCCAwMEJEFodnBdzI4AAAggggAACh1UgNLT64cf58uzLI2Tb9lS3TxTQH9ZDw8YRQAABBBBAoIwFCK3KGJTVIYAAAggggAAC5SkQFhZWsHp7FPpzXl7ha+W5D6wbAQQQQAABBBCoCAFCq4pQZhsIIIAAAggggEA5CFhg5b9s9SF5VjlsjVUigAACCCCAAAIVK0BoVbHebA0BBBBAAAEEEEAAAQQQQAABBBBAoAQChFYlQGIWBBBAAAEEEEAAAQQQQAABBBBAAIGKFSC0qlhvtoYAAggggAACCCCAAAIIIIAAAgggUAIBQqsSIDELAggggAACCCCAAAIIIIAAAggggEDFChBaVaw3W0MAAQQQQAABBBBAAAEEEEAAAQQQKIEAoVUJkJgFAQQQQAABBBBAAAEEEEAAAQQQQKBiBQitKtabrSGAAAIIIIAAAggggAACCCCAAAIIlECA0KoESMyCAAIIIIAAAggggAACCCCAAAIIIFCxAoRWFevN1hBAAAEEEEAAAQQQQAABBBBAAAEESiBAaFUCJGZBAAEEEEAAAQQQQAABBBBAAAEEEKhYAUKrivVmawgggAACCCCAAAIIIIAAAggggAACJRAgtCoBErMggAACCCCAAAIIIIAAAggggAACCFSsAKFVxXqzNQQQQAABBBBAAAEEEEAAAQQQQACBEggQWpUAiVkQQAABBBBAAAEEEEAAAQQQQAABBCpWgNCqYr3ZGgIIIIAAAggggAACCCCAAAIIIIBACQQIrUqAxCwIIIAAAggggAACCCCAAAIIIIAAAhUrQGhVsd5sDQEEEEAAAQQQQAABBBBAAAEEEECgBAKEViVAYhYEEEAAAQQQQAABBBBAAAEEEEAAgYoVILSqWG+2hgACCCCAAAIIIIAAAggggAACCCBQAgFCqxIgMQsCCCCAAAIIIIAAAggggAACCCCAQMUKEFpVrDdbQwABBBBAAAEEEEAAAQQQQAABBBAogQChVQmQmAUBBBBAAAEEEEAAAQQQQAABBBBAoGIFCK0q1putIYAAAggggAACCCCAAAIIIIAAAgiUQIDQqgRIzIIAAggggAACCCCAAAIIIIAAAgggULEChFYV683WEEAAAQQQQAABBBBAAAEEEEAAAQRKIEBoVQIkZkEAAQQQQAABBBBAAAEEEEAAAQQQqFgBQquK9WZrCCCAAAIIIIAAAggggAACCCCAAAIlECC0KgESsyCAAAIIIIAAAggggAACCCCAAAIIVKwAoVXFerM1BBBAAAEEEEAAAQQQQAABBBBAAIESCBBalQCJWRBAAAEEEEAAAQQQQAABBBBAAAEEKlaA0KpivdkaAggggAACCCCAAAIIIIAAAggggEAJBAitSoDELAgggAACCCCAAAIIIIAAAggggAACFSsQWbGbY2sIIIAAAggggAACByOQl5dXMLs9zM3LlfCwMPecvWZfubm5BV/2Upj+j33Za/adCQEEEEAAAQQQOBIFCK2OxKPGPiOAAAIIIIBAtREIwicLooKvcIkoeO9RUZEulIqPi5Hw8HD35ScCq2pzivBGEUAAAQQQqLIChFZV9tDyxhBAAAEEEECgKgj48Mm+r16zWdLSMiQyMkKs/mrjph2SnZ0jC5eskd1p6ZKdkysRGlwlJydJXf0iuKoKZwDvAQEEEEAAgeorEKYXM4U159XXgXeOAAIIIIAAAghUSgE//M+qqO5+8HX58ptpkpAQK3m5ebJ7T4ZkZGRJjaR4iYyI0NAqx732ytO3SYe2jTW0Eq2+YnhgpTyw7BQCCCCAAAII/KIAjdh/kYgZEEAAAQQQQACBwydQODwwTC46p58Lotas3Sqbt6XKnj2Z2ssqT7bv2C2bt6bI+g3b5fjjOkjHdk1clRWB1eE7bmwZAQQQQAABBA5dgNDq0A1ZAwIIIIAAAgjkC1hQcjBf+4PzheBF12XzH6hIvOj8oT/7ZQ80T3GvFV3O7/OB9mN/76s0z9t2IrSKKkeH/vXu0V4uPLuvREVFuGbsvuF6hFZT2c/NmtaVu2452wVZvhF7abZ5KMsUZ1jcc951f9vyvmW5bHHHsrj1F32uuOV+af/39754HgEEEEAAAQRKLkBoVXIr5kQAAQQQQACBAwjYH/r+TnU+TCn63S/uny9udX49/nvoOmx+v42iy4Zu389X3LKh2y66f37dv7Rc0W0V3Zey/DnYl6AJu4VRd916ttSvW1OysrLdZmxfwiPCZXvKbrn3jvOlUYNk17S9IvfRv9+SnAOhx68kx7K4Y7S/92bP+9f89wMdy+Lm2d85EHpOeff97X9ZHn/WhQACCCCAQHUWoBF7dT76vHcEEEAAAQTKSMD/8W+hih+Slp6eKVt3pEr6niyJiYmU5FpJEh8f47Zo8/sp9A//ooGDVRdl5ocz1mA8OjpynzDGr8vW40MLfxe9PboPNkVqqGN32iu6Xft5/uKfZcXKTdKiWT1p36ax7mvUXvPZrloIZPth7y8uNrqgiqmiQgvbT3tPubm5Ulsdb772THngobfdfkboe9utzdlP6NtJTjmxW4FBRe2bP45Fj509n56eIVu379LvWRKrrrVqJUqCngP+WBV3DgTP+WOpP6l9Vqba54eiMXoO+OX3d+7YeWMuwT5kuqb1Vo0WHR0c2yDUCwJQe2316k2yeu0WSdR+YJ07NNvnHLD12LaytOm9nddJiXHF7kOw7/wvAggggAACCJSVAI3Yy0qS9SCAAAIIIFBNBYqGFTtT0+Sdj76XDz+fIDNmrXChg/3B37F9U3ngDxfLyQO6uhDJJh8uhdLZ+qyKyF77x+Mf6HomudCrT8/28vzjN7m75dnd84pOfj/s+U1bUuS/r38tX3z1k+zR4OTqS06SP/z2XMnMzHLhlU2pu/bIA/98Vz75YpILK2yZoaf3lGcfu9EFKzblaGPzyMhIGf71VPnLI+/J1ZeeLLfdcKZ7zQdJ7ocKmiy0Mkv7fv5Vj8q0mctckGceL6iNhVY5+pofOlhBu1WwGX8MrDn88G9+khdeGSkz5qywU0D3K09atagvl194otxy7WCJj4tx76PoOeDXYeeAHasPPpsgTz73uR7HTGnWpK68/+of3LKh/qHnoO2MGdnxfffjH+SNd0a78PTkAd3keT22dkzt9cAxT559aYQ88tQnGqom6ny7ZEDfzvLcYzdIPa1ms/XaPtrwzEVL18pNd/7HvYdXnrnNvefDcQ5U9DFlewgggAACCBxOASqtDqc+20YAAQQQQKAKCLiqFw0krBImdVea3HX/q/LpiB81aIqWHt3bamVQgmzctMP90X/xNY/JA3dfLHdrgGR/8PuwwRjssU1WJWMVMd+Nn6OB1UTXZNzWvXnLzmK1/HJWPWNBx4QpC+Xv//pAJur3+vVqSpreYc+Gzrlt6Jevznnx9W/klTdHyXln9ZFLzusnH3w6Qfd7sgw8oav8+rKT3X6Eh0e4Buf/evozF65ccn7/gtDIr6fYnSqHJ0ODGQtR7v7teXLptY/LTg1nrr9ykJxwfOegl5VGRO6Y5FcmlcOuFLtKfzwztCrq0ac+lmc0DJK8MOnauYWeA4muQmnB4jXy0JMfyroN2+SfD1whMQWVT8EdDv0+W7Bk73HT5hR59a3RsnTFBhdgxcZGaSAXXnCu+B1xAZS93/wn5i5YLY8985l8pMFprZoJ7i6LOzSQsslOMztXbJkffpwvf330fTmxXxe58ZrTZeqMZfKfV7+SBzWgtODK78/utHT5+2MfyPJVG11gFQReQYBYLAZPIoAAAggggECZCBBalQkjK0EAAQQQQKD6Ctgf9lkaMkRrqPC8VtZ8OWqaNKxfW3534xA558ze0rhhsixZtk6efH6YjNDXXn3rWxkyqIcbhuUrhwrDiiAIsJDgrQ/GaWC0UxrUqyXbtqcWDDssGhYFoVWYq8T533vfaQjxngucrrj4RA0lFmholbnXsn5bU6YvkZbN68sNV2vgo9U1jeony+x5q+Tr0TPkqktPciFIbna2PPHs5zJ/4Wr58PV7XAjmly+6H+V9Bvjt2fZtmGKP7m3kLK0M++Lrn+T8ob2df5bub5RWhvl9LO99Cl2/mVvF18hRk+U1rW6yaqhbfnOmXHju8dJSh16maAXeR1o196+nP5H3Ph4vfXu1d3dD9AGVrcuHT/b+cnKy5Kn/DJMfJs+XJo3quMopCw6Le2/2nH9+5Lcz5M77X5E167a682+tfp+lx9VXdNk2vOWknxZJUlKcVn8NkMGnHCv9eneScRPmyqjvZrr1uRhV/8cqB4eNnCIvPHmztG7Z4LCdAxV5PNkWAggggAAClUGARuyV4SiwDwgggAACCBzBAvbHvfUPsiFhVuVk4cJF5/aTm39zhgusrPqpnfaKevjPV0oDHXK1M3WPjB432/3hb+GETRYiBKGDDRkM03Bjogz7aooM7HeUHNO1lZsnN4gQ9pGy5WyZnTuD4WD16taSZ/51gzz76PVayRPpQpHiJhtmGKv9qepoFZDtY0JCjMRoJY/tv01RGsD8MHmhq/T53Y1nuWocC2Z8OGLfK3ry27YkxXpr3X7TUHn4gV9J966tnWWkVicVzlOxe2fDEm3bX2not2VbqhzTrbX88c7zpW2rhu741qmdJDf+epB069xSMnSY5lejg2DInwO2rPvS9VhV1aSpi+XN98dJZx1WOmhgd4nVqizzLy4stOWs55lVWn0yfJKrqjKXZ/U86NiuSf454Ouwgmor08nVc8POAQuu3DmgQVuMbjtlZ5rztHXOnr9SHnriIzl3SB+5cGjfw34OVOxRZWsIIIAAAggcXgEqrQ6vP1tHAAEEEEDgiBewEMF6KOVF5Mmjf7lKUnQonlVRWdNqe96qbwhgMqEAACAASURBVCyksGFaCdo7yvpKWShgkw8q/GOrhpmnQ7uef+Ur2bUrXX7zq1Nl9twVrnpL62OKtfKBl9XFXH3ZSdJLhyR27dLCzZudvW/I4eePiAx3+2JDxywkWb9puwZfadKudSO332u0Mfcd974qPY9tJ7+9YUh+WBLcIfFwBUOhgY3tgwUynTTU8X7FBTrFopXDkxby2fbvuPls+dXFA7X/VB3Jtv5Ruq0wPa6ZOmwwUs3btmogYyfMceeJ32/v6Xtcbd22U555cbg2cU+VP99zsavc+1wrnYLxncXvvK3DgrOzB/dy4dLgU491M1qlXeBSGDLqbrpzLzIySnbvTpetGrLZOWDDFm24ZZPGya4yy4aWPvncMNfj7MH/d4lr0B70xCq+4qv4PeNZBBBAAAEEECitAKFVaeVYDgEEEEAAAQScgA+BLJw6qmPzYlWsd9HUGUtl4+YdEqfVLD2PaeuWswop++6HCVqI9IL2FJqpzbtvvGaQnKLNs603lc50wNDK1lG3Tg1tlH6Sq/ryFTn+ToahO+UDEhuadtOdL8izL4/UoGOLvP7uGPlZg6qH/nSFm/3Rf3+i1WOZ8o/7L3c9mSyssCDjcAZDtl+hgZk9toogC2H8cThc++eH3/kQreiJYA3jrbpt6qxlzrHXsXufA/592f5/NGySjBw9XYac1lP7jfWXMd/PyQ+LLG0quubgvQfnU7gOmezlzquggiuoAgyW2LvSyuYZMuhYefy5z+TlN791fdQmTV0ki5aslet1yKi9/pZWelmj/n8/cr0bSmrVWHaeHy7jfd85zyCAAAIIIFC1BQitqvbx5d0hgAACCCBQ7gI+bPABilU8WbPs3Lxc2aNVLlZhM1l7Bz305EeSqkMD+/bqIINOOtqFCr5Hke2kBQGjxs6St7V/0HFa3XTDVYO0+iVCgw69k6C+lt9haJ/34wMEq/SxKajWKWxGvs8C+oTt63lDesvU6Utds/dpM5dqZdceHb52umvM/vo7Y+SN98bKX++9zA1PtH5Z1jPKJlvWT4cjvCgaTlWGwMq72L6Zv/UDc8dMqezujdaof7oGkdbzbOnyDa6H2HVXnuos/Tngz5u581dpldUIadSgtvz68pOlRlK8pOvQUwuR8sJ0hcUU3PnjYNu01wuDvH2btvtjZ9vu3KG53Hv7BfLCayP17pDv6r5maYXWMa66y5q5P6wN5X9zxalyje5HbsjQxMN9DhScgDxAAAEEEECgigsQWlXxA8zbQwABBBBAoLwFfGBg3yMiwvIrksJk/oK10rXPb6Vu/VpuF2rVjJfbrh8if7zjfPdzUF2l4Zb1QtKfrZfUgw+/q5UskXLlpSfKUXrXOQsHrE+TpR/7Gx4YGprZem0/QvfJbSxk8qGPDQd77G9Xy63XnyGLFq+Tju0bS4tm9WXx0nWuysrCiztvHuqWtP5RNoVWNYWus6IfF/f+/HMVvS9+ewXBkTVLd3deDHdDLAdf+DdZtWazu/Of9YiywMp6jtVJrpEfMOYHS3qnQRtG+vizn7n5b7r6dNdoPjgHtA2rHVedp7hp33MgOA9s3uJcLNsKXhO585ahGlT2liXL10s93aduR2nPLa2w++09L0pDDc5u1aGhVr1nXzbZtnzYFqyF/0UAAQQQQACB8hIgtCovWdaLAAIIIIBANRXwIYH1ATpxQFc3tG7jph2ybOVGbdS+QD4eNlHOOK2HxGp/oCAAEBcI/POJD2Xpig1ahdXd9USyxu6RWmnlqlpc1Y7dUU6reDTk8sMKfVhh1MWFE8UdgqIBR0sNquzLnk/TuxY+pPth277vzgvd4tbvaJMOa4zX92Ohlk1un3Qq6TbdzNVo8qGQDQvt1aOdtNI77pnpgsVrZIOeCy+/OUpuvfYMPTcSXBBoY/4s5Hr5f6Pksy+nuD5dNkTPhuOF67mRz+2q7axvlX1ZVZUPIIsL8Q7EbetzlVv5K7ahf/blJwtPl63cEDRyb9vY9TrbtDVFG/tHaa+uugXb9fNzHhxIm9cQQAABBBAovQChVentWBIBBBBAAAEEVCA0BCoIF/RBs6Z15dM3/6hzhMlqrZwZ+e0012D9qu+fdn2i7tSG3VZZY0HAqLEz5c0Pxrll7rn9PInXvle+KbcPFyzUCK14MfzShAWhQYftu31ZryWrvHr7w+/li6+muv3rrsMCrQH8f7TH1ozZy6Vxozpy2YUnuLsiRmuYFjRXKr7yp7qdGPs7B5KTk+Spf15rmaNs375LvtW7Rj6iVWxWyZaSskseeuDK4K5/OsPa9VvlNe0rZs3677vrQmmvYZE/B2zop9+G3RHSVd/lN7cq3TlQ9LwtPAfsXHz9ve+0qf/JcvYZx2lPtUXyrA5XnDFnuSQmxmmfrR5y3VWnuTtj+rCtuh1v3i8CCCCAAAIVJUBoVVHSbAcBBBBAAIEqKhBa5RJU2ARBjgULVmVlk1XUHK3Drrbv2OX6RX0y7EdXTVVb7yhoVVj/fPJjSdcAa2C/o6SuDtFasmyd5GiYFBcT7e4iaGHVLr3L24pVG/VxhAZIyRpc7N2vqGjVzYG4Q+f1gdXsuSvlmZe+lBOO7yK3XHemzNK7Fl5901PSpXNLueeOC+T7CfO0GuwjSUqIk2u1H1NOjlUHBXcTPNC2qsNroZ6h54ANF61ZI94RWG8qc8vWarm/P/a+DP96mlx4dj85TiuxbPl//ftTWfXzJunXu6P01p5mi5aude2rrIG73dXP5rFm+IuXbtAqvUhpoMNOEzXgsn5ZoX2uSnoehM5nlVv285p1W9wQ1fZtGss9vzvP3Tjg9ntflg0bt8sNWvllVWKPPfOZPp8iLzxxozsHfJhWHY4z7xEBBBBAAIGKFiC0qmhxtocAAggggEAVE/BDrDIzc2TLthQd0pUjDTVQiNHhf/6ugNnZFgqInNS/q6tmysjKkrXrtko9veOf9ZBKSdktMVF6h8HpS+Tqm/9dcIM4C6u2bU9161q2Yr1cdt2TcnTXlvKP+y6XenVrusDA37UutNrHAogDTX5eG25olVxbdAigNYpP14brT/3zN26/R3wzTSvBsl3Po3O04mao9lc6/YK/akXYWBe+2LA23+foQNuqDq95T2u8v3X7Tq1cy3WBZY2kOOdkhyMYBihy+inHyGNPf+KGei7XIXi9e7Z33ydPW+wa+K9es0UuufaJAjY7PtbvzPphpaSkyQ13PKf9sJLkr3+8VI7p1toNFbQ7+tnkz8WSmIeeLxZ82TpefOMb3ZdN8vaLd7hzc/hXP8lPetdLqxa7/aazJEsr8uYuWOXuMrhTbyqQlKihmZ6Dv3S+lWR/mAcBBBBAAAEE9hUgtNrXhGcQQAABBBBA4CAELHywP/gnar+qvzz6nuzQAOqlf9/q7gBoVVE2RUcHTawXawWVVTbZH/lxcdHuD367y6Ddbc4er9bG3TkaeFjljMVO+pREaaWNDQ9L1+bYqxdslVpatWXBmE0+sLLHJa2w2Sus0HgsIjxC3vt4vHw3fra8qPvdqkUDd8fDNWu3SrNmdaVBvZpun63nkd3N0O4yaP2Z7DGBhTsM+QFemKtEuvO+V8SO8y3XDnaN963ayibNnNy0QgOqbK2YitZAMk6HgdqUqtV0Fk7Z1yatYlq7ziqr/ABAccMBreLKqrQWLlnjGqRbwGhTaHDow6OShEj+fPGVdl9qSPnMf0fITb8ZLCdrLzYLLjdt2eEC06aNk93Pdh5ab7OUnXtk247UIJQL2pu5fWFCAAEEEEAAgbIVILQqW0/WhgACCCCAQLUT8H/8d+3SQv+oj3SVU3955D157vEbpFH92kGYpOHQ5GlL5NW3R7vqpa6dWkg7HYJlVTL9eneSSV8/GgRAGlr4GikLEywM+/tjH2jj7m/lxH5d5I0XbnfzWV8jmz7+4kcdbjhaTj+5u9x0zWAJs+BDny8ML+zx3ofE768P276fOE/uf+htN/xryKCeQWWQridRh7NlZmS7/bH9sKbgFq5ZUGYBysFU9VT1k8JMrQqphYZ81oDfGuq/8d5Yad2qoZys1XVBAil6h74N8tQLw1yV0tFHNZC+vTo4xy4dm8noz//uhvrZ8fLHz46RhVKfjZgi9/z1DWmkYdX0cU/o8MBoPSZBCmbr/Ouj7+rdKRPlIe1FVksrvHyFn63Hjl/Rc8COh23XvqyXmQ3/e+TfH0vf4zq6YYG2w7ZMgg4FzdH35Rq/56dudl7al++1FmbJauj4xKp+sHl/CCCAAAIIVKBAtQmtQj8JtfJ0u5jxU/DJXmFfjJJ8Ohd6jPb6xNZdAAWv2nps3TbxSWwFntVsCgEEEECgQgUsVLDKJ+tF9ZtfnSLrNm6TH35cIP0H3+sCKbvb2nrtSfTD5AWyY0eadO7UTBtZD3J3f8vTL1veD+8K3XH/u9N+l1pgZL9f42KjXWWW/tdNjz3zicyeu8oFZb26t5Pevdq7QMGvz4IU2zf/e9/uPufDCptnm/bY+vPD70h37bd1+41DNHQLd0PbrKKmZ/fW8sSzn8qnGphYZc9Xo2e6Owke36ujC1XsesL/nq9Q8Eq4sSDACa57/qh3XVyzfpv8NHOpXPe756W/9qhy54AGQxP0HNimDdlbtagvd992nutL5cPD4s4B/1at8b2dAzZvQlysCw3t2Nr0zyc/0Cb/0yUxPlaHC7aU664c5OazMMomq+qyc8Ces8lfp9l5YEFUulbN/UPvGLloyTr5/J173bBG25Ytb83gLbz8QocJ9ji6rezWu0su1vlaajVew3q1guu7/Gs9t3ImBBBAAAEEEChTgWoRWoWGSr4EPFyHAoRO9rwNYbBP1Q42YAoNuUKHKYSu/2CDsDI9yqwMAQQQQACBchSw35tW9WLfL79wgCTXTpTX3h6jQ8TWyvgf57tG6taE24KfwaccK9drRVOvY9q6IMn6FNlyxU0WNtiwsAQNI+wudFbBY/PmavNr/3u1R/e2smr1ZunQronU02F8QRBRWFpljd5tGJmFXTaF5WlQpuuw5e13/3ufjJeVuvzTj1ynQ8Dqukbf9prNY0PErr50oFZ5jdK7Ho508/fSIY+/v+2c/HUc/DVDce+zKjxnXhY+2jHt2rm5PP73X+sd94bL/EV6DkzSc0DDHrsjpA217Nq5hfxWhw1abyt3DhRpqB/q4SutIjREtPPKmrq74aQhHz5279paxnw/1627U7tmwXHOP4Z2LGvWSHDLJml/LXcOhAUfMLrgUfd7xDc/yWdfTpG/aZ+0Pj07uHDLvRd9zSrA/vL/LpG//et9+XT4j/qcuPdnz0XrXS99RVdVOIa8BwQQQAABBCqjgFY07+dKsTLubSn2yV+Yuotcu6DSi+NUvfvQdP30z4YnxOpF7DF6S+skvYWxXRzb6/5itSRBUyifzb95S4rr52Drqa8XT3W1iadNfj9K8RZYBAEEEEAAgSNGwEIf+xAoUytVftRm1WvXb5Wd2gMquWaSNG1Sxw0Hs8mCAV+ltL/ft24onv5uXaZDzZbrXQMtgOqpYZf/3WvLbd+xW8b+MEc6dWgmHTW4shAh9AMkG/pnoVXzpvWkY/umGnhpQ3gbgqjLWt+qMdrHyirEunRqrkPOogp+X9vVke3fjpRdMkyrbGz4mF0r2BDFzrotm/jdvvdp6T1Cj4E1V1+ux8/u/Gi9oBo3TNZG+q0kOWQIn61lf+dAngZUYdqcfd2G7bJg8Wo3LNAq3fxoPFvOqqiGfz1Vaur5cfIJOhQx/9j49c5dsNrdFdBC0+5HtdLjZhVXwTlg+zpL7xqZqsMVu2q1Xc38YMvOIf8+rLn8qLGzdGjjOnc+2jlw7NFtCs7DA+2/2xkmBBBAAAEEECi1QJUOrUIDK3/x+ca7Y2SElpAvWPiza6RqzVxbt2goV+onqeee2duV+uv1yH4vnkKlQy/O7KIpZWea/Pmf72g5/DJbgdx27Rly+UUD3CJFL6JLfcRYEAEEEEAAgUooEBokhX4IVHRX/RCt8rjrnh+uV5Iw6VDm4Xd60aNa+LN3dcdZr6fsQ7ziJl9FV9xrB/ucDfn0ndBKclz9+g80b+g1ZHGBmq/GOth9ZX4EEEAAAQQQODiBKj48MCjv97ekfuyZT+Xf/x3ueim0bFbf3WLZAqYRo6bJ7HkrZbs+f80Vp7hPzkIvvvdHahcx/qLGHn+izWDf+Wi8+yRx5640d1cZPxV3wbO/9fI8AggggAACR5qA/z1nvxdtSJ/97rWqK/c7Vd+Ma4atlUuhFc32Hg/0+9H/jrWQKPhQKeh/Ffo72m3Hqqv097AfZha6ThvS57cTOgzN/w4PDVf8c97efrZt2zz24ZcPYXzg5vfPz8/34Hiai7e2cMqaqxecA2pqFWx2jtj0S4aF50B+P9IiQZg71rryLBvWqesLPTa2fns9OH7BkNDizgE7h2w7Vl0V9OYK5vXbtu9210J7HzbZ3RD9XTF/af/dAkwIIIAAAgggUGqBKh1a2XWMNVO1xp6jvpvp7jxkJeS3XXem3H7zUKmRGCtpWvL98JMfy1sfjpOHn/pEe1W01f4FzQsuXg4kaxcq/mJlnTYcffL5z93tu214QVaW3tUm/4LsQOvgNQQQQAABBKqSgA+M7I//ov0jQ9/ngcIqP1/huixMKFw6dNmi2ym63qLNvUNft8cHet22GAQZxVcLFd1WVTqOh/JevIvztWuhvduI7rXqXzL0rxc9zkXPJWucX/Q5/3PRqr6i54CFUMUtG/o+iq7fz/9L+7/XivkBAQQQQAABBA5aoPirsINeTeVcwD4dtYsJ+wTto2GT3J2Lumnzz4ce+JU00Z4KSYnx2rSzlvzp7ov0bjOtXT+q57TRqi1jn6haILW/qfC1oCfC/+ntm+32zkNP7yX9+3aW7doDY39N2fe3Tp5HAAEEEEAAAQQQQAABBBBAAAEEEAgEqnhoFZSnz1+0RhYuWetCpOuuPs3dxtpCJwu17JbG1oD11BO7ulsbT5m2RPZow9YguCo+tAotF7dP/kaNnSkv6Z2Fju7SUq64eIDeHUdvx+16Y+39yd2hnHQ+JLPvNtQh9Cv0tUPZBstWfgE71qHHu+jPlf8dsIdlIRB6Dlijav4NKAvVI2sdB/p3wL92ZL0j9hYBBA5WoOg1QNGfD3Z9zH9kChzo98GR+Y7Y64MV4LrwYMWq3vwH+negKlwXVunQyiInO0grVm3Quxdt0VsTR7pgyf9St1DJgiz7uUObJpKovajsDjGz563K72lQ/AntAy0rxNq6LVV+f/9rEqO3Pb7iohOlX+9OkpKadsDbNxe/1gM/G1qibkMZQr9CXzvwWnj1SBewYx16vIv+fKS/P/a/ZAKh54D18eHfgJK5VaW5DvTvgH+tKr3f6vheirsAdf218ntsWb8w6xdlX/acvVbwgZY9pz2Y7Mv3AyPgrnpnUdFrgKI/V713zDsqTuBAvw+Km5/nqp4A14VV75ge7Ds60L8DVeG6sEr3tLILPjtIKTt36y2r06SR3uo4uVZSkT/6g3natG4kMbHRkp6RJRs27QiCLdc2dO/JX0TaRaA14XziuWGyedtOGdjvKLlK70Bot9V2TWbzCv+QLLqO0vzs34tdkE6csjC/oW24ZGRkyjFdW0tycpLb56pwUpbGp7os488/O84ZGdmyW0PWGokxLsTk+FeXs6CwcbH16EvR27QnJcRKTEwk50D1OQUKjrWFFTtT0/WDk0hX5Rv6b0Q14jji36r/99sfP/tuH4zl5ekd+HSyf/ODnk4H/qxxPzfqK/AJbUqvFyrBtUR+Vbh9s21yHXHknE6h/3+3Hq32OyFJ+7WGNpM/ct4Ne1paAf/vR3p6lvbqzZCaNeLc3yhcF5ZW9Mhbzh/rzMxsvRlYutRIipPoKM6BI+9Iln6P/TlgH1al6jkQoz2242Kjqsx1YZUPrezQ79Q/6iy46n5USwkP6dMZXBQGQ/jsjn/WqDM7O1u2bk1xF23+YsCfPv5ksIs+CwmmTF8snw6fJPGxsXLfnRdIrZoJsjstw93BKE8vBsty8tvOyMyS2+55yTWkjdbhjOs2bJd3Xr5LBvTt4j5ppfl7WapXvnX5c9LOz+0axC5duVmO7txEL1L5xVT5jlb57ZH/9yBNQ/K5i9dLp7YNpEFMDS5Qy4+80q3ZnwP2R+qiZRu0P2NNadWsTpW5OKl04Ie4Q8HxCkKh/a3K2grYZIFDccFRhv4xsnnLDncxmqEfsG3fsUvnztOgIk/q1U/Wm8CEy6LFP0tEZJQkxEW5OxnHxkRLkv7xUjMp3t0kJjExrtjNB3fPs8Cq+H6e/pqouP0qdoU8WSECodcEG7ekyrZtu6SrXhNEh/MhRoUcgEqyEf/7YJtdF67YJD26NZeEeK4LK8nhqZDd8OeAfZg9Z+E66dapidSpncB1YYXoV46N+HMgU1sfLV6+Sa8La0iLpslu5/xrlWNPS7cXVTq0cldfOlkYZRdaFjSFh+39KWWYC5eCZu1h7pPNoGeUW7BI7mTrsPTS1mdN2//19KeycfMOueuWc+Xorq1cCb5eawYnhq7T1uUvKNzqDqESyl8o2jq2bN3pLmptuKPtR6b+0eLX7x4wVVmB0D8YLKTM0gDV/6HDHxNV9rDv88ZC/z0IPQfytMKTqXoI7HUO6O8A+91kE/8OVK7jH/p736qY/FTcccq/ZHEfRq3ftF3Wrd0iK1Zvcr/nU3enu7sh70nPcNU0NjTQqm1zc3P0w7gIOeP0PhKl3z8dNt4NF7TrA9dGQK9XrF+ntTCw64b4uBipWydJGtWvLU2b1pUG9WtJmxYNXcC1vyn0Wsa/n0O5ntnfdnj+4AX2uibQfwPs94G/7izuHDv4LbDEkSDgf/fb3yEZ+u8D14VHwlEr233c97qQa4KyFa78ayt6Dti1gE1V5XdBlQ6t/J9vVpEUFxvjhv3ZRZ+f7CDmV97bIXUZVVRkpNSvW6vYgCm4ELAheOHy5vtjZfykBdKhXVP5w2/Pdqu0/ljBhWHQJ8suGP2J4gKtX6rbL9iz/T+w9dkFqF18RmnZp3ucf6VbVU7K/b97XgkVsOPtv5CpngJFzwH/R2/11Kie77roOVA9FSrXuy4aGgR/QObtcw1gz6frEP/VP2+SqTOXybLl6+XndVskLS3TXavYp6WZWl1t1d3u4zX9P7hrP6AXN+6463WAXVtoHqXP51dI6WvuD1etxLJ2BRaUuV5Wui3bL1+R7a8f7MY09rh2rURp3aqRdGrfRDq2bSLNmtTVMCzcXV+EXlvYum2d/t+aou+1ch2J6rU3/FtQvY536Lv1/3+0c6Do/2err0r1fOf8O1A9j/ve/x7s/feh/z19pMtU+dDKDlSylkcm106Ubdt3uTsD2nP+AOojvcATWbZivXstUi/eatZKKAgDgnmDCzT7JDsyMlymTl8i734y3t158IE/XKQXmBmyc2eauyC1C0UbwmePU/Q5+4TUxpQmaUm+rSv04q+0J4/fJ7twrConYmktWA4BBBBAAIHKIOB/x9vveQukcrQKyobsB39QhmkFVLbs0qF9m7bslDnzV8k0DaoWL12rwVW2+13uG6X7PzptPfbBlFVN2Qdrvvzbfvf7yZ61D7Hs9dA/VkI/JHMf4BUUYRZWgds1jIVitq9b9fpo+cqNMmbcbLcvtWrEuwryLh2baWuFVlJLr4usSsuv1+axa6LQoYxldY1T+O54hAACCCCAAAKHImDXBlUhL6jaoVX+J4RNm9STxg1ry/zFa/TTzCX6CaL1/QiCKCuds+qoBYtWu/CpebN67pPG0INrF2X+zjx5eeHu7oI/aXDVvFl9+d0fX3YXpO5TTD2jrBTf5rXy+6dfHK6N2j+ToYN7yQtP3ORCLrsAZUIAAQQQQACBqiFQGNYELQSsGslVQUvQU2aDDvXbsClFJvy4QIOqpa7q21c8WQhk1xB2URlRpH2B1wk+oMot9YdeLuMq+JAr+PDMB1z2kuZqBZN/L3YX5O/Gz5Fvx85yFVddO7XQXknN5dhubaRRo2TtlZKoywVJmA1Jiwjpw0V4VTXOa94FAggggAAClUWgSicoFjbZxWP71o2lhQZMcxaslq9GTZcLhx7v/K103qqgdmuviPF6MZmZlSWdOzSThtrrwS7CrGzeJqucsmArLzy42Kujd+rr0qmlNNS7EVoQ5T//tO+5Ot5ws/acsoapdfSTSVvOGrS7Kfi4NXjM/yKAAAIIIIDAESsQGs5YjymrWLKwyvpeWpP0eQtXy7xFazSoWiJLlq53d/OK1Tv5BJVTVild/FsvLvQpiyrt/a0jdHtuHvtQT6+fLFCLjg6Cqbn6Xn7SwO3ND8ZJty6t9K7FFmK1lPZtGkmcVmDZZMMY7brLlvMf/O1vm8W/c55FAAEEEEAAAQT2FajSoZVdLFlfCLtzzpBBPTWYmi9fj5khT/3nC7ny4oFi4ZMN33vi2c9kxuwVrqfDpef3dxdb9qnh+o3b5eU3R+mdODbIHTcOle5dW7rXBvTtLO+8dKfrf+UnK+u3kv6MzEx56MmP5KvRM+TGq0+X88/q47bv1mlNJ5gQQAABBBBA4IgV2Cus0g/GLNaxQMoqlhYvW6ctBBbL3AU/y08zlkqmBjmJ8bE6vC7RXQf4u/QVF0x5kIoOevbZXpBTud2xD/7sdesNGmsf3ul/5i2woY1LpF6dGhpctdAQq6X0691J6tWt4ZYJwivth+WGLQZtDPbZhnuFCQEEEEAAAQQQ+GWBKh9aWQ8qu4A676zeMnPOCnn9ndHy+DOfydgf5kmjBrVk7fpt7vmt21Llj3dcIINO6u7uyhOpgdRXo6fL489+7ob+aQG/vPrsb1VUe2Rp2GVfxU12IVorKUFyNCxr0qiOdNZ+EDaVVSP24rbJcwgggAACCCBQfgK+cshvwX62SilrjG7XBWO+ny1Tpi1xodWylRtcyJOQECuJGvi4/lba/yk0qDpSQhy/bCXCIwAAIABJREFUn7bv2fkBVqxWqMfFRWsvriwZO2Ge/DB5gXyrvbBaanuFs8/s7aqvbPKBlzXU8u/9QGFd+R091owAAggggAACR7JAlQ6t/MWRlarH690DH7j7Ilf19MGnP8jocbO0p4TdzUekbauGctctZ8v1Vw/KP5bBBVan9s3ca9ac1KqsXM28Tv7W4qEH3i5K7VNFG3KYprektqbue/ZkuHl9vwou1o7k/6uw7wgggAAC1U2g6O/t0LDJWgqM0p5PEybNl4VL1sqOlDSJ0eF/ybWTQqqqCntRHSlB1f6Osd9/qyyXnKC6vGZSvGsgv0gbyi9askZm6IeAdt00dHBP6XlMu4JV2SKhwZW9cKR77M+J5xFAAAEEEECgbAWqdGhlF0R2kRT0tsqTGnpx9affXyi3XDtYpuonolu091RtbSZ67NFttFF7spO1+W0Yn11g9enZXt7+712ya/ceDa1auQusoGJq71tA23Lh2u/Kpvj4GHnkwavk97eeq5VWyW7bfj+4QHNETAgggAACCFRqAR+w+N/fdk3gh7tlai/Lr76dLsNGTnF3ArS+l3aXwJo14921Q2hVVVX+vW9XPXYzG3uPCfl9rbZuT3XXVnZ3ROv7ef7QPjKw31FavR70CPXVV97VToKqbFSpT3J2DgEEEEAAgSNEoEqHVnYM/IWRXWwGAVa41E2uIWec1mOfQ7T3J6pBCNVR7yQYOoXeRjr0+dBgqlmTunqHwrruZVunTVyUhWrxGAEEEEAAgconEPo72x5bFbV9kGUV03aH4f/P3nnAx1Fcf/zpmoq7cccYU2wwvRfTHCCU0DuhJYEQSgIJSQj5J0AooYTejKnG2ODee7fcbVnukiVbtiTLVpdVrd7+781qzitZktVv7/a3cJ+T73ZnZ76zN2/mzStrNu6iCdPXUlpatkquIu6BknBFDiNe1ZHsfNZrXdvXSM9tJBui/B3MbpEy65FkNAn7M1Q4htkLI+gPj95Apw05XgWqF66i2NNxPmvPvdq+jigRBEAABEAABEDAvwkEvNJKusesUNIT0vq6TU++9ASq7rl1vzeXcaxr6rsfPgMBEAABEAABELAOAS3nxSJI9pxEsSKu/tujE2nuwk0cXH0fOTlWpihfzIeeA9h1g8rLjaHJ38JNAtMzQdq7L43+9soYuvHa8+i2my+mISf3V99LlmaXUggeiXllnScBNQEBEAABEAABELAKAVsorQT2sRRX5u8bO7ehHcGGrjErs+w6mbXKw456gAAIgAAIgEB9BMybVGIFpN3Zdu5KpJnzI2g1x61iZ38KDfGoGE51ZTvku0FVczDzEZYetkabuzhSBW3/FVu6X3fNOXTSoL41MUJ1WAZYptf3bOIzEAABEAABELA7AdsoraSj9WSqocml+fOGzm3o2mOV39h1dn8I0X4QAAEQAAEQ8BUBs4JFK6xy8wpp8sy1nBVwJ6Vl5lCPbp1VJuFKMb+qsSaS+kK2199r5jmU8JWszN04s3IFZ1YeP2UVbYjcTbfdeDHdwdkG5ZDvnYZpllchWH/J+BQEQAAEQAAEQMBuBGyltLJb56K9IAACIAACIAACRxMwW1aJgsVIsuJQFlZLVmyjOewKGBWTRKEcYFwUVubg6hLLCkfTCWgFlg7a3q1bJzqQfIi+/H4hu13up4fuvYozDvZXMcHk0DFI9R2gGGw6a5wJAiAAAiAAAoFIAEqrQOxVtAkEQAAEQAAEQKBeAmY3f/lbK6wysvLoxwnLac2GGBV0vWtXyQZYzdZBRoY8KE/qxdnkDzU/UQCGBhtulqvXRdPuuIN0562X0T38kmQ35gyDTS4cJ4IACIAACIAACAQsASitArZr0TAQAAEQAAEQAAEzAbMroChHxCVNlCmrWHnyw0/LKDUjl62tHBQWFlIrGyAoti0BnW1QOOewK+Z3Y5fQjqhEeuKR62nwoD7qZqLcEqsrfUBp2LZ9gNJAAARAAARAwF8IQGnlLz2FeoIACIAACIAACLSYQK3YVaywcrHC6nBhCc2ct4HGTVpJLrcEDDemRaLQkgOKkhbjbvRC4apdNKUfnGxhFbl1L0XHJtFfn72DLr1oKLnZVVOs3HRQfLOFXKOF40sQAAEQAAEQAIGAIuAIqNagMSAAAiAAAiAAAiBQh4BWeEjcJFFIiaIkYX86vfXhFBr98zIKDnYrxYkc+lworNr3MdJ8NW+320VlZRX06tvj6Zsxi0iC4YvCShRXZoVj+9YKpYMACIAACIAACFiNACytrNYjqA8IgAAIgAAIgECbETArrKRQcQlctT6aRn23kA7lFFDXLmHKFU0rUaCsajP0TSrIrLySmFZduD9mzo+g/Qcy6YnHfkmnnTKAFVcVXldOWFw1CStOAgEQAAEQAIGAIQBLq4DpSjQEBEAABEAABEBAExDlxhGFlSilSFlZjZ+6kt77dAblFhRx7KrgWgor0PMdAe0yKH3WuVMwbdkeT2++N4nWboxhiysX9+URKzg5BwcIgAAIgAAIgIA9CEBpZY9+RitBAARAAARAwDYEtLJKFCE6O2BJaTl98e18GjM+XHEI5vhVZgsr28CxcEO14qqiopotrkLpUHYB/e+zGfTzlJVK6SiHuHiarbMs3BxUDQRAAARAAARAoA0IwD2wDSCiCBAAARAAARAAAWsQMMc/kr/F5SwtPYc+GjmLdsQkUUiIi5UeDiisrNFdR9VCK6QklpXEGisvr+RA+eFUcLiE/vCbX6r+FEWknKeVXPqaowrDByAAAiAAAiAAAn5PAEorv+9CNAAEQAAEQAAEQEAI1Kew2hufSm9+MJnSMnLJw8G+OSegV+kBatYlIIoosYRzuRxKOTVz3kbKyjlMf3riZurezYhDxuHJoLiybheiZiAAAiAAAiDQJgTgHtgmGFEICIAACIAACICALwmYFVbaJTB2bzK9znGR0jPz2B3QDQWHLzuoBfcWZZW4AzocQeR2cwD9tTvppdd/pNS0HA7M7uAA7VXILNgCrrgEBEAABEAABPyJAJRW/tRbqCsIgAAIgAAIgMBRBMwKK7HOkQyB23bG08tv/kRZh/JqLKyOWGIdVQA+sCwBswtgSLCHEpMy6PX3J1EKK65cLqeyxjL3v2UbgoqBAAiAAAiAAAi0iACUVi3ChotAAARAAARAAASsQKCWwopjHYkiY+uOeHr7o2lUVFRGHrawknPkQOwjK/RY8+ug+036MZTjXCUkprPL5yQ6kJKl+lss66C4aj5XXAECIAACIAAC/kAASit/6CXUEQRAAARAAARA4CgCdWNYuWosrN75ZBoH7i4mT7CrVra5owrAB35FQMW5YnfB0NBgik9MU4rJAymHlGWdPAtQXPlVd6KyIAACIAACINAkAlBaNQkTTgIBEAABEAABELASgboKK8kqpy2sRGElmefEdQzWVVbqtdbXxQjQXkmhIay4SmDF1YdTKTk1W2UVhOKq9XxRAgiAAAiAAAhYjQCUVlbrEdQHBEAABEAABECgUQL1Kay2RSWw5c1UKihkhRW7BEJh1ShCv/7SUFxVseLKQ/vY4uoNdhVMSc/xKq6kcToWll83FJUHARAAARAAARAgKK3wEIAACIAACIAACPgNAbPCSmcJjItPpf++P4UOF5WooOtQWPlNd7a4ooarYBWFsEVd4v50ev1/Eyk1w1BcVVZWcrnVsLJrMV1cCAIgAAIgAALWIQCllXX6AjUBARAAARAAARBohIBZYVXJwbclltFedhF7k7PJFbLCyu1CDKtG8AXcV9r1M9jjoQRWXL35/mTKyT2sngtRXMohzwwOEAABEAABEAAB/yUApZX/9h1qDgIgAAIgAAK2IqBdvsTCSoKux+1LpTffm0QZmfnkZgsrrdSyFRSbN1bHsQoJZlfBeCM4uyiuJMaVWFzBTdDmDwiaDwIgAAIg4PcEoLTy+y5EA0AABEAABEAg8Alo5YQorMSSJjEpg975ZCqlZ+Zx0HUorAL/Cai/haKU0oqpkBA3bY9OoK9/WERFbHknhzwvUFzVzw6fggAIgAAIgIA/EIDSyh96CXUEARAAARAAAZsSMGeEq6qqVhY0WdkF9Nk38ymFs8aJokI+165iNsVk+2YbiilSwdnD10TR+GmrmUmQ4qKfD7gK2v4xAQAQAAEQAAE/JACllR92GqoMAiAAAiAAAnYhoC1pRPHgZIVVSUkZfTduCUXF7Ocg3B6vJY1deKCdDRNQSin+38OWdzPmRtC4yeFKbcXGWF7XUSiuGuaHb0AABEAABEDAigSgtLJir6BOIAACIAACIAACStEgLyNLYBCVV1TQt6ywWr5qB1vUsIWV+t6wpgEuEBAFpzwT8u5wBNGEqatp1oIIrxWePEtwFcRzAgIgAAIgAAL+RQBKK//qL9QWBEAABEAABGxBwKxg0IqGURyraO7CSLawcrOySlvP2AIHGtlEAkpxpdxIg8jlctLXY5bQuo0xSlklyk8orpoIEqeBAAiAAAiAgEUIQGllkY5ANUAABEAABEAABAwCZsWCjkc0a34EK6w2cdB1N58UhEyBeFgaJKCVnE6nQ7kGfjxqDu3Zl6IC+IviSnwI5RwcIAACIAACIAAC1icApZX1+wg1BAEQAAEQAAFbEdBKh8rKKmUtsy4ilsaMX0Yej6tG2QClg60eiBY0Vj9D8vwUcibBN96f7FVcyXMliivEt2oBWFwCAiAAAiAAAh1MAEqrDgaO24EACIAACIAACDRMwBzHShQOm7btpU+/nsvxrCpV5kBD0QArmYYJ4htNQCuu3G4XZWbm0fufz6TklEPqOaqoqEJ8KzwqIAACIAACIOAHBKC08oNOQhVBAARAAARAINAJaGWVKBrEEkZcuWL3HKSPvphF+flFyuJKuw0GOgu0r+0I6BhXoaEe2p+UoTJPHmbLK1FciaugVmzB6qrtmKMkEAABEAABEGhLAlBatSVNlAUCIAACIAACINBsAloZZSgYDJfA7JwCGv3zMsrKLuA4Vh4VXBtxiJqNFhcwAbPiav2m3fTd2KVUVlZufF6TURDPFh4VEAABEAABELAmASitrNkvqBUIgAAIgAAI2IaAtnYRyxfJ+lZwuJi++G4BbYtKpE5hwV6LGNsAQUPbnIBhyUccF81N8xZH0vhpqyWev/yvLPj0q81vjAJBAARAAARAAARaRQBKq1bhw8UgAAIgAAIgAAKtIWBWGBiugdX01Q+LaOXaaAoNcSsLK7hutYYwrhUCWjEqf4eGeGjqrHW0ip8xbd2nzwEtEAABEAABEAABaxGA0spa/YHagAAIgAAIgICtCGhlAhu7KAXCvCWRNH/JZurcKYSVVYYVDFy3bPVItFtj9bMm72LR99k382jT1r0qfppY+cHaqt3Qo2AQAAEQAAEQaDEBKK1ajA4XggAIgAAIgAAItIaAsqCSFx9Op4OWrtxB349bqhRWokSQAwqr1hDGtXUJaMWVBGIvKi6j9z+bQXHxKV7Flf6+7nX4NwiAAAiAAAiAgG8IQGnlG+64KwiAAAiAAAjYmoAOvl7BmQJFgRCxJY6++HYeVVQYGd2grLL149GujdeKKTdnpJT4aZ9+NZfSM3OPyijYrpVA4SAAAiAAAiAAAk0iAKVVkzDhJBAAARAAARAAgbYgoF2wRHFQyQorFysOUtNz6IefllFpabmyuEIMq7YgjTIaI6AUV3yC2+1iS6tU+vbHxazAKuFPgryB/+Eu2BhBfAcCIAACIAACHUMASquO4Yy7gAAIgAAIgIDtCWjrKqWwqskUKAqrT0bNpoQDGUqBIAesrGz/qHQMgBrX1JBgN61YvZMmTV+tYl1pSyx5x7PYMV2Bu4AACIAACIBAQwSgtGqIDD4HARAAARAAARBoUwJaGSDxqpzsElheXkk/TljOroF7KcTjVveClVWbIkdhjRDQz6Porjp1CqUpnFFw7qLImoyC1d7MlXgmG4GIr0AABEAABECgnQlAadXOgFE8CIAACIAACICAoYzS7lY6K+DUOetpyYrt1LVLGFXxh9oSC7xAoKMIaMWV3E8srkaNXkDrImKUm2pVFZ7JjuoH3AcEQAAEQAAEGiIApVVDZPA5CIAACIAACIBAmxE4YtVSrRQCM+dF0Fi2supUkykQCqs2Q42CmknAq7hid0CJafX51/MoITGN460Z02TEtmomUJwOAiAAAiAAAm1IAEqrNoSJokAABEAABEAABI4mYF70O51OiorZTz/8vFTFsDLHuTr6SnwCAh1DQCmu+FaiUM3NL6KPOaNg5qF8lVFQP6NwE+yYvsBdQAAEQAAEQMBMAEorPA8gAAIgAAIgAALtRsC84BcFwF7O1PYpKwQkEDsCXbcbdhTcAgJiZyXPqyhTY/YcpM+/nUdlZeVKmSXuq2ZXwhYUj0tAAARAAARAAARaQABKqxZAwyUgAAIgAAIgAALHJqAVVhIbSBb8hUXF9MV38ykxKYMtWpwIun5shDijgwkYiimi0FAPrdsYQ2MmrFBJA6pN8a1gcdXBnYLbgQAIgAAI2JoAlFa27n40HgRAAARAAATah4BXYSVR1/kQZcCYCeG0a/dBVggEs8LK+Kx97o5SQaA1BPjh5P/D+DmdzskCps1eXxOYvQqugq3BimtBAARAAARAoAUEoLRqATRcAgIgAAIgAAIg0DCBIxZWVVRVWclxgURhtZxmzduoMrQZh6HMargUfAMCviFwxA0wiIOxO2nsxBW0ZoNkFHRSBT/PiHHlm37BXUEABEAABOxJAEore/Y7Wg0CIAACIAAC7ULAvKAXayqXy0Xha6NpBmcL9HhcbHFlxA0SxQAOELAqAa24EqVVSWm5Ulwl7E8nNz/P4u4KxZVVew71AgEQAAEQCDQCUFoFWo+iPSAAAiAAAiDgQwJ6sa/jWO3ctZ9G/7SUykrLalysjPhWPqwibg0CTSIgz3JlZZVyZ41PTFfx2PILivg55kyDrJHViqsmFYaTQAAEQAAEQAAEWkQASqsWYcNFIAACIAACIAAC9RHQi3mn06EW+J99M4/S0nMpmN0CtSKrvuvwGQhYkYChuKqkzp1DaEe0KGCXUUWFEdtKP+tWrDfqBAIgAAIgAAKBQgBKq0DpSbQDBEAABEAABHxIQC/g5V0Ocan6aswi2p+USWFhHmWxApdAH3YQbt1iAtriSgKzL1i6hcZNClfxrTiVAL8Miyv93Lf4JrgQBEAABEAABECgXgJQWtWLBR+CAAiAAAiAAAg0lYB2k9JKKYfDQd+wwmpZ+HZ2rYLCqqkccZ51CWi3V4nLNmPuBlq/KVYlGKiqMrJg6u+t2wLUDARAAARAAAT8kwCUVv7Zb6g1CIAACIAACFiCgFZYyXulyhTooJXromnxim3sEuhB3B9L9BIq0RYE9LNewZqqkd8tpOjdB1ScNnnu5YDiqi0oowwQAAEQAAEQqE0ASis8ESAAAiAAAiAAAi0moK2rKnkhLy5Tkdv28oJ+gYpfJZYocJtqMVpcaDEC+ll3c0bBtIwc+pKf85zcw+q5F/dXOeACa7FOQ3VAAARAAAT8ngCUVn7fhWgACIAACIAACPiGgFZIVbHCysUL9+ycAvr2xyXq3e12qUphEe+bvsFd24eAPPMStq1TWDDFxafQ1+wGW1xcxs85saL2SID29rk7SgUBEAABEAAB+xGA0sp+fY4WgwAIgAAIgECrCWhXKe0aVXC4mD4cOZsSkjLUgl4v4Ft9IxQAAhYioJWwYkkYGuKhZSt30qSZa5RyVj4zu8taqNqoCgiAAAiAAAj4LQEorfy261BxEAABEAABEPANAb0wl0W6HGJ5MmnGGtqwaTeF8UJePpdFPKysfNM/uGv7E1DPNj/3wcFumrMwklav30UudhuUjIL699H+tcAdQAAEQAAEQCDwCUBpFfh9jBaCAAiAAAiAQJsSkAW7dg2UwOuLw7fRrAWbqFOnEKpiDRaUVW2KG4VZlIA8605nEBUVldDn386nPXuTVRw3OQw3QkOpa9Hqo1ogAAIgAAIg4BcEoLTyi25CJUEABEAABEDAGgT0YlzeZYGelJxFo1Tg9SoV10crs6xRW9QCBNqPgHYJFGur3LxClYAgN69IKW3hJth+3FEyCIAACICAvQhAaWWv/kZrQQAEQAAEQKDFBMwLcbGwSsvMo3c/nk6lZRUqELt2C2zxDXAhCPgZAVFQSebAsNBgio1Lpk9HzVEtgOLKzzoS1QUBEAABELAsASitLNs1qBgIgAAIgAAIWIdAbYUVB53mhfpHX8ykfYmpFBLirrG0MlyjrFNr1AQE2p+AYXFVRR6PizZu2UMTOb6bHJU12QTN7rTtXxvcAQRAAARAAAQCiwCUVoHVn2gNCIAACIAACLQ5AbPCSrIFlpVX0s9TV1F0bBJ53C5YWLU5cRTojwREOSUusuOnrKLlq3cq68MKVu7q348/tgl1BgEQAAEQAAFfE4DSytc9gPuDAAiAAAiAgMUJaEuRClZYuVwuWsEL8vHTVnGtgziuFaYSFu8+VK8DCOjfiPw+SkrLaMz45ZSYlEFuzigo8d50LLgOqApuAQIgAAIgAAIBRQAzzYDqTjQGBEAABEAABNqWgF5sy8LbzQvymD0HaPzU1eomLl6Qw4qkbXmjNP8loN0EJb5VRlYeffrVHMrOKVCKXR3vTX4vOEAABEAABEAABJpOAEqrprPCmSAAAiAAAiBgGwJaWWUsxCVToIMyDxXQF98tpNS0bAr2II6VbR4GNLTJBOT3IoHZQ4M97D57gMZNCmd32goVmB2KqyZjxIkgAAIgAAIg4CUApRUeBhAAARAAARAAgaMIGPF5eKHNliEORxBnCCynsRNX0N59KdQpLFgFmZZzcIAACNQmoBRU/LsJDfXQ/KVbaM7CCPUbkp8LLBPxtIAACIAACIBA8whAadU8XjgbBEAABEAABGxBwGtpxa2VRfjsBZtowdLNFBriYYUVuzhVQ2FliwcBjWwRAeP3Qyqm1bhJK2lX7EH1O9K/K7gJtggrLgIBEAABELAhASitbNjpaDIIgAAIgAAINEZAL6i1O1Pk1n00acYaCglml0C2IDGsRRorAd+BgL0JaAWVuNWWc7bNtz+eQqnpOcrNVltbQXFl72cErQcBEAABEGgaASitmsYJZ4EACIAACICALQiYF9ROp4MOphyidz+dRsUlZbUW3LaAgUaCQCsIaMWVJCzIOpRPn34znzMLlqsSobhqBVhcCgIgAAIgYCsCUFrZqrvRWBAAARAAARBomIB5IS1Jzg5x5rNvflxERUWl5DRZiDRcAr4BARAwE9CKK7fbRdu276WfJq9U8a0kWLv+vYEYCIAACIAACIBAwwSgtGqYDb4BARAAARAAAVsR0AvsKg6yLlZWP45fTms3xpLL5VDxeOSFAwRAoHkE9G9HflMz526g8DXR/JtyehVXcBNsHk+cDQIgAAIgYC8CUFrZq7/RWhAAARAAARA4ioAsmvXLUFg5acGyLbR8dRSFceB1DsWuvscBAiDQMgLy+3E6nSS/oq/HLKKomCSv4socoL1lpeMqEAABEAABEAhcAlBaBW7fomUgAAIgAAIgcEwC2kVJFs7isiQL6+07E2j0T8tYUVWFOFbHJIgTQODYBMzxrQ5l59Pon5dRZla+smgURbG2xoJy+NgscQYIgAAIgIC9CEBpZa/+RmtBAARAAARAwEtAK6zk3VBYOSgtI4fGTFxOefmFJHF4JFsg3ALx0IBA6wloxVVYWCjtiE6kH/l3VlFRqX5f2tIRv7XWc0YJIAACIAACgUXANkorPRmQ7tOTc5koyEsHw9TfNaWL9U6YvMsOWWWlLquS/224UJjv2ZQycQ4IgAAIgAAIdCQB82LZ6Qyi8vIK+nbsEl5Q76ew0GAlz7CI7sgewb0CnYCeN3YKC6ZFy7bS4hXb1W9MfmuYNwZ676N9IAACIAACLSFgG6WVNrvWCioxx5YgmPKSv+VzPTk/1qRBvjcmGKKsMlwnxJ3CKMupssKIMkwOvSBoSefgGhAAARAIdAK1NwCMTQDzZ81pv/k6vTDUC0EpR3+vyzSP9XKeIQeMjF71nd+cuvjLuZqBhKvi/ReatWATrd+0mzqFhdTa0PGX9qCeIGB1Al5FMf/eQjhe3Mjv5tPWHfFqLqrHnbpjldXb1Bb1gyxoC4ooAwRAAAQCk4ArMJtVu1VaEMqiRE8KYvccpOzcw8pCqn/f4+jUk/upi+QcUTo1dEhZWmHl4PTf/D+lpOVQatohKi4pp2CPm4adNpA6dwqhCi5bUoTrCQp2qxuiis9BAAQChYB5jKyoYAUQ/+dgKwJR6pvHQn2e2KVWsHWPfCfnSMBvsV6t4A0Bl2kR19j4qcd4Y2w2FF8yjssYLUd5eaUa1+Xf5sWgro9sMuh7y/nyb5EV+nv5zCib61XjyiNuc7oN6iZ+eEj9dRuET8TmOLayWkwhLMf8vW1+2B2oso0I6PGM83GqVn/9w0J6498PU59e3dT4Zx4r/RVLLVnA47n8G7LAX3sT9QYBEAAB3xIIeKWVWWjKIiSas7V8z8Flt0fFU3JqtlpQDT6hL11zxVn0l6dvpdBQj3dRU3eRZC5LFj8SQHP8tFWcujiKEvanU8HhYurRrRMNHXI8PXzv1XTLDRd5Tb3rluXbbsfdQQAEQKBtCcj4KIeMdZW86BKFvcdztDGveTGmNwkcrACSI7+gSG0cdOdxVPRNZqVKQ0oU8+ey2DM2EyRDVzXlckwmqUeXzqGqfB2zSf2DD11nUVgVF5cqmdCjRxc6rkfno8ZuteCq0yZ/Htc1N4MxUVJyJn03bgl5pC+4DxveutH08A4CINBaAvL7k/Enfn8GffbNPHr5b/eq32BD411r79cR1+txtZYsqNlAMN+/w2VBEMuCLs2RBZ1ZFnQJeFnQEc8E7gECIAACrSUQ8EorJTSVC18Q7YhKoL++MoZWr4+hzhxL4LwlXcPrAAAgAElEQVRzTqLDrGiK2LKH1kfupoMpWfThm79V5tospVRaYvOixChLAmY66ABP8F95awLNnL9RxQCRsk4+sR/FxB2gyTPXUuSWvZR1KJ9+8+C1avHkzxOQ1j5kuB4EQCCwCZgVIMqilRco+w9k0hffzqPU9Bw696yT6Knf3EBdu4YpKwJR/mgF0qHsAho1egHF7EmmwqISpbQK482Dq4efSb/59S+Um5q+pu44WlfxYmwm5NF3HJNpC2e/KyurUNcO6NeDHn1gBF152RmqfBYL3qOcLacmz1hLE6evVmN2l85hdMO159Jfn71DyQ1DqWMorPYlpNG7n06nAX170Gv/fFCVpa13/amHzdxErslr5LfzeeGcruJY1eXsT21DXUHAnwgYihvDTXBj5B6aMG01/e6h69S4ZT7Mc1Ert68+WZB0MJM+F1nAXgnnnjWYZcGN9cqCbJYFX4osiGNZUFi/LNAbInXHqAZlASvit+wwZEE1M+3HsuCx+1kWXN4UWRDKsuA8lgW3e6105T4iZ0QW/I9lQb8+3en1//u138oCKz9LqBsIgAAImAkEtNJKhItxyCLFQe99PpM2svvDFZeeTm+9/DCdMrivckEJXxtNb384hSbNWKME0Kv/eIAq+VqneWXDBRmLF+JFShDvSC+lSTPX0GmnHk9v/uthuuTCU9mVxUlFvFv/4Rez6OepK+mtj6bS7b+6hK2vOqsJiL9MOvATAQEQAIHmEDAWXobrtAybU2atpfc/n0UJPLHPySukHHbF/u2DI7jIMDWOqoUHW75u2hpH//jPj7Rr90EqKiqtpQBazhaskl3rv+wyc1zPLl7Flble+r56ISHn/+Vf37ECLIXLK1GLC62kWrV+F73057vpt7++VrmFy7XyvWwwPPP3r+jM006g2266hOYviaSPRs5WmxD33H65qqvouOQeH3wxk8ZPXUXzJ7+irg8K0jKmObR8e655cSc1kXZ89cMi2haVWKOwqr1Z49va4u4gYAcCaouUQoLdNHPuRjrx+N507TXnqA1RcUOWQ/9urU6jPlnwAcuCfYlplJtbSNk5h3kz9xfUtUYWyNxYZEGkkgVjKXr3gaNlwWqWBTw+vfnyQ9SrZ9eWywIew2UsX82y4B/P36WUg7J5IjJLZMHmrXVlwWYlC04a1JfuvWN4LVnw4UhDFsyb9LLfygKrP0uoHwiAAAiYCRztuxFAfER46tgkcxdtUgqrrmwa/PxTt9DlF59GfXp35x34nvTQPVfR3bdeRm420Z4+Zz0lJqUrv3tZ7JgPSfstwlVcSHZEJymLrN8/+kte6FxEfbksWVidcHwvevyR6+mUk/rzQq2QwlnY+stkI4C6Hk0BARDoQAIy8ZcjPSOXnv7rKHrupW/V32edeSL1ZFe7bl3F3a8myDCfJ+NrRlYuvfHeZA5AnECDB/Wm7z/7E+2OGEm7NnxGr/DGQTe2eBrPVgc/TlyhytaLIXOzjI0EQ1mWx66Ab74/ibZsT6BTT+pHn777e9q49D2aPeFf9MBdV1BGZh69xzvjazfG8DgusbMMd8F5S7dQty5harf83+ya88m7Typ3wrGTVqixWxaOUneRDSJHXvvHg3QNW4H547huVljp2FyLOHPZPFbUedwGE14emxHjbxAAgXYmoMc2GWdKysrpJ9703JeQqhRWRlIf/8ngWVsWfKVkQRrLgrPPMGRB925htWSBtD2zRhZs4WD0Igu+M8kC2UTuxha6E9gSduyEcNUTzZYF7xiyYI6SBVcqWfD+ZzNozQaRBYZcks2J+UtqZME/DVkgMkTcCcdNClfjvcReVLJg7nqaszCS/sN1k9Ai/igL2vmRRvEgAAIg0OYEAlpppRc0VB1Ey1btUO5/Z50+iO64+RJjt58XWjrL3723D6fu3TtTXkEx77zvU0Kxrnm2LLTk8668wHnpz3fSz1+9QL9mhZcot2RhU1paTmX8LkJXx0QRYY0DBEAABAKZQEWFEUj906/n0NejF9LZw06kL977A/367iupgN086h4yjkbtSlLjcu9eXemDN35H97NiqS9bug7odxz9jd0xnnn8RuXeJ5nssrLza8bk2gqVI0oYonURu2ne4i10BltMjXz/D8qiSqxpRcH0xr8eoksuOFXFjZm9cJMKzC7Wt2W8QIzlnf2BA3rR8f2PU2P+0JP7cywuFx1IOaSqHRLsoSiOhfja/ybTxecPob88e6uSH/64UNGLPVmgyYJYLNzGTlxWs7nDccDEEoH7BgcIgEDHEjDmnNUUypuhiTxOjZmwQsXZk3hXMsf0zmc7tlrNvpuWBZ99M5dlwQKTLLiKDitZUHt8UbKAx1eRBb2O60rvv/5btcmgZYG45j37+E1UqmRBrHLh1qzMlTPLApEZ85ZsPSILHjJkwdWXn0lv/vvXLAuG1MiCCDV317IgZo8hCwb072nIglP6q+RKB3jtIEdwjSx4nWXBReedQn955ja/lQXN7lhcAAIgAAI+JqDsjgN1oiqC3sMCR0ySk1OylSXVNVec6Z2UGxv/hnLqHPaz78WWUhJXJXL7PrrnjstJLKvMh57wd+kcQpdddFqt7xyOI56WYmIsOzmyY33ZRUPV/YQxDhAAARAIRAJ6jOvGAdQf5thRn/EOdU8OYPv513OVVZV5/NP/7tG9C/2T3fWGsou1xDmRc0RpVM4ZB2WsPm3IQPXZwYNZdLigRLmF1LfgMRYwVTT6p6VKEXPrjRepXX3D7cSwHhJL2H/+5R41bg8begJvMJTxuaEUxEIgjOMbSiyt4pJStYsucQ7l0JZHstB6//MZJJZc7772GNfNpcrWbZZ3fzh0H8i7xByTdv08JZxSUnOUJYPhJuMfbfEH3qgjCDSfALtOV1ZzvKdOtJatgEb/vFwp743poxFLyerzda8s6Nq5tizgIPNBNTECNRctC7p360Iv/YVlwSkD6LyzT6pHFhwvCxW1kVBwuEgpt+pahMp9tSz4nsN3uF0OToZ04VGyoE8vLQuG1siCciU3HLyJIfH8RBaUsHwQWVDAckd4q+QUfEicrfc5zIh4UShZwJ/7oyxo/nOJK0AABEDA9wRc2n1OqmJ1YdhcXNIeeaVn5io/ehFCp7Lbnp68S3layMlnpwzux25/+znIela9iibNxyhXRKaRvlcE2L7EVCVUkw5k0agxiyiad2ye/e1NdP45J6v7BRrb5vYFzgcBEAhcAi5W5MhY+iC7XrzwzO1qkq+UIDzmyjhpVuzIWChj8fmcvEJe+pDJfzVbxQazlZOcn7A/Tblu9OfAuZ15o8BYlIgbYm3Fih7jDdeSPhxsfZg69xDH0UpKylCbDycM6K3cOOSlD7lOdtFH8GdTZ62jJeHblRXtAnYRyeKAwHffdpkat3+csFy5gnz67hNKRuhFirlNVu9ZLX8UY66svEtcxogtcSpTo3YVtHo7UD8QCGQCekyRmHtdeCyavSCCTh86gK67+lyvtZXVxx0tC8RaSjJyi9WqSoYkyn0efFokCzgelkNkASfA6Myu24YsOFrBXksWnMCygIOty7nZLAv2e2VBL7V5LS+zLJAN7hFXnk2TRRawy7TIgoUsCyRRyF0cPkTJgokiCyLok7d/r9YS/igLAvn3g7aBAAgENgGWL2J6XKUEos6UJIN8IChZtGATVwhjQVTtXfzUtzuiU+GKebMcQbyAMh9a2BrlysTfWIyJafNzL32jFlipvGvdlX323/y/h+hvf7zDG+TR6hONwH7M0ToQAIH2JCCyQ44TeaGg5YmKFcITfd7/rnVrPRbKedq6R84VRRb/rzYYFi3bQl9+v1DJIQmA24tdCPWYXbcdUp5kKszOKaAhvFPfp08PlYFrCi8+4nmxI2UPHHCcsnp9guMNHqcsto4Ejb+HlVPimvLepzOU8mp3XAr94qqz6Lknb2XFWQa989E0euS+q+n+O6/gBZBqUi1ZWbc+Vvy3lumi8HNyXy1esY0WcSyvsNAQb1B6K9YbdQIBOxLQv1c3x5n7buxSzlZ6HA07zbA8lTFRDqvOKY/Igt61ZIGqdR09U1NlwUgtCziMR+9e3VRAdKUEq3NIeUlsmSuyQJRKfUUWTF9DUzmjtwSCN2RBL7r0oiH0+0euY1nQjUs4Igvuvu1SWraSZQHHu5o6ex3F7mVZwJsaz/3hFo51m0Fvsyx4mGWBKOT8VRbUZYZ/gwAIgIC/EHBNnLaK7rptuNrd1ochFI8IBH9WYOm6a+Eo8l4L/bqdJIsiObyTgaNlYt1L1L/FRFgsC1w8wQjrFEzl7HsvAR4HcVD2+3iho+/nzxzrbTg+BAEQAAEmoMc2PYbqDRA1s2/gMJRUDnYHNOJhvfzWzxyUPV6Nv3H7UpVy6ZuP7zF2uWuyv+vFXN0FW2ZWngquLvFJvv1xEX0zZjH14cXNOWcOotT0XLUQWcnZCLOyD3Pw3Pupc6dQqbWqmcQyHPXh06zI2Up7OdvhkJP70RWXDKMePTrRQ09+RD3Zbfzpx29WVlliASELH7MMsfq4bpY/wnwXx/D6duwScrL7jHwn1m2NdFMDvYePQQAE2pOA/DbFjfcQK/G//H4Bvf/mb1V2QRlj5Xds1XGnIVnQsCQwMvdJm7yy4O3xtJXDdGhZ0LNGFkjCpOpjyQIOzaFkQUUly4LF9A3Lg97HdaNzvbJgO8uCncqC6tUXH1BJN7yygDN9f/nhUywLLmVZkEpDOKHH8EuHcYzaLvTIHz6mnuzS/gzH1wrmfvBHWdCezyvKBgEQAIH2JuB69Z2J9MV3C3hn+Wx6hGORSOBaFw/4xmTWUODUXSC0d6XaqnxDeOqJOe+m8A5zEQe2lEO3Sd71Dr5eEJkn+ea6aGGs2ch38veF555MkvZW/i7jAL+fs+/+Vz8sVCl6xeT4jl9d4p1otFXbUA4IgAAIWIWAHk/1Ykrq1VS5obO0buJYgEvYAkjilci13bqGcnyRUnZd40VaqIzTUmr9gcKLSsrUgi6JLa5iWCnzT46P8uRjv1SLC0mQ8RUrscaMX66UNZecfyo9wAHiK9hlxVkz/ktMp/vuuKIWzk+/mkPbouI5PteTHNB3oPpOZx3USh6zTGhqe2vdpJ3/oeunF7r5nGjka17E5ecXGQtglllWrHc7Y0HxIGB5Ampuyr/P0BA37YlPoVGsuHqBg5Lreap+t1pD2kIWRLIsWLx8qyEL2DyrK8uCwxxrqoI3DWRDpFFZUFwjCw5mUiyH6Xjp+bvoyd/coMY7kQVf/7iExvy8jGXBUrr4vFPpQU6mdLQsGF4Lq8iCrTu1LBikvvM3WWC15wT1AQEQAIHmEnBJwMHYuGTe2U7hbCXL6dILhtKLz99Jl144VClhzAqd5hbu6/O1UO/JO+nd2GWvmt35UtJyVLXUhIAlnyw+5G957WEG4n8/+MQ+qu06SKTsx8sukRbGxvmqFFWWXNOHA/3q438coDE3r5AmzlhDH4+aTbfffLE6Vy8gvCfiDxAAARCwIQEZC+WQNwm6LscPXzynNhUys/KVperPU1bSv978iXbu2k/vvf4bdmXz8JgtSpZ6FGJcjri6Z3BmKcka+O+/3VeL6l85y1NKWjb9PDlcZQ+8fsS5HCi+sypPLKe04kyXvXtvMv3v0+l0z22X04Os4JI4h1+z4mtHVAKFcj0evn8E3cYB32VRKSl4tWyodVMf/8OsUBPO8nrvs+kUE3uQQjhDmdTdivX2MTbcHgQsQ8CYwxpj5PLVOzm+1fF003UXKLdqGbeM742x1DKVbmZF6pMFoz//k0kWxKqEEf9+82fayTFn33/jt43LAr6/yALJMvjYg7+gl/9+f60avfDMrZx84hD9xLJAYhX+csR5bE1bVxZol0FjXSCyQKy8DFlwSCn+d+z0H1nQzC7B6SAAAiBgSQKO4pJyFe9DMjV1Dguh8LVR9MhTH9PGyD1eZY4WKpZsQSOVkh0ZEe79OHjjAE5nLmnOZdEhgl4+l8NIJUxqQZOekUedmMHJg/oaba/JdGIor/jcmoWWZBeRRYy8RPElQWylPClLdnLk/QK2vuraJZQyWXDmcBBIr7tMI/XFVyAAAiAQ6AS0MkXGYRkXtXXWgH49VRySyy8+jV587k565UV24+MA7FM4HsmGyN01Cpb6M7HKLrqMw73Zle/qy4cphGVlMhZzNkIe9yV47603XsiWsFV0kDNQyaaCobAxkmQYcViMvws4e+CTfx7JQX970tuvPELJLBseffoT+mH8Mipl98OomAP03D++pRnzIpT7joz9VpSRekErVgRySADhHdGJyp1dDiisFAYcIGBpAjK2iIKqkse30T8tZ+vPBKWUkbhOYnlqxbGnqUCbJgvuoFfFpZtlgcQcXL8ptqb4BmQBW6bJmHdcQ7KAXcNvvekiQxakZlEOZ4U9WhYYXhSHCw1Z0E/JgkfVpreSBWyppWRBrMiCb2j63I2WlgVN7Q+cBwIgAAJWJuB4+L5r6JN3nqBpP75EH7/1OF3FE35J6zr656VeyyB/ndxKvfUO+mmcVr179060ev0uimGTYTUJYMEmfu/y90QO3Cs7M504/fmIq87hPjPcCZWfPQsnwyTZmPyvWhtNdz/6Lt324H9pJwdhlwmEHLJAkjghUp4sjEpLKygsJFjFQtHC2coPA+oGAiAAAu1NQCtTRPkvyiNR9MshY6S8xAVExu0rOZaIxJYqKi6hLdv2qe+08r+M4waKkkov2IYNHajGclFehXLach3gXe4l1lPKqpb/k0DvRUXFrNCqqBmTDeWNlKM3MD4cOUsFY3/tpQfYGqsLyXi/dmOMSqyxaOp/6IeRz/OCp1zt1Es5Ur7VFo5GfQxLabFk28HWaj9OXKEUeK6aWFbt3c8oHwRAoPUE9DxWQk3ksoJl3KSVaq4qm6mVlYZFUM1+autv1sElNFUWXCGygF+FIgu2xzcqC04fcjzLhgolC8KOKQtK1VhuzM+PlgUfjZzNLobJ9B+WBaIEW7UuimXBLvrrs4YsGKNkQSXLghWWlQUd3KW4HQiAAAi0GwHHJ28/rlJ+i6vETddfQC//9V72I+9GazYauxlWm4w3h4TU3elixRUrp+69/XI6+cR+KjPVG/+bzNmmMtSOsyiUVrJ12az5EUo5ddH5p9CpHIhXmV/zCmfuokj6E++qS4wqna3klJP7K5dAyVLy7ifTlRWAKKpEeVXKu/tz2f1kKQf+lZ1+sbjq1CmkRig2FoqyOS3DuSAAAiDgnwRkoVLGY+03HCT3qRdG0fc/LeUxmpVVrHSSMbiSY1hVcbRdUa6U84JCtEKyYNMLHIklIuOv3iwQCn37dOesUl2Ve2B8Yroaj6U8eSkXPh7L4xMz1HvvXt29WWQlCLmhsJL7OWkRx1GRoMdPPHo93XbzJeq7uPhUJQuGswWYlHf+2YOpb+9uJBZZ8pL6WElOygJWWIm1gbQ3NT2bLTSWUjHHehFuopyT73GAAAj4BwH5vYpllXhDbN2xj8ZOWuHdkNUKF/9oSe1aSruM5BlLDFkwbim3sx5ZIIHVZYOA/5OkR43Kgr4sC3gNI14O8fsbkgXpamyUrLTC1CivtixYvHwbjeR4v4+zLLjDKwvS1HXDLxmqZMF5Z2lZUGJJWeCPzwTqDAIgAAINEXAZVkRGTI9q4iCHTleNFVKld2JrpQl5Qw2p73MRRJxEnSp5ASSuJxKc948vfkPLOXOIvIsSSxY3K3n3JJ6zRp057ER66+VHlGCU/zM4C8kno+bQKrbOWhrek35x5dk09NQBNJTTqj/zxM30z9fH0fzFm1Va9fPPOVkpwPJ4J2zVul0clyWPBdtpandeTyqMdywW6usrfAYCIGAPAjIOunjcFSurKbPWqphVA/odR3feckktAGIZtJ3d2TqFhqiNBD1+HmS3bLFyOu/cU+iGX5ynPhdX7IfuuZr+++FUmjh9NV152TA67+yTvOVt3BxHP3GMLLnvcLbe6t+vh2F9pawVjPgwyRzn5AO2shKrXMkqZSh3iMLY+lYUQaIEEl2PLKrksKriR+ooTDjijdr9Hzd5pYoF04NjO4oVm1XrbY+nH60EgZYR0IqrLl3COPtdtHKlvvUmjpfKv3VDUd2ycn15lYxTMgc3y4L+/XvSXbdcWqtaYycuV6E9ZAN4CG8a6zHMkAUr6Tyef99wbY0sYFfwh+5lWfDBFJYFa5SFlszP9RGxJY7HxHCvLJC1gY7da5YFH46cqeb7/2E3dRX/jwsQyy0lC3hjRcZZ7cmBMdWXTxHuDQIgYBcCLr1brRQ8HF9Esgf++OXzlMMLCr1I8Gdli7RLuwLeyoFzZQHy4qtjaNmqHbSkartqo6S8vemXF3Iq9Ado0MDeSoDJ5+IqKEHZN2zeo9Ki9+MdHClPdljuV5mmgugn3vHawAsilaqd/xPhJgusxx+5jp578hb+u78qS86FYLPLzwrtBAEQEAIy9plf8plM9EXuSMD0lex6Fx2bRK/9bwLHU9zB8qe/cvOTTILbeEyVGCIP3nWVsgaW8VMCtX/MmZx++GmZGpMnj/47W8eeqr77DZcn47q4j/yeY1JJoPQTB/UhWdjMXbSZdsXup7PPOImVYxerDLmSslwWHrJzLlaxI7+bTxE8li+c8qqySJLvxRq3b69uVFZSyvU8oJRhW3ckUHJKNg08vrdSlok8MGJiWaPPvfKa5fmceRtoBQdwFtd4sdSADLJGH6EWINASAvLbFov/claajJmwQilwhp12gpqzyhzTmGu2pOT2v6ZRWfAQy4J10RwvcD+9/r+JLBd2KlkgY2tEjSxIZotRkQVXX3mmamcxZ4z9hGXBaJEF3TrRJJYFF18wxJAFHIB92crttFlkwV++pNtrZEEyy4I5vNG8i8fys88YTHf+6lIjPlgtWVChrG1lo2P+5BpZwPVQsoAtbMtZBoksuOryM2gbB2NPTmVZMKCnJWVB+/cq7gACIAACHUfApSexMnmXoyun/j7nzMHqby0A/XmiqyfwvC5RO+rXXnU2C6JXOFNgKu2LT2NTYycN4d2U0/jVlXewZKEiixg5ZFfnHQ7E+9C9V7FQ6sUp2DspJrJAkUXXI/ddTbf88gJ2v8jhlMSpVMaxWcTv/eQT+3Lg957K8krv4PgzQwUDBwiAAAg0gYBXacLnir5eJ6nQl8pYKOPiSTxOjnz/D/TXl38gSXE+fupqtTCQ6yXOldvlYuupq+gtDoCrXaylvLz8InLxeZVVld54JGIFdTyPuaM+fJr+/soYtnaNpq8425+M76VsbSRBjC+76HR6418P0VlsUatjXol7oNMZREvCt9MX38ynV/5+H+/Mn26M2zWJOK4efibdwJsab34wmabNXqcScHTmYL6PcQZBqa8srKwwvmt5LYxERkXvPkBjJ4aza6NTKQrN/dKEbsQpIAACFiNgjJ3VPO44qYSVNh9+OVtlVpUM2fr3bdiBWqPiTZUFg3lz4Yv3nqS/8di9iS2hlCzg8Z9HLa8s+DVb0r798sPUhcdeNdYpWVBcIwuqlMu5fC6yQObfX374DP391R9UTMK6suDSi4bSG//3ECuuBh0tC1jZ9TnLgn+zLLjystqy4KrhZ9CNrAD7L8uC6XPWK1nQqVMwPfrAtZaSBdbofdQCBEAABNqWgEviXOTmHSY37yz36tnVsDLie8huzhGFlv+6tEkbtOAUXZT83bd3d/W6infNzYcspERhJdfo63rzLvu1KjD7ESWenKPLFJcLeZ3Bu111Dx07xFyHuufg3yAAAiAQSATMCpzhrACSDHxiERDGsUPk0FZJYpV65umDaOqYf3BGrERasmKbSkUulrGi+B9x5Vlq51zGW638Dwv10It/upM3EMKUu/blF5+uynSykkbOEddtsb4KXxPFr2jKysmnrmxJO4LPveHaczk4r0eN3boOslmjAsGz8urtVx+l+++6wjv+q8yAXKYsqEa+/xR9w3ENt7KLysVs2XUPW9recfPF6p4S00pv+viyH7WcEX75BUX0zsdTlUJNNljMi0df1hH3BgEQaB0BQ3FlxOCTuKqjxy2hFzgMhXeeWaPQad1d2ubqo2QBh98QWSBZuuXwygJWqossmPLDi7S9RhaIu7aWBdfUyAIZk82y4O/P3cEb7aEsC85it++6sqA/Tf6eZQErrcJXR5lkwVnKlbBhWUBKZt1/1/CjZcEJLAve+wN9PYZlAVtZiSy4+/Yr2GLLWrKgbXoPpYAACICAtQgEfTd2SfWL/xlD/3zhHvrHc3cpNwkJeqt2MvgIFIWLnrTrdum2yXvdz4x/G1mn6n5n7r76vjN/1pb8dP0l49awS59Twl5cWJI5S+GciS8rCzKJVyJuLzgCl4B+vuR3mZKexxZ+GXTBWSewlSCC/Qdurx/dMj0e5BUU06YdSXTW0P7Ur7dsOhxRyBx9lbU+MT/LjdVMt7Wxc+S7ppTX1HPMi61j3Vffu7nXNKXcxs7RXEpY6bZpW6KK03XSwJ7KckDcZpazq6SW5R1dt8bqje/aloAs4sXi745br+DNRgfNnLtGzeO0xXjb3g2lWYWA0k0py6JKeoLDUdzHivQ98emUk1vE8fwGUrDbf7JWN2VcFu6QBQ0/fVr2J6flUuzedLr0/MFsESwxuJB4o2FqgfWN7uucvCKK5Hnh+WcOZGOUI1aYgdVatKY+AvoZEPfprVEHqV+frnTyoF7q1EAYC1zboxMMi6oaAaiiDfJhnuQGwoTXrHzTAlK/644/+pyjLczqCld9TUNl1WWp74V3EAABEAhEAmbBKH/L9oceSfV4aW73kfHY9ClfYB59646vsmBryLqpvvLqnlu3PHN96qujfG/s4xitqVueL2Wk5i1JVcQyQYLbL+PstR4PLKwC8feFNoGAQcDYoHBUBdHUmeuUtX+PHt0pK/swBbHlqBUOyAIr9ALqAAIgAAKBQcAlsTwkXkg3NrGVibfKnBegh15YNHg7ezEAACAASURBVLbAqHtO3XPN/657bl1sda+t+z3+DQIgAAKBRqDuGFlXojQ0LtZVBDXGpSnnNuWchu5RXx2N8uq2pqESOu5zqavEcZG4NuJaM3nGWo4HI27uRmzGjqsJ7gQCINBRBOR3L0ohcf8Vy4ovRy+kh++/Tlndieu1FQ7IAiv0AuoAAiAAAoFBwJHCmS8kfsjN11+oBB1MygOjY9EKEAABEACBwCRgthQT9zBxBYpPTFOxVgoKS1ScrcasyQKTCloFAvYioBVXISFuSkzK4Kx7UewSFqISCh2xOLWGAstePYPWggAIgAAItDUB1wvP3kG/vudKGjSwtwpwaKXU3W3dWJQHAiAAAiAAAv5OQC9WZWEqMaw6dQ6mBYsjaf+BTJJg9ToJiL+3E/UHARBonICMBWIFKvP3inIj+7XefJbxwZw4qPGS8C0IgAAIgAAIWJeA69UX76vJzmQE66vPLcK61UfNQAAEQAAEQMA+BMwWFCKv1QKV3yXToSiwxF0Ictw+zwNaCgIyJlRzEg5PsJv2J6WR21FJJw/up6yt5IXxAM8ICIAACICAvxNQQS/KeXdGDr176++NQv1BAARAAARAIBAJmOW0/J2alkeZmQUqlo0or+AWGIi9jjaBQMMEZByQ8B5icVVWwYHZ526iQ9kF3nAfWnnVcAn4BgRAAARAAASsTYA3aR082XUqt0DsyFi7s1A7EAABEAAB+xIwW07IQjUtI4+mz9+sYthIesNqtraCVYV9nw+03MYERHHFv39JwpCcVkAzFmz1Wlphbm/j5wJNBwEQAIEAIeBYvymW5JWSlq0muyL0cIAACIAACIAACFiLgLayYv2UkteTZ2+i9Mw8dgl01FhaWC+7obUIojYgEJgE5JdvzOGrKZjdBCO2xNPK9bthbRWY3Y1WgQAIgIDtCDieemEUyWvJim2q8RITAwcIgAAIgAAIgIB1CJhdfMQyelF4FO2MOcgLVE5xz/FsYGFlnb5CTUDAVwS0YjskxENzFm+n3XHJtYKxw33YVz2D+4IACIAACLSGgCM+MZ1TZadTXn6hKgcCrTU4cS0IgAAIgAAItC0B7d4j7+LSHxefTotWRFEoW1RAYdW2rFEaCPg7gaBqtruS+FZlFTRt3mbKyj7MTTI8KbRSy9/biPqDAAiAAAjYi4Br7cJ3VfDG/n17KIWVy8XBXHGAAAiAAAiAAAj4nIBWWInrviisUtJylVtgRUUVqbWpCHAcIAACIKAJyJDALsQSrzYpJY8trrbR7x68Uim4zQpwjB14ZEAABEAABPyFgOvcswZ768oyjtjrAAcIgAAIgAAIgICPCZgVVlIV+fdidgs8kJJNYez+UwF3fh/3EG4PAtYkUB0kCiqikBAXRW5PpBOOP46uv2qYCgESxN+JAlyPL9ZsAWoFAiAAAiAAAkcIOAoKitW/ZBdXbc6IlMMBAiAAAiAAAiDgMwJmiwhJZy9xrBavjKYNHGA5LNQjhhSQ1z7rHdwYBKxNIIhn9DKGOPjd6XTQ0pVRFBuX6s0Ubh5frN0S1A4EQAAEQAAE2LDq2Re/pujYJLXrYuzAwNQKDwYIgAAIgAAI+JLAkUyB1eR0OHnBmUbha3eTx+1SFhSwkvBl7+DeIGB9AiqboIT9cDopv6CEZi3cSgWHS1iJ5VTjB8YQ6/chaggCIAACIGAQcMxaEEGvvjOBcvIK1c6t+LzjAAEQAAEQAAEQ8A0BvaBUi0q2sCoo5AXnom2Um1/EcSfh1uObXsFdQcD/CCjFFXtSSDbBxAOHaN6ynVReXqkaoscZ/2sVagwCIAACIGA3Ao4hJ/en7VGJtHJNFO/GiLWVIczsBgLtBQEQAAEQAAErEDiS4YsXnJXVNHXuJjrIcaxCeeGJbIFW6CHUAQT8h4BWXIWyW/HKdbEqxpV4V5itOf2nNagpCIAACICAHQk4HnvwF5SZmadcBLHrYsdHAG0GARAAARCwCgGz247Esdq4NZE2bk5gCyunEXsS2QKt0lWoBwj4DQGvxVWwW2UTTGCrK5098IiS3G+ag4qCAAiAAAjYjIBjxBVnU2FxKeXmFdXsutiMAJoLAiAAAiAAAhYgoGPM6Pf9BzJp5oLNbGHlVrXTi0wLVBVVAAEQ8DMCEpxdxpC8/GKaOmcTlZZV1MoiKOMODhAAARAAARCwIgFH5qHcmomwEZSROBUuDhAAARAAARAAgY4joBVVEn9GXHdkM2navC1UVFTqdePpuNrgTiAAAgFHgPMsyQzf43FRYlIWTZ+3WXlYSBIms8I84NqNBoEACIAACPg9AcfPk1dSrx5d6MSBvdXEOIgT5OIAARAAARAAARDoGALmBaPErJJF5KwFW2nf/kzlFigGELCy6pi+wF1AIKAJ1FhTOTmhQ8TWeNqwOV6NMZWsLNfjUEC3H40DARAAARDwSwKOaXM2UL9+3emKy05XAktiaOAAARAAARAAARDoGAI6poxYWckCcsOWeF5QchwrTk1vKKtgAd0xPYG7gEBgE9BjjYutOUvLKmlReDSlpOeqsUbWAPoV2BTQOhAAARAAAX8j4Ojdqyu98OwddP45pyhh5eQMgjhAAARAAARAAATan4B5oejkhePB1GxavELS0leQkzeRYP3Q/n2AO4CAnQiI4qqK5/shHJQ9LSOXps7eRIfZDZntOdXnWrFlJyZoKwiAAAiAgLUJOL7/7E/02AMjlGmwcg9EZiJr9xhqBwIgAAIgEBAEzG6BInsLeeE4Y/5Wyjx0WC0o9QIyIBqLRoAACFiGgFJc8by/U2gwxe5No7Ub43j+L2orjnsFxZVl+gkVAQEQAAEQMAg4Rlx5loqf4ahRWImwwgECIAACIAACINB+BOoqrCSW1Yo1sbR7byqFcLZAKKzajz1KBgEQMOLkyTgjgdkXroiiqN0pKgmEHLDwxBMCAiAAAiBgJQJKOolLoDYHhqWVlboHdQEBEAABEAhEAlrm6sVhXEI6zV++k9xuI/B6dTXiSwZiv6NNIGAlAjL+SCzbMnZHnjY3knLzi7zrAfkOG9lW6i3UBQRAAATsS8Dxuz9+RvJauHSLElQVFZX2pYGWgwAIgAAIgEA7E9CLQWPB6KCs7MM0bup63kASRZWOY9XOlUDxIAACtidguAlWU7DbRZlZ+ay42qzcBs0b2VBc2f4xAQAQAAEQ8DkBx6SZa0leu/clq8qIsMIBAiAAAiAAAiDQPgT0glAUVOW8UTRn0TbKzS3yZvCCxXP7cEepIAACRxNQiiu2qnKz4mrLzv20dNUub3xbuAkezQufgAAIgAAIdDwB18P3Xq3uOmzoQPWu/dk7viq4IwiAAAiAAAgENgG1CKxporjlLF+7hyJ3JNa4BRqZuwKbAFoHAiBgRQKivJKMpcvXxNCQU/rRSSf0qrWRDWW6FXsNdQIBEAABexBwffvpH2u11OVy2qPlaCUIgAAIgAAIdCABbbVQwclPXBxLMir2IC1bFU0id7Eg7MCOwK1AAARqEdDWn06nkwoKS2nK7E30h0euoS6dQ4gjW7Eyy4Hg7HhmQAAEQAAEfEbAUVZWTvKSDIJywHfdZ32BG4MACIAACAQoAa2wMuLFEGXnFtKshewWWFCssvdC9gZox6NZIOAnBLTiyuNy0f4DWbR0dYyRqInrr8cvjFN+0pmoJgiAAAgEGAGH+LDLS9wUcIAACIAACIAACLQtAfOCz3DBcdAiTjGfkp5LocFuWDC0LW6UBgIg0EICyuKT/3ez4mr1ht20Ycs+FTakqsrIJKgVWy0sHpeBAAiAAAiAQIsI8AZvkHJL0K4J+r1FpeEiEAABEAABEAABLwGzwkoWfiJj10TE0YbN+3hhKC43vEaUhSIOEAABELAAARmzHJzJVMarOYu204HUbGVxpRM1QXFlgU5CFUAABEDAZgQcefmFJC9xEZQDpr82ewLQXBAAARAAgXYjoBd4aiHIFs0HU3JoSXi0WhCKBQNkbruhR8EgAAItICBjloxPHvbCyM4ppIXLoqi0tLzG4qoKlqEtYIpLQAAEQAAEWkfAMeK2l+naO16l6XPWq5IqOP02DhAAARAAARAAgdYTEKWUtrYqK6ug6fM2U+ahArUg1JZXrb8LSgABEACBtiMgiqvKqioKC/NQxNZ4Wrl+t5iEqhvoMa3t7oaSQAAEQAAEQKBxAo6DKYcoMSmDMrML1JnY9W0cGL4FARAAARAAgaYQMC/uZBG4dPUu2hFzkEJDPWpBCLfAplDEOSAAAr4goBRXnKSpc6cQmrtkB+2NT1fWVmbrUV/UC/cEARAAARCwHwHXu68+pibPl1wwRLXeyam3cYAACIAACIAACLScgLaukhJkkRe7N43mL9tJXbuEqIUgFFYtZ4srQQAEOoaAVlDJ3WbM30K/f/Qa6tE1VN0cY1jH9AHuAgIgAAIgQOR64tHrvRxkku3kXRQcIAACIAACIAACLSOgFVbacjkjq4Amz9pErposXFjstYwrrgIBEPANAQnEnnggi2Yt2Eq/e/AKVQmzZwbGNN/0C+4KAiAAAnYhoDRU5eUV3p1fuAfapevRThAAARAAgbYmUFdhJeXPW7aD0jJzOSMXNoXamjfKAwEQaF8CWiHl8bhoW9R+WrspTllZSTZBeTdbY7VvTVA6CIAACICAXQk4Fi7dSm4OCCtZjczuDHYFgnaDAAiAAAiAQEsImBVW2gVw2eoY2rZzvwq8LgcsElpCFteAAAj4koAe26rYI2P+0p0Uty+NnE6nCi+Ccc2XPYN7gwAIgIA9CDie/MtImjR9dc2uiZHlyB5NRytBAARAAARAoO0IaIsDsUBwcXzIPfvSOfh6DMlCD9YIbccZJYEACHQsAa1sd/O4dijnMC1YEU3FpeUqpIiMd6LUgqdGx/YJ7gYCIAACdiLgKCwqpQ9GzubJdQrvmhjCx04A0FYQAAEQAAEQaC0BvWjTFglFxWW0KHwn5eQeJrfLxQs6WFm1ljGuBwEQ8B0BGdtEAR/G2U9j4lJoSXgUW1pVEg9tXk8NKK581z+4MwiAAAgEMgHHTddfQAn702nWvI1K6IhLAw4QAAEQAAEQAIGmEdCKKvOCbdGKKNoZm6LSxYslAi/rmlYYzgIBEAABCxJQ8av4v+qqagrxuGnF6l20IyqJHPy5HHoctGDVUSUQAAEQAAE/J+C457bLqaCgmA7xbrDhvuDnLUL1QQAEQAAEQKADCRxx/Qvi+JAO2rHrIK2NiGOLBDcrrAzXQMSy6sAOwa1AAATajUC1Cr5OVMG6+NmLd1BufrHX/RmWVu2GHQWDAAiAgK0JOHr17EwVbF1Vxr7pImzkPxwgAAIgAAIgAALHJqDkZs1LEppk5xXSnMXbVbwXsUDAIu7YDHEGCICA/xAQuypxE3S7nZSRlU8zF2yplUVQj4f+0yLUFARAAARAwOoEHOFro6hrl1Dq26e7EjrazNfqFUf9QAAEQAAEQMCXBLQ7jH4Xq6qJMzbyQi6Pgtl9RltZ+bKOuDcIgAAItDUBWS/I+ObhcS5yeyKFr9vtzYyq3AhrXAbb+r4oDwRAAARAwJ4EHGMnhlPP7p3ptFMHqECxUFrZ80FAq0EABEAABJpHwFiYGdbJ8vfyNbspmuNYuTjwusSxwsKteTxxNgiAgP8Q0OObi5M4zVu6gw6m5ij3aCOGnxHjyn9ag5qCAAiAAAhYmYAjk017R1x1Nt1+86VK0Dg5nS0OEAABEAABEACBhgkYbn+cTYutDWShls6ydOGKHSoLrxxQWDXMDt+AAAgEBgEZB2X8KyoupSmzI6msvEJGP6/SHu7RgdHPaAUIgAAI+JqA4+7bLqPXXnqAhY4RWBETbV93Ce4PAiAAAiBgZQJmd0BZoBUWldKYiWuouKRMKa2wULNy76FuIAACbUVArxncvOG9LzGNZi+IVAorUebrcbKt7oVyQAAEQAAE7EvA8eUHT9EJx/dSwkV2SzDZtu/DgJaDAAiAAAgcm4As1ERWysJMXnM58PqB5BwVmBgLtWPzwxkgAAKBQ0CPeQ6nk9Zv3k87Yw+yi7RTKa/kO6wrAqev0RIQAAEQ8BUBhwSLraioVPeHYPFVN+C+IAACIAAC/kBAL8JEWSULs+g9yRSxLcGwVmarK1gr+0Mvoo4gAAJtRUAr8SW2VUlZOS1YtpOysgt4TBTFVbUaE7G+aCvaKAcEQAAE7EmAN0YcauItQkW/7IkCrQYBEAABEACB+gloZZXISVmIiexMScvldO9bqby8kmTBhoVZ/ezwKQiAQGAT0ONiSLCbkpKzae6SHVRSWq7WFVBcBXbfo3UgAAIg0BEEHCvXRtHq9bsoLT1H3U9n/eiIm+MeIAACIAACIOAPBPSmjiimJAZkcQlbFCyPotT0XMMVhj+Xc3CAAAiAgB0JaAVVWKiHNm6Opy079nvj5cq4ifHRjk8F2gwCIAACbUPA8cTzX9CjT39C8xZHql3iykrDVbBtikcpIAACIAACIOD/BLSllV587Yw5QBu37KNOYR7EsfL/7kULQAAE2oCAMU4SeTxOmr14Kx1MzfG6B+oxtA1ugyJAAARAAARsRsDhcbuoV8+ukgCpZhcEO8U2ewbQXBAAARAAgUYIaLc/w8rKQQlJWTRp1iYKC/GwdTLiQTaCDl+BAAjYiIBYU+lxsqiojMZNXkdFxWVexRWsrWz0MKCpIAACINCGBBz9+/Wk/3vhHvrV9Rd543S0YfkoCgRAAARAAAT8moBeiMl7YVEpTZm9ico44HAQuwlqyyu/biAqDwIgAAJtRECPlxIvVyytFizbYSituHxYW7URZBQDAiAAAjYj4MjIzOWdkBXs4hBsCBObAUBzQQAEQAAEQKAhAuZFlizGFodH0/6DWRyI3QmFVUPQ8DkIgICtCZgVV2s37aWo2GRyOhxUVRPbSluv2hoSGg8CIAACINBkAo5nHr+Z1qyPofFTV6lsSJWV7OuAAwRAAARAAARsTkBbUUn2KwcvuLZG7ad1vABzu1zItmvzZwPNBwEQaJyAKK4kaYVkV50+bzOlZ+RLJBKV8EkrtRovAd+CAAiAAAiAgEHAMfiEPpSbX0R79qUYllY8OccBAiAAAiAAAnYmcERhZSywUtLyaM7i7SproKy8YClg56cDbQcBEGgKARknXS4HpWXk0fzlO4hzCEoAXa+VKsbRplDEOSAAAiAAAo61EbEU7HFTCAeURYBEPBAgAAIgAAJ2J6AVVoZrIClrgcUroyg5NZc8biesrOz+gKD9IAACTSJgrCuCOJugi7bsZEvVyL3kYKWVWK+ax9kmFYaTQAAEQAAEbEvA8fPUldS7V1c658zBSoCICwQOEAABEAABELAjgSMWVtVUyW4s4ja/bE0MbdqWQGGhbrYUgJWVHZ8LtBkEQKBlBNTaghVV8t+CJdtob0Kq2ggwK65aVjKuAgEQAAEQsAsBR2ZmHg2/5HR68O4rlZ+5mPHiAAEQAAEQAAE7EjgSa4XdWjjYevz+LApfG2ssukxuLXZkgzaDAAiAQHMJyJgqAdjdnE0wN7+E5i6J4iysZUpxZVizGlZXzS0X54MACIAACNiHgOOWGy6iV168vyY+B++DsHDBAQIgAAIgAAJ2I2BeQIksPFxUSrMXb6XMQwXkdruUZQBkpN2eCrQXBECgtQRk3BTLVQlFsntfKoWvi/WOpdq6tbX3wPUgAAIgAAKBS8Dx/Wd/omFDB6oWihuECA8cIAACIAACIGA3Al4rK3Fl4Vf42l20Nz6d3QI93oxXdmOC9oIACIBAWxBQFleiuAr20KLwaIqKTVYhSfS4i/VHW1BGGSAAAiAQmAQcXbqEUGXlkfSz2EUOzI5Gq0AABEAABBonoHf8Jf7K9l0HacWaWHaZd1I1LKwaB4dvQQAEQKAJBAwFlUogSFNmb6K8/GJ1FaytmgAPp4AACICAjQk4eNPDa2EFhZWNnwQ0HQRAAARsSkDv8OuFU0lpuVpQlVUY7oDVcJu36ZOBZoMACLQ9gWpysoVVZvZhmrFgSy03QbkXLK7anjhKBAEQAAF/JyAbytjh8PdeRP1BAARAAARaREArquRde8f/NG0DZecc5kDshss8Ij22CC0uAgEQAIGjCChrK/7U7XbS9ugkityeqNwExXVQDmygH4UMH4AACICA7Qmw0grB123/FAAACIAACNiUgLFAqlZB1iWu44YtCRTFroGyoJKFFRZQNn0w0GwQAIH2I8A7BLJrXlFRRTMXbKXEg4d4/HWqcCVywNqq/dCjZBAAARDwRwIOf6w06gwCIAACIAACrSVgLIyOKKxSM/Jo3pLtVF5RqXb+vaZXrb0RrgcBEAABEPAS0JsBsjlwKLuA5i7eRqVlFWqTQCyulDUWEkPhiQEBEAABEKghAKUVHgUQAAEQAAHbEdBugZWVyp6KikvKaPq8zXQop4A8Hhfc5m33RKDBIAACHUlAxmCxcA0J8VDMnlQKXxerbi+fmd22O7JOuBcIgAAIgIA1CUBpZc1+Qa1AAARAAATakUDtnfxqWr0hjmLjUikYCqt2pI6iQQAEQMAgYA5P4nI5aNmqGNqXmGFkbFUxBo1EGOAFAiAAAiAAAl6lFcxw8TCAAAiAAAgEOgGRdeaXxLFKSs6m8PW7VRp2xHkM9CcA7QMBELASARmPXRzPquBwMU2bF0m5eUVe90A9VlupvqgLCIAACIBAxxNwaIEA//GOh487ggAIgAAIdCwBrZTSu/gFh0to0qwIKigoVgsncU3BAQIgAAIg0DEEZEyu5DhWYWHBlJh0iJayxZUen/V7x9QEdwEBEAABELAqAW/2QJ1qVgSEHPrdqhVvbr3MuzX6b1mcaN/5lrTbfI38rcoz7eIHIsfmcsf5IAACIGAlAnr8l4WSHAtXRFNCUpbKFijjt/7cSnVGXUAABEAgkAkoxRVnDgwL89DK9bEUszfNOxab5++BzABtAwEQAAEQaJiAo7CoRH0rmZJEaGjFi7a8ChTlld5d14oq+bfDYbx0u6WtTWm3mYkIWe1Sosrjf9RXXsNdgG9AAARAAAQ6goB5o0HG6biEdFqxZheFcSBg2a+Rz3CAAAiAAAj4goBkDOT78jA8dfYmymfrV1mbmOfmvqgV7gkCIAACIOB7Ao5Hn/6Ufhi/nPYlpCl/convIYoXnXJWK3F8X9WW10Dv0kibRLEkbSwqLqXMrDzKOpRP5eUV6jM5tHBsaPGiv5dzRQFmXBekhGsGl5eTV6jKkc+RAUWhwAECIAACPidgXvjIQqiwsIR+nLyOg/7yoohrZ96M8HllUQEQAAEQsBkB2TOQcdjJbtqZhwpo0oy1an6ux+eG5uU2w4TmggAIgIAtCbg2RO6m9RGxdHz/nnTFpcPoysuH0e03XULBwW7vJN6fBYVeqBgKK4dSzC1cupXWbtzFLiGcpYSF47ChA+mSi4bSrTdcxA/BkXgm9bVbK/EMweqgXbsP0PwlW2j33mRKTsmiXsd1p2GnD6QbrjmHLjzvVKX8k6O+smz5xKHRIAACIOADAt6xm+9dWVlJk+dEUl6+xLHiDQu4BfqgR3BLEAABEKhNQM2VleLKQTtjM2jV+j103dVnKNdB3mtQB+bTeGpAAARAwH4EXCEeNxWy1VFMXDIrYA7SmAnL6XcPxdBbLz+igiLq3Wd/FRJSb8PiiSgtI5f++8EUGj91Fe+yF1Pf3t2pggXhvCWRFBoaTP/889304nN31jJFrttu4SEv2alfuGwr/eed8bR1ZyJ5OE36oON7UcSWOBo3aTlNPOMkevuVh+mWGy9S52vlmf0eMbQYBEAABHxLQMsxiVnl5LF79cbdtDUqSf1dd4z3bU1xdxAAARCwN4FqnreLx0dFVSWtWLebhp7aj04Y0FMprkSZhfm0vZ8PtB4EQMCeBFxB7C53/51X0EXnn0rboxJo3qLN9N1PS+nEQX3ohWduV1T8VUDohUp1tQg6J33x7XwaNzmcenTrRC8+fyddfdkZVFJWTjPnbaB5izfTx1/Opp49utCTj/1SZTKRBY35kPK0xVbMnoP0xnuTKC4+je697XJ66L6rqX/f7pTHboKjxy2lJeHb6KU3xtIZw06gkwb19bpb2vMxQ6tBAARAwDcEtPzSC54Dydm0ZKVkpxI3bomhguDrvukZ3BUEQAAEjiYgkQVlXJbkGNm5h2n+0h302H3D2QPEpTahJcwHxu2jueETEAABEAhkAq454/9Ng0/sQ2FsaVRcPJyGnjKAPho5myZMXU1/efo2v96Flh30iopKtTOzdmMMzVkQwe300KP3j1BWVXqH/dILh6jzps/ZQN+NXUy333wx9enVzSsc9QMg5xsLHyctXr6NrdMO0sABx9G7rz1Kgwb29j4n5545mB568kPauDmOps1aT3/70x1+zTGQfwBoGwiAQOAS0AsbvdApLimnBcujOJZhgdcFHpZWgdv/aBkIgIB/EpBxWTYWgtkbZFv0Ad783UM3jDhLbQDL58b32HDwz95FrUEABECg+QQcZ5x+glJYlbHFkbjIjbjiLH73UGp6tlcoaIul5hfv+ytksSLCbe3GWEpOy6YTT+hN//rrPeozCfBYVlZBnTuF0vNP3UY9e3al9Mw8WrU2Wn1vCMcjMa6Eg85kkpqRw9dX0vVXn8MKq17sZlipFF/F7Gp5XM8udNYZJypl2a49BwyOvkeBGoAACICAbQhohZW867/XRMTRtqj9FMIxG+WAwso2jwMaCgIg4GcE9NrDwxZX85fvpOg9KWoOrufmWnHlZ81CdUEABEAABFpAwCGDv86CJwKia9cw+tUvL6TrOJC4HCIU/HViL20T82Jx9YvlmF0lvMt+9hmDlVJO2upyOY3v2U/+9KHHU7cuoSpQe+S2vep7ub5u2+Ua+eytfz9MuQk/0UdvPa52fcSVUJRUDpU1sEqVI1ZZoSHBLegWXAICIAACINAaAnpBY2w2BNHexHR2245WYz6yABsjEgAAIABJREFUBbaGLK4FARAAgfYnoMdwCe9RXlZJC5btpHyeW4viSg69GdH+NcEdQAAEQAAEfE3AIQoXHadJBMSAfj3pnVcfpTEj/+ytW13Fja8r3dT7a4GWnV1AuXmFyg9+6Mn9j5gWc0FG29gai/87kV38xHoqNT3X+FyZJ9efTVAUVFqBJfWRckRJJabMW7bH01Z+hYS46c5bLjUEa1MrjfNAAARAAARaTUDGbi0DinjDYtrcrVTElrCyAMJip9V4UQAIgAAItDsBmVvLGkXm03H70mjFmt1qvi1Tcz3Gt3slcAMQAAEQAAGfE3DUVb6IEDCsr6q8lTMrbnxe42ZUoLraUDrl5hXRYdmdYUGnY0+pRQuXpRcv8i7B50UY5hcUqbvI+ea2mwWk/ltfL66BohQ7lJ1PH3wxi/bsS6GrLj+TA9yfUiNgjyi/mtEEnAoCIAACINBMAuaxWsb0Zat30b7ENBXHqj4L2mYWj9NBAARAAAQ6iIDeFJaM5svWRFNU7EE13zaUV8bmRAdVBbcBARAAARDwEQHHuk276aXXx9KCJVtUFcRaSExvtfmtfGZYI/mohq28rdS9rLxcxa8SLVVIiKdWe4y2GcIvlL8TQSgM5NBCUVdBztUszO+yCJKjgq9777OZtGDpZpJYYS//9T7OVNgZu/qt7ENcDgIgAAJNJaA3EuR8kWN74tNpEQdf79wpRI3t/izPmsoA54EACIBAIBHQCiqZyE+bu5kO5Rqby9JGjOmB1NNoCwiAAAjUT8Cxck0Uvff+ZFrPyiuZ7Ev8p0A5WMek2tQ5LJRkh6aK/xY3QfOiRv7ms9RnOZxaV8f3Egbyt/H90UR0Gfp7UXC998l0Gjc5XGUUfOvlR+jcswfzIqlSXQyhejRDfAICIAACbUnAPC7LmJt/uIQmz97ErtwSaxCZptqSNcoCARAAgY4mIPFjM7IKaOaCzWperZVZMvY3NF/v6DrifiAAAiAAAm1PwCHKqgHsFteje5hXALT9bXxTYlCQsUjp3DmEg6+HUDXr4zKz8lRltIDTAk/eCwqL5RvqygHZ5XtRcpkFYt3rtJuJ7OZ//OVs+uzbedSjayd677Xf0LVXnU3lymXQ4S3DNxRwVxAAARAIfAK1NhJqFjAzeGGTkpajrGZxgAAIgAAI+C8Bvfnrdjtoe/QBWrVhj5pfawta/b3/thA1BwEQAAEQaIiAUlp16RxKZ5x2glLUGDk5Gjrd3z43hFmP7p3ouJ6deae9kmLiDrKQE9WUYf3k3ZlhjVbMnmQVSP3kwf28llHKEIsPs5JLK7L0QmjU6AX0ISut5NqXXribbrnxIiorK1cZBfW1+hp/I4j6ggAIgIA/ENBjrFrA8Ni7btM+2rojiTxuF1fff7Pg+gN71BEEQAAEOoKAsTlhWM5KrMKDKdkqKZIO6wFrq47oBdwDBEAABDqegKNfn+706IMj6MbrLjBc43jwD5RDrJwqWVEl76cPOV4p5zZu3sPZAXnnnTVXEudKXpJNatmqKMo8lE+dOO7J+WefrBCIckvHtTJifBmB2bVQFHeTUaPn01sfTFXn//25O+ixB36hXALdvFDS1+rdH+wCBcqThXaAAAhYiYAak8U6lsdkWcAkp+XSEl7QGNautRNqWKneqAsIgAAIgEDTCeh5tMftVG6Ci8N3qXiy8rn2foDiquk8cSYIgAAI+AsBx/Sx/6R/c8BwGeQlk2CgKVZE2SQLmZuuv4AGndCH3QPz6d2Pp1NhYQl52DJKXsmph+jTr+dQPmcZPPWkfspSSnZt3C4XZwFMpm9+XEyRW/caFlpqYVTFyq5K+vqHRfT2R9OVguql5++iPz91m/pOuwTKQyBcsQPkLz8H1BMEQMDfCBg777xg4bFW5JdYuS4O38ljfYGyskIsK3/rUdQXBEAABBomIGO+jOshnA02ckcCha+Nlci0/Jkx54ZnQ8Ps8A0IgAAI+CsB15BT+nsVLXp3IlAUV0oRJ9ZWbPk0bMhAuv/OK+jNDyZz5pENSpl09fAz1Q7NhKmrWCm1jzMLuunZ399MLlbeiaKpsKiEXn5rAs1ZGEEnDuxDS2e8RgP691SWWZNnrOJMgTP4XCf16tWVyjh+1Rsc0F4suCRLoRxVXEZoaDA9/dsbqDNbeenFlb8+LKg3CIAACFiNgF6gKE9uHtfXbYqjLTsTKdjtrhlzrVZj1AcEQAAEQKClBMxrFDdb1i5aEUUnntCLhpzURymzJABIoKxjWsoI14EACIBAoBFwlZVV1ASpNSyEtOIqEBqqhZYomSQr4rNP3ETFJaU06vuF9OVofvG7ikvF/0vGv+efupVuu/Fi70JHhF8581FCkBdDBazE0mUuCd9BiQlp1KdfD9odV0D/ePkH8SWsjY13/Lv37k5PPHKdui6Q2AbC84E2gAAI+DcBPabqDYpkDrq+iN1FgsipLGO9Owj+3UzUHgRAAARAoA4BNe7zJvPholKas3gbPfXoCAoLNTYr5FQorvDIgAAIgEDgEHB5PBKk9sgRaIO8tm4SdVJYqEe5Ql59+Zm0IXIPHUjOYkupIBpy6vEcx+okGn7J6V7FklwnMbD+9bd7VDysq4YP412c/gqUuADef+dwEiu1kBCP+kyss+oeYq0VFhasyoGVVV06+DcIgAAItI6AyCsdx6S4pIwmzNhIBYcN12/9eevugKtBAARAAASsSMAY/6vV3D5uXxpnE9xNN197tqqq3tAItDWNFfsBdQIBEACBjiDg+t0fP+NMS0H00D1X0/UjzqUKdnOTQLaBcmgLJy3cxLLqmivOZNfAM9j9r1S584liSQ6zkBPrLPn3xecPoQvPOYUcdZRSEiNLXk09oLRqKimcF8gE9O9A/9bMbTX/VpvCoL6yzGXU970ut+696ju37jlNqRPO6TgC5vFa+mrF2t0UF59OnTmZhk6B3nG1wZ1AAARAAAQ6moAxt6+i4GAPLQmPptNP7U8nDerl3SjG3Luje6R59zPL8brzQulbOZrah8eaxx3rXub7HKus5rUSZ4MACLQFAcfshZto9vwIFXBcDtmdDrRDLz5FYSUDkV7QyOJGFFb6M2m3Plf/La6BorCSdzmvqYOnmWF9g1+gMUZ7QKAxAubfjvxtxJ0wfm/GpNNIcGCepDRUnlyvDxmvjLLNZxu/c/1bltPlb/2Sf5t/k3X/lpJ0PfR7Q3XB574hYO4z6SPlFrhiJ++4B3str3xTM9wVBEAABECgIwlUV4t8JyrjbOCT50RQaWm5SoiEbIId2QvNu5d5TihXyrrMPFcz5onG/E7P5Rq7g54TyNxSkrIY8zzjCn29ngPWnX+a63L030fKkL8wJ2ysF/AdCLQvAddvf33t/7N3HoBxFNcbfzqdquVuy703eu+9dwJJgFBCSCBASICQkITkD4SEnhAIELopoTlgA8YYMMY0Fwy49ypbstV778X/983enFaHbMuydDrdfUMud7rbnd35zXrmzTdv3pgr7DdppHlHQx+Oyd1ooYhomNwJgpb7GNsAoiN0Pjc3VoHn7o6XO9/dHcvfSSAcCdiOHoYJYlBE67JcpHo1MuHZie+Q4OlpdzG1/wbdPOx3eEecOmyEEJicyTlHuMJxtk2DQRurO4Ja8dqdf/O/9+aZPZsvjZRAwl37t/sZwJ3UatzBV95aoM8D6hrttTOA6dq75NVJgARIgASCQcDa6V7t39MzinSzpe/k8h8e75vQYlD2YNTBnl7D2lXozzEcC7QBrd1mHSl2No5y23HNK4UcO87eUwubQa9lYhlrqtGQArA/7eqi1m1CJxf8ZhNtwj2tbR5PAh1DwPvo/b9okVM4LQ0MRGQbml01OIHHtHZsa98FXivw7/acE5gH/yaB7kjA3dnDMMGOnavWpMnyVVtNXLlevRLlwP1GygH7jpIhg/r6vT3d/2ZsHvgOwheMDghWGXo+4tNBuBg/drAcffhE/+9gBcMnJTVbprwzX7ZnFMhQ3TjhkouOlYP2G+03aK3RVFlVLfO/WWfyPeu0Q4yIzbhIoffEoV5QZ5gtxfM045OlkptXZuIKuo3O0Ltz3hEJkAAJkEBnEHDsBayMiJLFqzI0Vu12OfLgUT57wLki7fDOIN++PK1NZ/vx5au3yqaULEnZkm1WwIwelax22igZp7GEsQM8bLmd2YTGuwqTmCpAlVdUy4Jv10lBUbmMGNJfTjnxwBZOCgiHg98+mr1E5sxdKckDesvZpx0qp590oLEn3PeF6879eq1k5xbJTy872dwDbcL21TfPIoGOINAyCntH5Mg8SIAESMBFwIo/+Gpber48/8psmTbja9miBorAw0oFiB5JiXL6yQfKbb+6UE5VI8M9u4bzrLFiPbVgpHwwa5E8/9/Z8vV366WiskZ+fe05RrRqUEMjJiraGBhb03LkuluekvWbMuVY3Wjhk8+XyvsffyfTXvmTTBo/1FwHecHY+e+UL+R3d74sT/3zBr/XJSsytAj4DUp9ZmBgrlyXLt8u22rqiwOS0Kor3g0JkAAJBJMAvGy9nmidxKqXWZ+vlDHD+0n//knS1Oj0F5zUCGZt7Pxath/HO/rx/0z+WJ54bqZs2Zqt9qCGqIFTk04eHn/0PnLz9efJ5T860T/JiFzd/T3sN0xierTel6xIkZde/0zeem+BlBSXy1mnH2ZEK+cYZxKzTEWtG257Rr6cv1qOOWKirF6bJi+oHfnWi7fLBec4u8fDzoRN+Mlny+SK6x8zE51X/+SUFuLXzkvHX0iABDqLgHfxss0m7+HDBvi8HJwGoLMuyHxJgAQii4A1UCAi3f3gFBWsFsp4nT176N6fyxD1fCorq5Kp738t8xaulbTteTL15T/KRBWU7HkwUOxnGDgbUzJl8mtz5O33vpbS8koZnNxHeuqmCj17Jhqw1qDBOZNfnaPBuXPk/rt+KpdddJy89+G3cvcDb8jrU7+U+/5ypTkexsnCRRvln0++L7//zUVyk4pfiIkAMY1CSOg8q3bAYT3t8gvKZObslVKnA5QYXRbCAUno1BXvhARIgASCTQDLBNF3x8XGSE5uqcz6YrVc9oMjJSYm2idctFw2Fuz74/UcArCr7ATksy9/Ivc8NEWSEuPllhvOlyMPm6B9eoN8MX+VTjIul/+79w3ppbbdeWce3mKjMPT3MNOQ8gtK5c1p8+S/b30h6zeky6iRgyRBd3bv1zfJ/G5sSHHsyG8XbZDZmu/1PztTd5O/RNZvzpDb7/6v/PM/78u5Zx5mJjthZ+bkFquY9pGuAhglL/z71yYPelk5vPn/JNBVBDy/+eMLgtfn81aZe4A7JBMJkAAJdBQBxJ5Chz/36zUqDm3QJXr95PabL5I/3/YjuebyU42hMvnxX8uEsUMlK7tYnn/1U3O83TAB92FFKwhc/3n+Q3n82Q+kvxokrz3zW+mhwberNTaB9c7C8Va42rItW8X4PnLCUZOkT+9EOUFn7kaOGGiWJ9r8CwpL5f5/vS1Dh/SVv+g92evZPDqKA/NpPwErSGFAgnppaGiS2bpTVFZOiYlTRsGq/Wx5JgmQAAmECwEjUKiYERfnlSUr02TV+gwjRDgiR/OGSuFS3u5YDng+oZ4KdZne5Nc+1bqKkcs0BtmDf73aeDRdd/UZ8tgD18olPzhW4Bn1nHrnQ8iCRxXORXL6fCc+1VvTF8id978pBYVl8q/7rtWlfgdJVXWtsfFs0suZa67bmCHJA3urV/4EGajvJxy7nwwb0k+/TzeiGFJ9faM8+8onusxwvU54XtliWSDyYCIBEugaAp609DzBq6y8ytyBHRx2ze3wqiRAAuFGwBooC3QZH9oZiEg/u/wUI5AjODoMhH0mDpcfXXiMWdq3UWe+0A7ZgOlOu+QYHDXqVZORVSQ3/vxsmfnWnXLx+UcLYhRYQyaQHTZDhZjV0NBgfnLsjSjdXcgxgGDcPv/KpyqorZN7/vQTFbZ6SL0aLh490DF+m4NvBubNv4NDwApSpm/yPRcr1m6XJavSJDY22qwkoCEZnLrgVUiABEgg1An4JzlU4Jj1+WrJKyw33jPWFmF/0bU1aJf0LVmeIqU6EYkYVr+48nTBju41uvMj7MJBA/vIT354ovGSgycVxqlOTKlmm8zaaKnb8mT/fUfKh/+7SydBz1Pv+97fswkhNeG5QPxTa1+CghGzfF5Y1paY+81aeeLZD+WO234spxx/gB7viF+0Cbv2ueHVScD79ScP63rvJunrc6MM50DsrG4SIIHgE7DBLS9XA+Q4jSs1sH9vDWXlBLSMVYPEzobBnRsJxyNZ1298tgJWfFysPHTP1bq8cLAaM15jmFhD1JzkS9ZoHTV8gHy7eKOs1LgF+2ug99Xrtqk3V6Ecqq7mMIC+/m6D/Fu9tn736wvl/LOOcHYvDNhJ1J0vPwefgDUUbZ3m6bLAT79cK43qbWWXfXAQEvx64RVJgARIIBQJoD+AXQAbISevVDfrWCHXXHacLiNvDrTNPqPrak5NLyMcHXLgGHnlqVtNvey3zwizI3S8el2ZiUadwIw2u0NHGZsQSz4dG8ARraxdAA+sm35xji71+7H079fLFArfBdYvHLSi1bYbowHe81QE+2bxJp0oPc5MkiLQ+jAN2o5r5OaVyF3qtYVliterx5eTEDOLG7103RPDK5OAQ8A7YeyQFizwD5OJBEiABDqKAAQqpHEqNOGF5Mx0OUZAk85i1dc0yOwvVhjjZf99Rvq9nKzhYd979UzQ+AbDTR42tpHzW0uPKCtwXP7jkzTw+mL560NvycxPlsjy1alSp55Uv/31D8ySwrsffFMmTRiuxsmZPoOIxomBG0IJdYkXpkQxEPlg9grJyC6SRF0WapeehtDt8lZIgARIgAS6mIAjXKkIEh8ji5dvlX3HD9LwABONIGJToLDRxbccMZe348xBGo8UL5uitY9HX4868uqy/1lzFqtXfL307ZMko0YM8Nl8jj1p6w5LCyeMc8axNuYUJjnVymzB03paYcOfE47ZV96YNle2pGVriIFis7P0/f93pbE77/3XVMnLL5FH7/u5DNbdrOF5H6NxT5H4vLRAyj9IIOgEPBj44WUCD2sygwMmEiABEuggArZNseKDFZTwjqWBCKL9jAbjXLZyqwzU7YdvuOYsI05YDy3cRut5OEaE81vLOAPWuDjy0PHy0pM3y1mnHmJiHBx+8DgTP2vSuKFy3z+nypr16Rpf6wcyYvhA8zuMHrcQwvawgx6CdmZjnxnUJ5Zszv9ukwqP23UgEkvBqp1MeRoJkAAJRAoB2BKJCbHy3sfLJT2z2HjMIKFPYf/eNU9Ba/acGXrq/zWYnfu8ag9ukfc+WmS8qa+69CTUGH72C0et5dGyXgNtQqes/fv2MjbhDxFaIsojo0cky71/vkJu/MXZZtfBqdO/lj/e8kMVtvbTic1a84xgjOy+XtdQ41VJgAS8dz7wpqGAnRlO0oB0+MfJJYJ8MEiABDqKgBWQrJFo3zGDFRvrla80QPsLGnxd/Wnk5l+ep+7bg0w7ZJcJ4j7ceQTeV2uzX/Y7iFCnnLC/edXU1JtZV6SZsxfL5NfnyK+vO1d+dMGx5rseunuNTTgPxm1refsP4odOJ2CfFRirmRqkf/qsZcaIhQHJuul0/LwACZAACXRbAu4+ol7jJL03a6ncdM2p4o12BCv2IV1TtW57zvbleK/XJYGYxFyjYRxu+sPzxuPphxccI5f/6ETT59uJTJzvziOwFK3VK2wIG8h9xLABMvmJ30h1dZ0kqKCJlLI1W/50z3/ljJMP0lhaJ5jvEuLj/Fk7NmnzdQOvyb9JgAQ6n4D33898YK4yWHdRgGjluM46rpCdf3legQRIIBII2FkqK0KgnYnVeBPfLdkkt9/1imxPz5d7/+8KuUlFJHg62RhWrRkfbeFlDSEIT3aWDAIZYh3AJfzef76t8bUmyS3Xn2+WCX45b7Vs3ZZjYhqcoV5ZY0Ymm8u477st1+UxHUPAcje5+bys3pm5xPHA88Uc65grMRcSIAESIIFwJmAFj01bcuTz+evk3NMOVLtAN1xxhUNpr60Rztw6u2xuwQo2IQSrteu3ya1/eVE2pmTK6SogPXDXVf4lnXsTvkbNCGPPOcIVPOp3qGAVozZhvU6exmioiCnSMylRY2NdorGxemrMqw2yaOlm6aHB4Y8/el/ZVzcLctslfF46++lg/iTwfQLeX+kuXEgHHTDavO9No/D97PkNCZAACbR06XaW/kXLd0s3ya1/niybt2Qb9++bVUAyQdV9wPbGKLDnWmMV7wjsCeHqsac/0Bm8UnnpPzdL757xcu8j0+TVt7/S7ZdLVbSKlUPenS9P/+tG2WfCML0TePQwzl8wn2FryOKaGFggGOvHn62Szak5JrDu3jwXwSwHr0UCJEACJND1BGyfgfia877dJPuMH6wTUwP9/QuDogS/jgIFK/Tzazdsl1vUJly6ItV4PP37gWtl6OB+RrSyE5570/+784C3HSYxIVg9+8on8slny+TvGtfqgP1GyWT1/H/kqfd1054i8WgQ+P0njZT/+/2P5MJzjjL3wnFy8J8XXpEEQMDzsO7E9fDffqZeVvsbIu4lOUREAiRAAntLwM5O4d2KSNjq+OY/viDrN2UaV+x//v0as2uMIxI5Ltju82AoQNBCsvm05b6sgeME0/TKK1M+l7c1ZsEtN1wgB+03Wr5RT68H//W2XHTOkbL+26fkrj9cqnGutsnjz800RpJelinIBGydoc5hyKak5puBhl2uaZ+LIN8WL0cCJEACJNBNCTi2R5SUllXLB5+u0BiWNUaQsBNl7FeCW7FWQLKTmMUlFfLgo9N0MjNFzjzlYHn8wWtlpMYabdAwEjjWLVahrhybcM9jTdm8jLe/Clar16XJU5M/ljNPPVhuuvYcSUvP04nMqebaC2Y9LPM/elCydHfB+x99xwDCtCqfleA+K7waCVgCngTdgQlbzSOOFf4huhsGYiIBEiCBvSZgxB9HdILwsHRFilx/2zMqWGXIuWccLn/78+XSu1cP46YNAwbLA91tEdoknGfcun1tVFvaKWtYwOjBUsTNW7LkP89/JGeccpDGzjrX5IUdC5OT+8l5Zx1ujJRbbzzfzOwtWrLZMWYZrHWvq39PMkCdWYMUdV5ZVasDjOVSpgMNeFmxj9oTmjyWBEiABEgABBybIUq9qb1qe2TLR5+thgLh72+siEJanU/A9vN4h6NEaVmlet2/KDM/XSpHHDJO/vqny2S4xp1CHFIks1mYz9vK1qVjEzZ7wbfVJrT2BY6H9/3DT0zX2Fa1es3LzS6BW9NyJSM1W35w7pFyyIGj5WBdhXS8hpIoLCrT5YKYPGsOG9H5pHgFEiABNwH/v3g7GLQDPWIiARIggY4goPNSxmCEcQLB6rrfPi25eSVyhQbXnPzETTJsSD8jSGHWC+K5V71r3AYkdvWDwJWeWWB2kLMGz67uzYobMHSw3hDC1b+fnakzZsVy1+2XOrvPqSFUo/Gs+vTpoUHY46RWRTNcG/cJ4Qx/6+U4q7Yr0B34m60zpw9yhM6PdFlgytZcE0B/xw5niUAHXpJZkQAJkAAJRAgBO76BV/eCRSmyYk26YMkgnLhb9j8RAqSLimntOwhPZeVVcvOfJssnny+X0088UN54/jY5aP/RxgZEv29sQn3hWFt/ELE2bM6U1G25fkcLbOSzu2Sv68RN9cgzL30iM2ctkkfv+4UcsO9Ix7ZEiApf3EyIWrAd+/ZJUkErRj+rPel7VnZ3Lf5OAiTQ8QS8/3nhIxNPBv8o4eWAwSMTCZAACXQUgcZGZzZtxZo0+bXZEaZUkgf0lsMPHaeu4JuNhxWWgSFBZEpUAenwg8aZ92iNO4Clev/WOFSIuzflhd/LQN00Qq0Lv7GCNgtCk3umzRonEOMhRE15Z568MXWuLkP8mc6ejTVtnVfPGTa0v6RnFQpc0xGEvbi0XOrUSOmpOwnCAxXGEdvEjnoSdp2PW6jEkctXb9fnY6vxknMMUvZNuybIX0mABEiABHZGwOljNC6KCiJ1upvgR3NWyshh/TTwNsY/TiwAtx2xs3z4/d4RsOJTaVmV3PXAG/L53FXSt3eisc02pmTLyjXbfLvYQyEy/zMxRkeNGGguPOPj79Qz6yUZ0L+nvKi7AB5+yPgW41fUIWzCQNvNXhcB3xGi4lGNW3XDNWfLBWcf4bf1EPd0h8YxzdOJVdiOSLm6i2FdQ4MMSu5j7Ew+I3tX/zybBNpLwHvXg29KRlaBPPjXq00AZB3j8R9ke2nyPBIgge8RsLsB/k+Fo00adD1OZzkRI+CWOyZLQ30jLEhjlRiDUr2qRo4fIjOn3OXfHGLmrMVSqd+npuXJuo0ZcqoaDsjTGg5YQlZeUW08o5BgmFjjBEbHitWp8vs7X5ZLfnCsXH3ZKb7fRY0ijxxz5EQNxp4oz7w8W7LVC+ubRRslPaNAg25e4s+DBsr3qrTDv7D1hXePGoxFKiJ+MHuF1qkGSo2JNjPh8HpjIgESIAESIIH2EkA/gsks2CHbs4rk/U+WydWXHGfsAdsPsc9vL922nQf7DbYZ7K33Zn4r9SoIlZY3yUOPvyu16v0OTyeMRU3CB/3fI/f9XP5wy8Xmq48/W6pe8rWSnVNvQjwccShEK0wwOiITbEHYhNXVdb4skJnjpQ+PraycIvnNn15Q0auX/PZXF5hJU2fTF69MHDdUjjhyH3lT7VWEz0E81M9UVDv39MNktAbvNzHQaIwYrkwkEGwC3oS4OHnvw2/ltJMOkrNPO1TdHxu08fYG+z54PRIggTAlgNkudPKHHzxWY1gdZkoJwwGeTi1nwqKkXmc/MZvVp2+SMSBx3t1/uExeeO1T4zJ+pDFO4BHqGJj4/ZTj9pecCcN1S+IRTt4qehjxQ4+BITJv4Vo557TD5M+/+5HZvtgxTpwArMccMUlefPI38s8np8vtd78DKTAGAAAgAElEQVSiSxX7GyPmhmvOMte28QtopHTew2nr2casaGhqlLc/WCwFReU6sIg1xij5dx5/5kwCJEACkUQA/Qm8qHuqPbBkZZpMGDtYTjpmom9Cy1FL2Od03hOhFqFh3Vu9qyAGYVISnlEQj6IDVvvgONSIXb6Hu/rFlaerd3ylemclyaUXH2t0LbdNuI/ag+eprQkPLCTUpbUz8L5iVaokq2B1yw3nywiNnVWvk6cY98K2HJTcW/7zj+vk4cena4D2j9TjPk5+eunJ8ufbfmzuz7FHuKN05z0dzJkEdk7Ae+pJB5itPhcu2iBnnXqI+UfLRAIkQAIdRQAxI5AuOPtIDYJ+sC/b1t1mYFDAeElKivcLFQiSftQREySpR4LZYdAaH/b+HtIdUNFuYeYUCTOmSM5xHrM74Y0/P9v87uTvzMY5TudihLQj1LgpLC4zSwThgg4DyCYar34UnfLBbVDi88JFW2TF2nTpkUDBqlOAM1MSIAESiHACRrjSCRH0+R9r7MSxI/vLcA0X4BY32Pd3zkPin8jUoOtY9gfmJvhoq8kZk8LrydoKxx+9r0wcP8x4YWMTH5yOUBImG02Xqc33g3OP0s1bHFvPTo7a84/VwOrHHb2PiWUKEQo2oz4OJiEPTGa+8vQtUlhYZsITDBjQSxL1+nw2HEb8fxLoKgLeH19wnLwz4xup0iU25h9sV90Jr0sCJBCWBKzhhxhVeO1pglExoF8vc1prRgPi8bmT29CEIQLPLSR3zD53Pvh+oBoleNlkj6XR2gJth//hrgcIhSmpuWY78gQVGBFihPw7HDkzJAESIAES8BFAH1NeWSNT3lskt/zyDPWsQd/jxPe1/RNhdSwB269DEIoNsN92dyUrPA1UTymkZrsOHv3O2RCj8LLJXs/WZ6DNiOMCbcK+vXuoJ1cPfx7O8kN6WPmB8AMJdAEBD/6hYgtYrO3lAKELaoCXJIEwJ4A2BgnvMDB2+9Lj7Dk4D+0SznEbFdZwwe82P/d1WlzTl1/zTJqz7NDmh++RB2ZdYZjgezsz576PMK+moBfP8rfGYFl5jbz38TKp1m2unb6IUyhBrxRekARIgAQihICxI7SsMbo73bbMQo2juNzYANYOcNsZEYIkKMVsYZ+1xSb02X+4OXuutftgv8HExPeB+br/tvaGPc7alDZPW9d4tzah+1mw3vc2z6CA4kVIgARaEPC+MfVLmaTumVi2g3+MdikPOZEACZBARxCwYrg1BvY0z8Dz3Pkhr8AdYuzv+M2cG3DBwPOb8w88kp4+e1pXbT3ebUAawVBjj02ftVS2pRcal34Yoe56bGu+PI4ESIAESIAE2kxAOxv0NYixuXDJFhk6uK+cePQEadA+CeMh9kNtJtnmA902mJ1MbOvJzecGntFsvzXbdM4x7jps7Xz3/eCM5vNpEwZS5t8k0JUEPGnpeXL7by4yW8xjRw3Ek2EiARIgARIggc4iAKMQwpUTTyJaBwspsmzVNjPj7RiQ9LLqLPbMlwRIgARIwCFg+yIIVNjN+LO56yQzp8Tsbme9cuhdw6eFBEiABLqegCd5QB9ZtHSzfPLFcjOrgBlvJhIgARIgARLoDAJu93zsxpOWni9z5q6VxgZsWd28y09nXJt5kgAJkAAJkICbAIQrTNrHxXmloLhc3pm5WMrKq+FyY4QrK2yRGgmQAAmQQNcR8GDXwCdf+FDWb9zum/nmDHfXVQevTAIkQALhScCKVXYAAIGqrLxS3v1wsRSXVpkBAwYO1lU/PCmwVCRAAiRAAqFGwAhXulQ9XncT3LA5W+Z/u0mizHCIwlWo1RXvhwRIIDIJeJ/5141me/fDdetRNNqY+WYiARIgARIggY4kYMUoO3PdoJ5VH32+RrZuK1TBKtYEwqdg1ZHEmRcJkAAJkEBbCViPq/j4WJn91VoZOqSvHHrASP8yQfZPbSXJ40iABEig4wl4r7nitBa52h0SOv5SzJEESIAESCBSCdi4IHhHP7Ny3TaZu3CTJCbEOLv+7GlE1kgFyXKTAAmQAAl0CgH3csB3P1oqA/v1lOFD+5r4izZRvOoU9MyUBEiABHZJ4HtR1zlu2CUv/kgCJEACJLCHBAIFqy3b8mTazKUSF+vsFGgGCnuYJw8nARIgARIggY4kAEEK/ZFXNwUpKamSqR8skrr6Bn9cK/t7R16TeZEACZAACeyegGflmjRZrTPehUXl5mg7uNj9qTyCBEiABEiABHZNwD1zDQ+ryqo6mTpjsVTpO/62v+86F/5KAiRAAiRAAp1PoFm48siWtHyZMWulT7Ryxkj0tOr8OuAVSIAESCCQgOfCK+6Xcy79u7z/8bdm8NDQwN0DAyHxbxIgARIggfYRsAMAjXGr/UuD7sy0RDKzizV+IgWr9hHlWSRAAiRAAp1NAH0X+qn5322URctTzWcEa9fBEif4Oxs+8ycBEiCBAAKehIQ4GTl8oJnx5uwBnw8SIAESIIGOIoCJELywK6BXDf5vFqfIkpUw/qNNf8M+p6NIMx8SIAESIIGOImAnWyBUiepU7364RFK3FRjhqkGFK/t7R12P+ZAACZAACeyagKe8vFp+eP4xctG5RxsvK6zjZiIBEiABEiCB9hKwYhUM+8bGJok2gdfTZcanq4zR7/E4cUPamz/PIwESIAESIIHOJGCFKW+MRyqqamX6rKVSUlql/VmUCcxuf2dYlc6sBeZNAiRAAg4Bz0XnHS2zPlsqefklxtvKvUMGIZEACZAACZDAnhCwMapg0KM/gUiVX1AmH89ZpfGsav2CFb2s9oQqjyUBEiABEgg2AStMxcV6Zcs2jW81e4XU1DqB2eFBjN/ZlwW7Vng9EiCBSCTguerSk2TBt+vlrfcWmMFEg86KM5EACZAACZBAewhYIx+CFSZCqmvq5J2Plkl6dpEkxseapYI08ttDlueQAAmQAAkEm8COHfAMFomN8cqiZVv1tcXpw3zL361ncbDvi9cjARIggUgi4Onft6cJLFheUWNij9DNNZKqn2UlARIggY4lENiPzP92kyxZkSoJPsFKdADARAIkQAIkQALdgYA6U/nHRjEx0bpMcLms3Zjl3/3Wehd3h7LwHkmABEiguxLwzFu4VmK8Xm18nSJwBry7ViXvmwRIgAS6loAVrHRS2hj081Sw+vCzVdKrZ4KJbeUY9117j7w6CZAACZAACewJAetBjHdM9E9571vJySs1/ZyIE6ORk/57QpTHkgAJkMCeEfA89swMSR7YWw7YZ6Rxd/VgSoGJBEiABEiABPaAgHu2GYHXt2cW6Yz0MhOE3f7GSZE9AMpDSYAESIAEQoaAFa4Qp7G0rMoIV2W6SsV6YtnfQ+aGeSMkQAIkEEYEPJkaZ+SYIybKRecf7ezypFuRM5EACZAACZBAWwlYUQrxqpDyNPD6/6YvMjvSwpCnWNVWkjyOBEiABEggVAlYYSpG41ulpOXJzE9XGNEKicsEQ7XWeF8kQALhQMB7zx2Xy6UXHSt9evcwOz0hGDsTCZAACZAACbSFgDXUzdIIfWG5xDsfLpHU7bkaxyqOhnxbIPIYEiABEiCBbkHATsIgMPu3S7fI4IG95PQT99OJ/0bfckGnGJys6RbVyZskARLoJgS8f7z5YizHNmu0MdjgTEE3qTneJgmQAAl0MQG3YIXP6ENmfOIEqY3XwOtINNy7uJJ4eRIgARIggQ4l4F/yrgOojz9fJf369pBDDxhlhKto34oVjqc6FDkzIwESiHACHghWDdrIunfHiHAmLD4JkAAJkMBuCLgFq0bfpMfcbzbJnLnrdHOPaO1anOC0u8mGP5MACZAACZBAtyJglwl6vR6prW2QDz5ZIdsyCo1gBeGqhQdytyoZb5YESIAEQpOAJ6+gVLzayMLTCsIVZ8VDs6J4VyRAAiQQKgTcBjmWlXs1MO3GlBz5dO4a049gmTlnmUOltngfJEACJEACHU0A4yXt/iQuNkZyNY7jtBmLpaikwghX6P/YB3Y0ceZHAiQQyQQ8V17/mCxevlkbWY8RrtDIMpEACZAACZDAzgjYWWb0FzDQM3RDjzd1J6WS0ipBgFpnEoTxEXfGj9+TAAmQAAmEA4Ed0qjKVYIuh9+0NUc+mL3SbGrl7iPDoZQsAwmQAAl0NQHPspVb5P/ufUPydZYAye7+1NU3xuuTAAmQAAmEJgE7i4wYVrW1dfLuzMWmD4mPizEbetBjNzTrjXdFAiRAAiTQcQTQ1+EFoSopKUGWrExT4Qo7CsLb2NlRkM4AHcebOZEACUQuAU/ygD6yaUuWzPj4OxNEFw0vEwmQAAmQAAm0RsAKVvitvqFBpn6wRDak5EliQpx/hrm18/gdCZAACZAACYQjAWepYJOJ5zhn3jpZ8N0Gs4IFyXpdhWO5WSYSIAESCBYBz6UXHy95+aWycUumfw12sC7O65AACZAACXQPAna22HpRYZLj/VnLZeHSrZKQEGOWSNDDqnvUJe+SBEiABEigYwnY/i82JtosE1y7IdM4A9jl8tbzqmOvytxIgARIIDIIeE4+fn+dLW+UxgZ4WHG3p8iodpaSBEiABNpOwAaUxTsMcBjii5anyteLUiRODXQY4xSs2s6TR5IACZAACYQfAdtXVlU3yNsfLJZt6QVmYxInzhW9rsKvxlkiEiCBYBHQmFZbJalHvBy0/ygddDiDkWBdnNchARIgARIIbQItBasmY4CvWJsh73641DWDzA08QrsWeXckQAIkQAKdTcDvbRUbbeI8Yvl8eWWNb7OrJv+Ogoxz1dk1wfxJgATCjYDnrffmydWXnyI/v/J005h6dScoJhIgARIgARII9LDCToEpqbkydcZ3UllVK16vRyBX0cuKzwoJkAAJkAAJ2ODrosvm42TLtjx5+/1FumFJvT+2le1XyYoESIAESKDtBDx9+yTJBWcdIdm5xSpacYvytqPjkSRAAiQQ3gRsAFkY2QgqW1FZrXGslklhcaXExXmNp5VZG8hEAiRAAiRAAiTgm8TBUvomSYyPlWWrtsm0mUtMKBYk9Kf2RVwkQAIkQAJtI+BJ254v193ylHz4ySLfumunUW3b6TyKBEiABEggHAm0NKyjpLyiRl5/51tJTS/UJeXNOwXSyyoca59lIgESIAESaD+BKCNeNalAlRAfI98s2SKfz1tv4kFimofeVu0nyzNJgAQik4CnV894GZTcR+Lj40wjykQCJEACJBDZBNzLArFBB3xw356xSFavy5C4WN0psJE7BUb2E8LSkwAJkAAJ7I6AI1yJxGqMqzlz18iSldskWoUrtxczx167o8jfSYAESEDE+/bLfzQDkgH9e5lG1OtlTCs+GCRAAiQQqQTcghX6BLxmfrpSlq3eppMbMWbJA72rIvXpYLlJgARIgAT2hIDtUxt0smea7iiIzUwOO3Ck6UvheYVEz6s9IcpjSYAEIpGAd+K4of5ys9GMxEeAZSYBEiABh0BLDysnwPr871Lks3lrJTbGa8JXUbDi00ICJEACJEACbSNgvaoQF7KyqkY3MlksPZPiZcKYZGlU4crtecX+tW1MeRQJkEDkETASf4MGBwwcrEQeCpaYBEiABCKXgLsPQIB1GM8LFm2R9z5a4heruIwhcp8PlpwESIAESKB9BKxwFaOTP+UV1aZfLS2rMoIVhCuOwdrHlWeRAAlEDgFPQWGZWRJodoFiIgESIAESiDgCboO5sdHZKXDthgyZMWup2fEIM8T0soq4x4IFJgESIAES6CAC1osKO++mbS+Ql6fMV8+rWiNcIWA7V7t0EGhmQwIkEJYEPL+6/TlZvzHdDEoaGxu59CMsq5mFIgESIIHWCQR6WHm9HsnXyYxpM5cag9pZFmj2O2o9A35LAiRAAiRAAiSwWwLob+EkkBAfKylpefLKWwtMP2s9sfA7PZp3i5EHkAAJRCABz5wvV8jdD/3PuKlilyh6XEXgU8AikwAJRCQBt2CFz5i8KCgql1enLpRCfcdW3TbwOmNtROQjwkKTAAmQAAl0EAH0o3jBsyo+LkbWbsiU/72/SBrqNUyLXsPdJ3fQJZkNCZAACYQFAc+YUcmyYnWqfDF/ld/bKixKxkKQAAmQAAnskoB7dhe7GBUWVch/3/paUrflS0ysV2NtOLGtdpkJfyQBEiABEiABEmgzAfS96F97JMbJkhWp8vFnOgYzOwlGUbhqM0UeSAIkEEkEPNdcfprk5pfI6jXbTENJt9RIqn6WlQRIIFIJ2PYe7xCsKqvr5I13v5Gt2wokLi7WeN3SuypSnw6WmwRIgARIoDMJWOEKSwU//3qD7tK7TvviKHNJelx1JnnmTQIk0B0JeA4+YLRU62ClvLLat6a6OxaD90wCJEACJNBWAm6DGIIV4lW9O+Mb2bglV5cseP1LAtuaH48jARIgARIgARLYMwLWUUAdr+TDOStl3jebnckiV2B2OhPsGVMeTQIkEJ4EPJtSsiRe45YkJsT5lP3wLChLRQIkQAIk0HIG18TWUI+qt6YvkkUr0zXoerSJq0EPKz4pJEACJEACJNC5BOwSfbODoPbF7328VOZ9p8KV/q26FT2uOhc/cycBEuhGBDzPvvyJ9OuTJPtOHG4GKhysdKPa462SAAmQwB4QsB5WMI7xGe+zv1orC5dsMTENrQG9B1nyUBIgARIgARIggXYScPpd8ccVnvnJclm+Jh3hrXRXd6evZt/cTrg8jQRIIGwIeNIzC+TEY/aT00852CwJwcCFiQRIgARIILwINAtWTVowGMIin85dJ7M+X6VilZi4VvaY8Co5S0MCJEACJEACoUzAEadi1Nu5uqZepmh8yc2peeL1eihchXK18d5IgASCRsBzygkHyH13XikD+/cyF3XimwTt+rwQCZAACZBAJxNo6WElut22yJy56x3BSgO/YrKCglUnVwKzJwESIAESIIFWCNiVLvB+jtWde2tq62XajO8kK6fYCFfon20fjXcmEiABEog0Ap4nHv6ljB09WJX8Jv9Me6RBYHlJgARIIFwJBBq6EKgWLtosH81ZYXYqsrE0uDQ8XJ8AlosESIAESKA7EEA/jFUvsTFeycotk8lvztUd3sv847PA/rw7lIn3SAIkQAIdQcAzYtgAn2AVxZn2jiDKPEiABEggRAgEGrgQqRYu2qTBXpeJR8Ur/A0DmYJViFQYb4MESIAESCCiCaA/btR+OUE3ycrNK5dX3loghcUVFK4i+qlg4UmABDw2jpV1TSUSEiABEiCB7k+geUlgk39CYvOWbHlrxhITgD062tk5kIJV969rloAESIAESCB8CBjhSlfAYHf39KwimfzGPBWuKilchU8VsyQkQAJ7SMCDhtGulca5XCu9hwR5OAmQAAmEGIHve1h5JCU1R1763wLTxmOJIIQrClYhVnG8HRIgARIgARJQAmapoIavwlJBI1zpUkErXNkdgO0YjsBIgARIINwJqKeVs+15s1il20gxkQAJkAAJdEsCbsEK7Ts210jZqoLVm/OlorJOg7pGcyl4t6xZ3jQJkAAJkEBEEfAFXYdwtT2jSF5U4apAPa7sxJPt7yOKCQtLAiQQkQQ8aPjwsrsGRkVxV4qIfBJYaBIggbAgYGdeERMDbfu29Hx5+a2vpbyyVrCdNo3csKhmFoIESIAESCDMCbhXw8TproIQrl6eMk/yC8sd4cq3q6CukwlzEiweCZBApBPw3PG31+Qvf39dvv5uvWHR0NAUEUysZxne8bKutrbwzZ5nEYGDhSQBEggTAqY905c3OtosKXh12rcqWNWYbbQpWIVJJbMYJEACJEACEUEAwpUVr+LjYiQtvUBem7ZQysprjMMBxi+6mDAiWLCQJEACkUvA+8RzM03pByX3luOP3tfsJCUSHZZEWghRvlheKKjTIThFtse414njc2Danahlz2/t3MC8+DcJkAAJdAQB2y5FqyGboYIVdh3K0+2yIVgxhlVHEGYeJEACJEACJBB8AhhPmF0F42IldVu+vDr1a/nF5SdIUo84E7QdwtXuxibBv2tekQRIgAQ6hoD36stPkabGHTJx3FCTY5RugR6Oye1hYBp1fVlBKb+wTAr0NXBAbxnQr6cpfqB4ZY/d2fetMaNg1RoVfkcCJNChBPyrApwPmHnNzC7WoOvzdQlBhcTFxhhDl+1Rh1JnZiRAAiRAAiQQVAJWuEKMqw2bs+Rl3Vzll1edKIkJsX5PagpXQa0SXowESCBIBLxP//MGsxIaM/NIWFISjsl6Ptmy4e8PZi2SJ174UHJySqS6plbXh0fL/vuMkD/cfLGccMy+ZqAHKvZcZ9AHN10xXgsen8C3KSVT7nn4LVmxOlVGDh8gj9z7czlo/9Fm5gMxZZhIgARIoLMI7PDNM8BJFu1NZm6x7jKEmBcQrKIpWHUWeOZLAiRAAiRAAkEmYMYkes1YnZDamJJt+vvrrzrJCFfWo5rCVZArhZcjARLodAIeNHqYiceOUkjhOhuPBtw24nifOn2B3PynF2TdhgzxREdJ8oA+khAfI/O/WSc3/u4ZmTl7sWEB4QrHWy4QrPA3BKvyimp58bU5cv7l98vsL5ZLcUmF8diqr280LNlpdPrzywuQQEQTMG2TErAiOjysJr8+T9uhCt0mO9rEtgrXNj2iK56FJwESIAESiFgCdnyBpf8bt2TLC2/M1cn3OjNRxVAAEftYsOAkENYEPFbMcQs64Vhit/C0cm2a/PGe12SHeiacf+Zh8sbzt8kn794jrz5zm1xw9pGSk18idz/wP1m8bLPxPIPHlOXjrBsXXX5TKLf95UW59Y7Jup48Xo48bIIurfTo7lxevwcWB4vh+CSxTCQQOgTQxsBAjY/zqmdVmbyA7bB1VyHsEoikfqGhc7O8ExIgARIgARIggb0mYLytEOpEU1xMjGxKydEYVwslv6jS2VXQBGd3EifQ9xo3MyABEggBAt5AYSXw7xC4xw65BZTLlu3lN7+Q0vIqOfzgsXL/nVfJ4EF9pbGhUQ49aIzcf9eVGuAwV5at2iqffLZMjjxUxShf54D3xsZG7RBi5OM5S2Xq+1/LeWcfIb+76UL1sqqUq254zOzkwUQCJEACnUXAPcEAwQpeslu25clnc9dJQYF6WHGXwM5Cz3xJgARIgARIICQI2DENbIJ4Dc6+YvV2qamp1/Amk8ymWtZWcI9hQuLGeRMkQAIk0A4CEaOwYEICDTi8ET7/aqXOTHjlzFMONoJVbV091kWaRn7ooH5y7hmHmWPXbkiX3PxiM2vhm9AwohR+Gzt6iPztz1fIc4/dZHZdrNAt5R1hrHl2ox31wVNIgARIYKcE0PZYAxQHIaxerNejy5o3y/bMIjVcY0z7ZI3ZnWbEH0iABEiABEiABLo9AWMTqC0QrQYBQpfU6yR8o8tWoE3Q7auYBSABElAC3kihgFhUaNi3pOaqwFQtg5L7yLFH7WOEKgShR0Nv48JAhEqIj5WVa1LV6ypPBif31aCHjhgFAQv5HHfkJDn9pAMNvgb1vrJB2XfYqMiRApblJAESCAoBt2DlCORR6jFaY2LoOX9rbCv9j4JVUKqDFyEBEiABEiCB0CCgIpVGPNGRigpY+iElLV8S94k1sXoxzkGyE160EUKjyngXJEACe0YgojytgGbzliypq2uQPr17yISxQ4znlMe3dNAKU3379JBePROlqLhCqqrqWng22MY+QXfpQHwrdAaIe2W/hzjGRAIkQAIdScAKVk5gdcf4zNJdT7ekFWj7o96f5mJwJ2UD1JHcmRcJkAAJkAAJhDoBI0jpTcJWwCR6aVm1rN6YpWOYWv8KkUBP7VAvE++PBEiABNwEIk60gmBlParsjokS5ewsaL0XEBMmeUAvKdclfw0NDYZXlG8wiEYfyWn8dXkOY1jxXxQJkEAnEmjhYWUaH5G07QWyYUueWQKAcOtOq4S4fZ14I8yaBEiABEiABEggJAmg+7feVFgVUqae2CvXZ0qlT7jCTVO4Csmq402RAAm0gUDE7B5oB3O7GtSpdmUSZimio52dOaxIZTfhavaoag7s3gbOPIQESIAE9phAoIGJJioto0i2phfqpx0mhoU5Zo9z5gkkQAIkQAIkQALhRsCOU+CFXVVdZ4Srsgon7i7muQLtinArP8tDAiQQngQ88DrCyy/OhOnwx+cgZYKqo0HHsj7EgkFCHCozO+Eb+WHZX10d4lQ5xzrH+BSt8HwOWCoSIIEQI9CaYbkNgtV2Fax8S5qd5YKUrEKs6ng7JEACJEACJNB1BHxDlmgNX1JdXS/LV6dLXkGZjmsw5qFw1XUVwyuTAAm0l4AHIg5ezcvcwlOcsR5WfTReVWxstJTrrMP29Hwj1tkXWnJ8Liuvlm2ZBRqAvY8k9Yg3bO3MRXtB8zwSIAESaAsB2x5ZN3+0yMbDSr2r8IJEhTh8VtRqS548hgRIgARIgARIIEII+OayYCdgjNeoE/XrN+cIYmFiNQmFqwh5DlhMEggjAp6b//SC3HrHZPlqwWpTLHgZhWOCaIXG+6D9RxmBrrSsUgeAeaaodmcN61mVtj1PKiqqZdSIgdK/f0/f4NA5DnyQD5Jf7ApHYCwTCZBA0AlYIcoKVrgBBB7ETkCp6UXmfqLsksBdrXUO+p3zgiRAAiRAAiRAAqFEwNoSGN9geLdpa75kZhcb4QrJ2hwcz4RSrfFeSIAEWiPgeeXNz+WlNz6TlWvSzO9WwGnt4O78nW2YR49Ilknjh0lJSaXMX7hOsLwmJsZr3tG419TUyZRp88yOXBPHDZVRw5PN92jg0ejb5YVgge/pgdWdnwreOwmEDoFA4xFtS4Namas0HkVGVjFWBDrLmH1tVejcOe+EBEiABEiABEggFAk0C1caGkXn3DfrJFhmdol//NLaZFkoloP3RAIkENkEPOeccZjgNWbUIEMinEUY2zD/6tqzxaOi1MefLZVXp3xpyhzt2wVw8mtz5NslG6VfnyTDJTExzt4LQOEAACAASURBVHifqWetPPLkdLnp9mdl+aqthhXcbZlIgARIYG8JtCZY1dY2yJoNWZJXWOEXyO1xe3s9nk8CJEACJEACJBAZBAKFq02peZKquxDbMR9sCyR7XGRQYSlJgAS6EwHvWy/9wdwvdqFC8nqju9P9t/le3Q3xuWccLhefd5RM/+g7+ccT78qcr1bIxPFDJTUtRz6fv0Zq6xrkuqvPlB+ef7Q0NDQa76pPv1wpjz8/UwoLy/WaUfLso78ygWbsIBLB7CFuQciyjb+vD2jzPfJAEiCByCMQKFjBo7NGBavVGzKlVLestm0yBavIezZYYhIgARIgARLoCAJ+4Uon6rGqJlVjZNboeGfS2GSzmgTf4Rh7nBW0OuLazIMESIAE9paANyZApArXRspdroT4WLn/rqskISFOPv1ihXz19RqZ/cVyiYuLkb69e8jVl50i9/7lCtNwoyHH+6CBvWVAv94qTO2QwYP6Gu5YrmMHkrEx0YJ84zUPG9Q+Kio8g9rv7UPH80mABBwCrQlWlZW1si4lRzeEUMFKBXMkClZ8YkiABEiABEiABPaGgF+40skx2BVZOaVmJ/V9JgyWWB0P2hAxFK72hjLPJQES6AwCXusVhMzDuZFyD/rgFTU4ua/85x/Xy2dfrZLV61LNboK9VbA66rAJcuyRk/xB1i2TQw4cI48/eK3kF5bJubps0PKyYtgRh46XR+//hfTrmyQjhw/w/94ZlcY8SYAEuj+B1gSr4pIqWb8lR6qq61SwivZ7bbpF9+5fcpaABEiABEiABEigKwi4x3rR0VGSV1Chsa6yZd/xgyUu1mtWjSBiSjiPCbuCO69JAiSwdwS8gYOhwL/3LvvQOds2vrgjZ7vXHWZAeMYpB5mXOyH4MZZLullA6Dr1xANbHGc9qvDliGED5OqfnLLT31v8wD9IgAQimkBrglVOXqlsSs2XOp31tIJVuLbHEV35LDwJkAAJkAAJdCEBa1vAFvF6PVJYVCFrN2bLpHHJ0kNj+bo9rrrwNnlpEiABEvATcNaeRAgQNNLumQN8bmhsVNfYBh0oNph3zDBYwQqNufVEw1JAHIsYV/Y79+8Qter1t8DfIwQti0kCJNAGArbNaCmie8zugBu25Jr2A0sCrajVhix5CAmQAAmQAAmQAAnsMQFri0SrZ3dRaaXG0sySAo3dayflrc3iHu/s8UV4AgmQAAl0AAFvB+TR7bKwMwx4h0eD7CT2vD0OBfQf6yqt+3d4b3k8LTNy/97tIPGGSYAEOpSAW4hyPmMvhyjZui1XtmeWCvYihaFIwapDsTMzEiABEiABEiCBnRAwwpX+F6PjoQpfTM199diB/XuqPQLLpHnlCe2TnUDk1yRAAp1OICJFq06nyguQAAmQgIuANfTsbCXEKSxD3pCSLXn55RIF0RuGo3p3Uuzmo0MCJEACJEACJBAsAipLaVwrLBWM1lUjTbJ+s3p+q40yJLm3sUvwQjICF+2UYFULr0MCJOAiEFHLA1nzJEACJBBsAi0FK8ebCkbh2k1ZkptfZgQrGoLBrhVejwRIgARIgARIwBKwE2bROqnW2OQIVxt1J2PoVRohxS9eWXuF5EiABEggmAToaRVM2rwWCZBAxBAInJnE3/Cwwk6liF9VWlZtZjWROHMZMY8FC0oCJEACJEACIUnA2iKOgLVD0rNLpVHvdNKYZInWeJvuAO20W0KyCnlTJBC2BChahW3VsmAkQAJdScDOWsKws4JVvgY43aiCVU1tgxGs3MJWV94rr00CJEACJEACJBDZBNxe3/js9UZJVo4KV+odPnZkP91ZMJ7CVWQ/Iiw9CXQZAYpWXYaeFyYBEghXAlaMsuWDh1V6ZrFszSh0dgj0CVZW2ApXDiwXCZAACZAACZBA9yHgtktgy2BH45y8Mg3SXi37ThgifXolUrjqPtXJOyWBsCHAmFZhU5UsCAmQQFcSsB5V1mXeLVxt2porm9PypFEDmyJehD2mK++X1yYBEiABEiABEiCBnREwnlf6Y2xstFRWN8i6Tdkai7PEv9Ox294JnKzbWZ78ngRIgATaQ4CeVu2hxnNIgARIwEXALUJZ8QreVfX1jRq/KkeNvAqJVjd7/EfBio8OCZAACZAACZBAdyCAIOxNTY7HFUIbrE/JlYqqBhk3aoA/OLvuJuMP1o4y0Yu8O9Qs75EEuhcBilbdq754tyRAAiFGoDXPKhhs5eVVsn5LnpSV1xr3eiQKViFWebwdEiABEiABEiCBXRJwRChnM5kmXTKY5gt1MHbkAImJiXaWC0K40hcTCZAACXQGAYpWnUGVeZIACUQMAeM+7wu2bg22vIJySUnLl6qaeg1kSsEqYh4GFpQESIAESIAEwpDAjh0QpFS48i0ZTM8qltKKatlv/GBJ6qEB2tUOUmPIX3IKWGH4ELBIJNCFBBjTqgvh89IkQALdl4AVqtzLAVGatIwiWbMhU2rqdIdAelh13wrmnZMACZAACZAACRgCcKKyk3R4xw7IZeU1snZTjuTpzsgQs5Ba8z4nQhIgARLYWwIUrfaWIM8nARKIOALWKIPhhlgPiF9VU1MnGzXg+tbtBeZvMxsZ4IEVcaBYYBIgARIgARIggbAh4PYu90ZrgPaqWlm9IUvgeYUE+wd2kfu4sCk8C0ICJNBlBLg8sMvQ88IkQALdkYB7FhGfo9WbqryyRjZtyZXC4irdZcdpVuEkT/f47ljDvGcSIAESIAESIIGdEbC2DWwgiFRYNrhZQyJUqIA1Znh/iY+P8U3otfS+2ll+/J4ESIAEdkeAotXuCPF3EiCBiCcAw8wm9+whjLXsvFJJ215o4lfFqWBljtTjKVhF/GNDACRAAiRAAiQQtgSsPYR3j1o/GdklUl1VLxPHDpSkpHjjbY5kj7OfwxYIC0YCJNBpBLg8sNPQMmMSIIFwIQCDyz2zaP/GUsANuv0zBCt4XPmlLV9sh3ApP8tBAiRAAiRAAiRAAoEE/IKU2j0xGueqWHdOXrE+U3J1QxprN2G5oEpXLcSrwHz4NwmQAAnsigA9rXZFh7+RAAlEPAG3lxVgwAirUZEK8asKiiokSr2tIFgh2aWDEQ+NAEiABEiABEiABCKCgBWu8B6tNlGtbkSzfnO2VFTUyOgR/Y2N1NTUpCyahSsraEUEIBaSBEhgrwlQtNprhMyABEggHAm43dphbFnvqoKiStm0NUeqaxpMLAe3sUYjLByfBJaJBEiABEiABEhgVwQChSvYUGkZhVJRXSsTxwySBI1zhe/s5B4n+XZFk7+RAAkEEqBoFUiEf5MACUQ8AbcxZXcHbFThKlN3x9maXihNjU30ror4p4QASIAESIAESIAELAE7cWdtqGjdXTC/sFLKyrfL/hOHSN/eCebQJgRw9+2wjL854cdniARIYHcEGNNqd4T4OwmQQEQRcM8CwsPK44mSyuo6jV2VbZYE7tDYDPCwcntiRRQgFpYESIAESIAESIAEdkLALV55dWlgQ0OjrN6QJam6aQ2Cf0KwcnuwW3tqJ9nxaxIgARIQelrxIQgKAbfnCj47G4rYwIzNO4u0ZbbFLSrYm3e7JbvFBHzGjA423bV5Bx5r/3bnhc/uew4KJF6kSwkEPje4GYhThcWVkqJbOZdpbIYYr9Nk8tno0qrixUmABEiABEiABEKcgNveblQPdbNcsKpWxo4aIEmJcSpcYaflPRsDhHiReXvtIOAe19kduJ34Z81jt7bY3a2ND3E7Oxv34XiMR+0zuLPjbJHcv7ejmDxlLwlQtNpLgDx99wQCGxH8o0cDgQbJJisY4O/WGqbAPAKPcf9uxSn7XbRzMXMpp4FCJxm1y3X1gfn7b5Qfwo6AffYCnxuInVvT8iQjt1Qa6pskNibadG58NsLuEWCBSIAESIAESIAEOoGAtbfhtQ67Pze/XCqr6mTsyP4yaGCv79nluAVrj3XC7TDLECFgbW9b3/ZveOH5BonmTt02eqC9bovSnJcztrN5uova2rgv8Dmz9n3ge2A+7r/5OXgEKFoFj3VEXsn+w3eWWTmrUct0O9yNKVlSWlopPXsmymEHj/F5sLQeoNHdeLgbovr6BikpqxKvbrHbt3ePFiKUPa6gsExmf75CYlRwOOSgMTJx3FBTD833haVeUVJVVSOl5dWS1CNOXwktRK2IrLgIKbR9DlBct6t6tS4H3JiaJ0XqZYXk7Hxj5n9oTBkKTCRAAiRAAiRAAiSwewJuwSA2Nlqq1MZan5JjQi+MHt7f2OFuQcL9efe584juSMAtGLlt8bXrt0tmdpEkJcXL+DGDJXlgH1M8O450Vuo4Jf7+M+M4JeDXgqJyE382QT36evaI/56jQl1dvXz19VpJzyiQUSOT5bQTD/Q/h+7ntb6+3owPkdfAAb3NhQPFLudu+P+dTYCiVWcTjvD88Q/bNjRwDX7+v5/KC/+drUuuygWBraM90TJCO6wbrzlLfnb5qaYhcAJfO15YbsHKNhLIZ86XK+Rv/3hbZ2yKZcyoQfL6c7+ToYP7tnA1/mDWYrnrgTeltrZeolQvw/kP3n21XHzeUaZWcF9o/Bobd8gtf35RFi/bLO++eodMGJfo7zwjvPrCuviBYqhjNKGjq5CNW3Klpha7A3J75rB+CFg4EiABEiABEiCBTidgbXjY+GYiUA1wxLgqKq2WAyYOlvi4lrsL4obcYkan3yAvEFQCVnDCO0JxfP3dernnobckZWu21GsMNDhcJSbEyUU6Zrvjtz+SAf17uYQrR5yyz5T7OcnKKZJ7Hv6fLPh2vRn//fHmi+Wm6841ecLJAZ5ceQWlctPvn5VlK1ONOFamotSFZx8hjz90rT6b0eY6eHk1JMjU6Qvl3kemyp1/uFR+9pNTzPcUrYL6qPgvRtGqa7hHxFWbGyQxQRgfePQdefaVWdpgeGScqudx2kFVVtZIalqu/Pne142Sfcv15xk2geq5o6xjuVauPPnCh/K/d+ebRg6NBxob24g0NTXq99FSph5Y9z7ytgpSjfLEQ9ch7qP89cEp8jdtyE48Zh9t/HqbBixGG7Annpspb727QF595lYVrIa2uHZEVFSEFfL7z5bTYdbVN8r2zCJJ1x0CcQyMKvsssoOKsIeExSUBEiABEiABEuhwArCnjFCBdzWzSkur5LvlaTJ+9AAZPLC3sb0C7TTcBO2wDq+KLs3QCk1GsFKB6brfPmWehSGD+kr/fj3NGC09s0BenvK5pG7LlclP/EZ690rUcV3L3bttISp0PDn7i+Vy3z+nqi1fIL16JpjxYa16VCFhEyW4Q+C6L6gDxdyF6+T3v75ILr3oOHnsmRkybcZCOfqIiXK1ClMYO0KwWroiRe7711QZO3qQXH3ZyXRo6NInRuMMd/H1efkwJoAOpkH/4aMD+uCTxfLSG58ZwerWG8+XL2bcK59N/7t8NPVuufTiE7QhEHn82Q9Uad9g1HUnOKPTsVnPq/UbM+TH1/xDXnj1U9l/n5Fy+skHSVxsTAtvmB07nHPWbc6QnNwSOeWEA+WcMw6Tc/V1xqkHy6rVqaqwl5mGJzYGDdIWefy5D+XnV54mF55zhLmubUhtpxnGVRRxRbN1i2cTdY2EDrNURc6V6zIkNb3QGEb4DskeH3GgWGASIAESIAESIAES6AQCVrjCuw2/sCElTzZtzZPqGl0dgYGAJrfN1gm3wSy7kADqGK+q6lq5+6H/SUFhuRy430iZMvl3MkfHh1/NvF/+cc/PZKA6GcxduFaenvyxsc137MAqGcd+xzs+VtfUySNPTpef3fi4ilR16hF1sgpfvXQ1j9rz6jmFZK9XV9cg875ZK/tNGiGX//gEdVYYIj+97BTp2ydJFnyzzv/MIWzMUy/O0lUX9fLyU7eY8zkm6MIHRi9N0apr+Yf11fGP26O6NtTyqe9/rYp3lRx75ET5820/Nu6XWE/cr08Puf+uK+XAfUcahf31t780DYOzdM8RkBC4EXkt0uV76zdlyO9u+oEq7r+WSy48znzva7ucBsnXMBVqLCuv1yM9EmONyo5GCu5WXhWqKrQhgmBRqOud4eEFr6s/3HyRxKoAZhskNkzh92i669ZZsqrPmT4T8K5atT5Thatq43mHhGORrOEUfjRYIhIgARIgARIgARLoGgKBwlS0ChJZeaXGHssrKNebcoQrO5ls7bKuuVtetSMJOGM3Z4z3qYZ72ZiSqaJRD7n9lotln4kjpFqFLHhUXaJeUFdecqKu1tGwMHNXyobNmcYDqtHnYGCdGjKzCmXWZ0vliMPG6xK/X8pjD1zr2zxJvavsIFELYK9bo8Kosff1N8RHjtHxYlR0lNTqZyT4ZL09fYG8o95Xf//LFbphQB//+JDjgo58EvYsL4pWe8aLR+8BAePCqY3Cuo3pZgkg1qv/+AfHmYYIDQdEogb93CspQS48V+NMqVi1aUu25KsnlDvwNZxe0EjsO2m4PPXPGzQu1U81ON8QgStooLi0I8ppBAcn95U6DZ6Xm19qvLFiY73mWg2qxvfr09Pk/9zLnwgC/j2gohniYqFRtDGM2CjtQUV3g0PdghVu13pXrduUJZs04HqDxjXDWneKVd2gMnmLJEACJEACJEACYUHAerBAo4JwVVFZa4K0O7aZY5e7bTiKV92/2o1zgk9M+vTz5VJTUyuHHjRWzjjpYCMixcfHYkhoQstcdcnJxsFh/aZM+XbJRmOnIyYy8rAB/HtooPVfa9yq/z59q5x92qEm0L89ZgcyQtK5aJyD8R/iY5WWVRoPrRh1ZigsrtBdwhuM0IVj1m/YLvc9Ms3E07rs4uPNyYHjiO5fC92vBIxp1f3qrNvcMf6B47V67TbJV88nxLA6/uh9TCNj2g/9zYlLtUMmTRgmCfExultbuazZsE1O1WV9aKzwuxWQjjx0ghx9+ESz5FCdSo1K7vzmeMUgT/yN14H7jZJJ44eZQHwPPDpNryUy4+NFcrIuKRw+pL8sXLRBnnh+pvzkhyfKKccfYLyxsFwQ59qGqduA5o22SqBlPbas123qXZWhsauq7GyL73m0z1qrGfJLEiABEiABEiABEiCBDiVgbC+Y8hCuEKRdPWlgo5VXVMuEMcnSW+MTOWIVbHzn0s7f9Ijv0IoIUmbGPkd1a2Vu0N3kEdpljO7gh/Gh6lH+cV+0ej8NSu4tBx84RmbNWS556oiAc0w8NOThG/NhV7+fX3m6uXtn7Og7xnmknFLhEdNzMEENMeq2v7wkDz72jhyjcaw+nL3ULE/85dVnavD2Oo1jNc0IZ3f/8TIdm8Y6oW7M0sTm3QmDhIqXcRGgaMXHodMI2H/cWBZYo40APJ4GJ/cxjYx16UTrFKUNwYSxQ0xHhbXDWCaIc/GfW0RyGjNtzTS5AzWaXs6XonwxreBZBfdQBOR7XAOtx8XFyv66fvnpR27QxqdB/njPqxpYb7Dcd+cVLTxs7D2zM+y0xyIoGQfWIy6KZ6lWdwTcqJ5V6Jzw3LiXAxqjiYkESIAESIAESIAESCC4BFxiFOwxCBalZTUm3uiIof1kzIj+ej8tQ4LgBikkBLeaOuJqqDM4JWTqTn/weIJAhBU0SFaQwmc8B1gOOG7UYK3nJl09U2JWzXh9wfpt/FnY8sgTK3kgSiEsjU8Dbb5dn2iFcy7RVT+bt2TJa299KfM1jhV2kf/7n6+Qo9Qx4rFnZsqX81fJkw9fL+N0nAinBjtWcI9JO4ID89gzAhSt9owXj94TAj4RAO6XiCk1ekSyXz23+gDcNtFPwcsJDUm9HlepMaeMgKAtjrszsp+ttNCayIDlgcgRMYsOPXCsvPXS7ZKbp42cztokqzsoXEj//o+3JT2jQBukX0qf3kktSkSxak8qODSPdQtWtmOEG3KePgcp2wpUGIUHn+ORhxLQ4AnNeuRdkQAJkAAJkAAJRBYBtzCACeqGhh2yZVu+FJdUGq+rnknxCsRZyQEyFBK63/MBzyrY4VgKqOa5EaH6aSB0M67DuFBfdjyG2MiYZI7WuFPFuoyvQr3v+vTuYc5z2/uggOfFpu9NQ/uWB+KcHolxcv+dV8lvb7zATGIPGdzX5LlkeYo8+tT78ourzpArLjnJZOUVJ9YtPmMs4fby8l+MH4JCgKJVUDBH5kVsg2ODqu+SgjYEEJuw9A8iF5JRya265f6MlmonCXngHNvgIW7WiOED/Ue/N/Nbef6/s+W6n54uF59/tAb7q5MsVfrR0CUmxEqyBtuDF5i9bGvC2E4uza+7mIBbcLR1CCEUAR1TM4q0nktNPdtOzTm+Wbzq4tvn5UmABEiABEiABEgg4gm4hSgzybjDIyXqdbV41TaZOGaQBsbuabxfML5AcosctNu7x+ODkZwznHMESHhQIX1viAcdS7Uo2PUJCXH+TbNsvbvf7TigVQJGD3OkLCt2YVkhXkiVGif5ulufkjGjk+U3159nvtueka/xturVEyxGha1+5pmz57Z6DX7ZqQQoWnUq3sjO3DYOifFoZLw6S1JhAuO5k9nVQRuROlXbG3c0SrweB7UbklV7O57ARgvrmyFUZGYXyj+efE/Gjhksd95+qa6XL5R7H3lbPtBYV2gs99NA73/V9ctnnHKIaZTYMHWf59fWFd6dnQE95llDUP+tafkau6rBuAzbxLrtPnXLOyUBEiABEiABEogsAoECg6M3RMm6zTlSoLt/jxk5wMS6wngBdl+UKhs4hvZd6D8nUboqBp4J2KDLxjau1Almp+6avehQEtjytSocwSkBywjj4hB/2KlneGDtSXI/G/hs8ldnCSxBvP9fU3WpYpX88+8/0+Wo/eXNaXP1u2mSoWPHAX17yrU/PUNuVc+sXv74ai0dK/bkPnhs+whw98D2ceNZbSBgZz5GjhgofXr1MAEVs7KLTKOEhHcsD8R7iu4uiN37EnT53sD+vfU7NE/tS7iufdmtcrHTIBokLBX8t8a68uoOEXc9OEXenfGN3HDNWUaswk6Dv/3Ly1KonaE9v313wLOCRcA8Q/pCfdmdSNABlpZXy3o1bNZsyJaaOmeNu33ucG/tFUSDVS5ehwRIgARIgARIgAQinUCgvRYXG62iVZUsX5sh2FQHk96w+9z2oP0c6exCtfzGZlcxapB6OSXpDvJ1GjcqXb2akGDLu+u8oaFBcvKLzUqcvurUgB0mMV7EMe7xZFvK6s4Xn61g9cW8VfLKlC9MgPazTztMvlywRm67Y7Lsv+9IefKhX8pRR0zSWFcfyAuvzjHXhTNE4HPZluvzmL0jQNFq7/jx7F0QgOiEf9RDda1wkopR8GbCToKBHQuyWL02zQTJ7t0z0QRlhwrvNChNplGB+ITkFh52dmmbP97RKGI70zlfrZCp7y+UP936Qzny0PFSpmr6jI++Va+qg+Wu2y8z6vlVl54kJaUV8vncVb573NkV+H1XE3A/Q3hOjHeV6cCaZLt60K3ZmCXZeWXGu8puicsOpqtrjdcnARIgARIgARIggfYTwHggRuMb7dDg2Zu35Km9lyO56lWvWoaOG5xlZLD3HJuvpddO+6/KMzuSAOoG/gseXQUzatgAEzh96cqtZqznUY8563CAd3g/rdQxIlbhjB450IzPGvV7nO98bhaw2jpGdMaXjvCUrSFi/vbwW7oscJBZhYM4W1/MX202Bvvdry7U+Fany0P3/FQ9vGLkqwXO+NC5f2dc2pFcmNeuCVC02jUf/roXBCAWQI2GUg1vqxqNVTXl3flmRgS/wTcUijl6mVmfLdOGol7GjEqWoUP6mfNs/KHoaEd4wK20RXiwnRVcSpHH5q3ZcsffXpeTjttfrvjxiWZ3Cbyqqmqlp7p5IrgfVP4hg/qaRqmo2PG0QoPIFFoE3GIV3ILt33imKiprZfX6LElJRbD1Bg3u7ywHxDFteW5Cq6S8GxIgARIgARIgARIgATcB2HPGG0fHETFq5xWVVBnP+o0qYNXWORvtWNsQdjwFhtB7fqxdjvezTz9UEjUw+pa0bFnw3XozbrNhPjBWnPLOfMnOKZb99xkpR6jTAerTqztL4jfY/hhH2vx2Z+vb45y4t3q+XuuJ5z+SjSlZuizwGklWzy8cU1leI+PGD5W+fZPMRmIjdbkgBFH7PNnJ8NAjG953RNEqvOu3S0tnG4/4uFj5yY9OlL66M8Q83Vr0rw9NMY0A/vFDnLrjr6/KyjWpkpzcR352+am+xscjZbrE67pbn5ZjzrpDPlZRC8l6XNmCoRHBy51sZ4WGr1Hz/9d/ppsG8J4//sTcgwnqaFR+R8zAcQjYXlpaZdyMe/ZK9P3Wpfh48QACtr7wNT5D9EQ9QpzcqjvLLF2zXQqKq/Q7pxOzMzW768QImgRIgARIgARIgARIoHsQsDY8LEHsPKdmoGTklMjKdRmSl19mbENnfGCXkDkDBcd27B5lDOe7dOrHGYudf9bhMla9nHJzS+TBR6fJ+o3p/hi0b09fIC++PscIWScdt59MGj9Mhcl6I1Yh5tThp94u/3f/G2Zs6Nj8zdRaGx/a56ZJV2UgD8Q0fvrFj+X2my+SE4/Zz4wVkRBCJie32IS1QUxm7DDYqJ59jnDlXItji+A/oQzEHnzmEXNF/IO2ivmlPzhW5qq75YxZi+Q/L3wkH89ZJuN1B5B1GzMkPbPQBFP8w68vktNPOsh4PUFEmjLtK13C950G0a6T/075XM474zCdXWkO5A5vKezqgGWFtiNyVHAHMQ6drg3S62/PlUfv/4UcevBYvwdXgu4EAc+rhYs2CHYUnDB+iEz7YCF0EDn68Ik+UQvXClDEIqb2QqegVqyynQ3uzH4uVqFxU2qe7vpRa+oKzxuSW+AKnZLwTkiABEiABEiABEiABPaWgBENoFrpm+P5Iioy1Mpa9brKLayQCaMHauBuBO22Xvktva4oOuxtDezd+ag+iES9Nebxff93lfxSd+5bsmKLXPzTh2W/fUao+FgqadtzjX1/zFGT5JdXn2nqEp5VvbeJRgAAIABJREFUGP/944npsmFzhlnO95OLT5SDDxhl4l7ptLUZA9Tq8j6MEeEcgYTv7At5bNycKX//x9tyjnp63fSLs81vWHYYGxMjxx09SR7VjbswfkzqkSBTVTxDqBrr6cWFOHtX9+09m6JVe8nxvN0ScAsHaGj+oa6XE9XdEq6eRbqT4KJlKRKn4tSEcUPkOt2V4cafO40G3DVx7pGHTZLDDx0nOeoWCsEKyd3J9NA4WVh2OCi5r2+5IX531jlDQU/PypeH//2u/PzK07SxO8PkaV06e2gjdO+dV8nv73xZbv3LZGmob5T+/XrKX//0ExXTBlP02G3tBucA+ww5HQ0ME+e6VdV1uqNHib6K/c+FfTbcz11w7pJXIQESIAESIAESIAESCCoB37yytfuiddkYPucWlOuO5ZXqwTNABqptH6feMvgeywoR/5Sp6wm4bfZTTzhAXn36Vnnkqfd1x+9cWb1um6mv/v16yVmnjZO/3XG5jNDYVxC5zCoafT/puH1N2JmD9h+j4V36tBi3oY6HDUWsLBXFzI70zYIlxoe1utrnzWnzzPuffvtDDRWT6Dg16EocHUXKyccdIDdrPKvp6jgxbcbXkqC7Fl5w1pFy+28uNteBdx9Fz+A/QxStgs88Yq5oZzfsO4Kx/1YbgQvPPUpW6XJABN7rkRgv+00a6Q+uBzhejWGFhunwQ8bKc4/dJPkaYPGow8Ybbu7O5qTj95PXxv7WxKTCsj8kdyOYEBcnrzx9iwaC72+Csds10o4AskOOO3KSTH/tDvn0q5VSp4r8gdrwHXPEBNMgufMyfzAFnYA1QsyugPo/CI54ZvL0eUhLL1QPvAYNxunErcLN2ePZkQS9qnhBEiABEiABEiABEugSAnacgYvjM2IeqTOObEjJleyeZTJmeH8Z0D/JrJ3AWADHuMcoXXLTEX5Ra7PjHZ5TJxy7n3nN/XqtiS2MXQNHDE/WcdlEQ8oEaffFr8I48dH7r5XvlmyWfScOl4EDejljPJ8gidU6j+lO8bUqag0e3M+cH4OVGPo7roewyj/50Qly07XnyBDdLAzfQQzDMwFBDE4MD91ztZxx8sGSmV1oHCROPf4AgbOE+7453gjuQ0zRKri8I+5q7k4B/9DR6IwdNci83AkNlntpFxomHDtmZLJ5OY2V3Q3EObOfClV4uZO7AUEjhheSaaR8jZ09Bh3XEG3MrtE4WjYF3gcbpBZ4g/KHW3yyQiMsjUKdNUvPLFYvvUrT8cSqYGUiW2ndWgMkKDfIi5AACZAACZAACZAACYQMAbe9bu3CGBU3EB937eZsGVLaW4Ym95KkJEd4cIsPKATt/eBWpXt8CA85G0/q5OP3b3EjGJch6L5dKWPPi1VnBMS5QrJjPHsijsVO9O4UZZdq6JdwZNhflyDac23dIx8b2D1JnSouOu+oFnm4nxk+Ly3QBOUPilZBwRzZF3E3TGgz0DC5A6o7O0A47rruBgHf41g42uCzbVzwbvM0+ehP8MCy3wX+ju8DGzsc4whjupMg8vCJWu7rsEEKznOLOncndz2ijqqqaiRdlwLmaYwC7ApovavM7jG+eg/OnfIqJEACJEACJEACJEACoUzA2O8w7fUNO5BjrLA9s0g9eCpkcLKKV4N6mwDb+N6xI1EaJ7wIPtH+D07tWs5WdMI74lKZGWlfPWBcZscFge8mhpVuvmTHePYc5OO8tC4hePk8rNy/mzGEq64DBSn8DcHMfo/QNTYfPh/BeT4Cr0LRKpAI/+4UAvYfuNM5QERq/TLu43AERAt3cjcU+Ax1vq2/B+Zt82/tXtggtV4/nfGtZW3FK9tBQLDcrp5VWRrTrKK63sx+xOqOHtC47DGdcT/MkwRIgARIgARIgARIoBsT8A0PrL2ICc9KDcydsq3AeO6PHTFAQ4skagGbxSrMghu9yzcp2o1L361u3T0+w9K/1lLgGA5/u48NHB8GjuMCf49GRbtSq/m7QpDYQwPzbe1e+V3nEKBo1TlcmSsJkMBuCLhnNeyh6AzwfZ5uL7t1e4FUq1iF2RC/d5V/VqxlZ7ObS/FnEiABEiABEiABEiCBCCNg7UqoUWbpl/5XUlYtK9dlyECNczVK4131SIzzi1WYGPWfo6woUkTYA8PihiwBilYhWzW8MRIITwJWrLJGAf628cbKK2tke0aRWQpoj4ORgcSZr/B8HlgqEiABEiABEiABEugsAlZ4arYrEX5kh+Tkl0thaZWMGNxHhukLSwbheeVeOoZzkChedVbtMF8SaBsBilZt48SjSIAE9pKAu+PHZ9gBdq16dXWdZGQXSUZOmT/ovl0aas7TGTIaDHtZATydBEiABEiABEiABCKUgJ0sxbsTw1Z3i2toMp79mTmluvFTfxk0sJcuO8NkqbN5FFaR0fMqQh8YFjukCFC0Cqnq4M2QQHgScHtJ2R0BYQhU63a0BcWVkqGxqypVuIrW9eNOnDJnZoveVeH5PLBUJEACJEACJEACJBBsAm6vK1wbfyNYe11Do2xIyZXC4ioZPLCn9O/bw+xqDjvU7mAe7Hvl9UiABJoJULTi00ACJNBpBNzeVc6Okc5SwEYNsp6TWyaZuSW6HXGNWR6IuFWQqtxCFb2rOq1qmDEJkAAJkAAJkAAJRCQBt30JuxM7w4lu7pRbUCYFReUqWiXJ8CF9pJ8Ga7e7meMct7dWRIJjoUmgiwhQtOoi8LwsCYQrAStUoXxO5y6uWaooKdB4VRk5JVKsu7c0qqEQ49sREDEEuAwwXJ8KlosESIAESIAESIAEQo+AW4iyu1RDvCorr5b+/TRY+7C+Jlg77Fs7seqelHVPtoZe6XhHJBAeBChahUc9shQkEBIEAjtz529HvCrSZYDp2cVSqp5VdfUNZhcXL3ZyUa2KHX5IVB9vggRIgARIgARIgAQijoD1vMKqAHyO06Ds9Y1Nkp1bKsUarL1/nx5GvEpIiFU2zjGBIhZXB0TcY8MCB5EARasgwualSCBcCbhFp8DZJ2wtnJZeaMSqBg14iU7dq/EDkOx57OjD9clguUiABEiABEiABEigexBwi1d2yWBNbb1kqXiVX1QhA/snyehh/SQ+Psa/VNCxe3V5oSZOwnaPeuZddj8CFK26X53xjkkgZAjsSqyqrKqRVN2RJa+wUu8XcQA0XIDZkcVJ7NhDphp5IyRAAiRAAiRAAiRAAj4C7iWDWBmAVF/fqLsMlpi4V8OS+8gwjXmVoOIVkuN1hU8UrwwQJhLoYAIUrToYKLMjgXAn4PakQudsYlHp/xCoEr+VV9RIdn6pZOWUSaO6VuN7tycVvavC/Qlh+UiABEiABEiABEigexOwtqu1W2HPGru3cYdsyyyUrLxSGTOyvwzQoO1WvHI2HXLCYqD0nKDt3s8A7z50CFC0Cp264J2QQMgTCPSsgl5lOnH9X0lZle64Uml2BKyrazS7AdrtglEwilUhX728QRIgARIgARIgARIgAReB1iZeozXMBSZmN2zOld49S2TI4D7St1eiJPWIM2c26S7ZOM/tsUWoJEAC7SdA0ar97HgmCUQMAbd3lTOLpNsDq7s0lvzlF5ZLoe4ECMGqurre7AZod19xi1yMWxUxjwsLSgIkQAIkQAIkQAJhRyDQ+yo2NlrKq+qkbEuuJCXEmd0GBw/sKT2T4k3ZrXiFz/S6CrvHgQUKIgGKVkGEzUuRQHchYDtWt1hld/mz7tEFGpASrtElJVVSU9dgPKvQeeM4u/sKharuUuO8TxIgARIgARIgARIggbYQsB5UWGqAmFdYOFhZUyflGYU6iVsu/fokyfAhvaVHYpwv3pUax3qUtavtNWgnt4U2jyEBEYpWfApIgARaEGhNsIISBa8qdLjFKlJtzyoyuwHWqViFJYDYGtgRtZys2AnzoSIBEiABEiABEiABEghXAm6vKxjJEK+8GrO9qqZeqrKLjXgFz6vRw/rqboOxiqGlcBXotRWunFguEugIAhStOoIi8yCBbk7A7VGForT8e4c06Nr8srIa2a6dcElptTRirb7+51XvqubjnR1TujkK3j4JkAAJkAAJkAAJkAAJtIlAa+IVTqzVid2s7FITRmPQwF4yRF+JibFG3IKAFeh1xeWDbcLNgyKUAEWrCK14FpsEQKDl8r/mDtR2wOhwzTLA7CIpq6z3BZUUX4frMGQny2eJBEiABEiABEiABEggkgkEek4h9iuWIdTXN0l6VrHk5JVJr57xMnJoX+mVlKATvxCvHFucAlYkPzkse1sIULRqCyUeQwJhSMC9DBCBIuHa7NHXjh1NUl5Rq8v/qiUju0QqKmvNEkC83Mmez6WAYfhwsEgkQAIkQAIkQAIkQAJ7TOB74pUvvAZ2GyzUTYsKCiskuX9PGToYMa9iJcEsHXTEqyaE49DPyIOTwnuMnieEMQGKVmFcuSwaCQQS8M/kOAGq/LuamNkgTUXYBbC4QvLyy6W6pkG80S2XALoFKopVgXT5NwmQAAmQAAmQAAmQAAk4wpPlYAWoaLWrkfJ0FUOeLhvspbsMJutugwM19hWCtuNXHMtdB/kEkUBLAhSt+ESQQAQQcHtFGeHKBFbXqFT6qm9oNCJViXpWQbSq1gCS7p0A6VEVAQ8Ii0gCJEACJEACJEACJNApBAK9r7y6egHzx+VVurIhtUZy88qld694GaDiFV7W08o/2WzuCmE8WophnXKzzJQEQpAARasQrBTeEgnsLQErNDV3ds3b7NqOs6ra6SQLNbB6mQpWDeq2DLGqxU6APnFrb++H55MACZAACZAACZAACZBAJBNwi1fYkdvsOKh7GlWoeFVWWaNB2yukd88E6de3hwwa0FNiYrDhkY0563hpWdseohdFrEh+miKr7BStIqu+WdowJ2DFKhSzuVMzzsb6ijLuxkUlVZJbUCbF+l6ngdYb9adoT5RfrHLW0zsdo5kGYiIBEiABEiABEiABEiABEugQAt8TrxA7VnOub2gyywYLdeVDZk6JDFDxavAgjX2VgLhXsOWRnIlot2DlfO6QW2MmJBCSBChahWS18KZIoP0EWopVjngFcSqnANvuVmmQ9RozM4POLwozPL5LNTX5lgyaFfVMJEACJEACJEACJEACJEACnUUgcNmgRyeRPZ5oM/EM76uq6jpJ102R+veJlyGD+kqf3ok60dy8RLB5RYUzOd1Z98l8SaCrCVC06uoa4PVJYC8JoMPCC6ITOjvbAdbXN0i57vwHV2PM2tTVNfriWIk5DjM1Nrk9tPbydng6CZAACZAACZAACZAACZBAGwkEilf4O9q3gyBs9DyddM4rqlaPqxgZktxb+qsHVnycV7xYW6jJjAN84wHfzHQbr8zDSKB7EKBo1T3qiXdJAq0ScHtVYUcSLP8rK69RsapG8nQJYGl5rTTqd1gzH42pGVdyC1W2s2z1IvySBEiABEiABEiABEiABEigUwm0Jl7hgnbXQWyWtDk1T7Zu96j3VQ/1vuotiSpkYedBJJy/wyd22RvlxHSnVhkzDxIBilZBAs3LkMDeErACFfLBZ9sJoYOqrW3Q9e8VUlqmYhW8quobxYNZGhWqvNHNszBucYpC1d7WCM8nARIgARIgARIgARIggY4lEGijmzGA2vX43npX5RWVS35RhQpWsUbAQvD2HQj1gWM12bGCRyeuKVx1bP0wt+AToGgVfOa8IgnsloDtXNxCFToqeFIhoQPCC3+nZRSoSNWkglWVWSIYE+OVWHUXtuEa3eLWbi/MA0iABEiABEiABEiABEiABEKGgFvEsna9nZSuqq7XlRWFkpNfJgnqdeUWuFAAJ2Zt8wZNtlDGK0sFrkCBLGQKzRshARcBilZ8HEgghAi4Ow8rWNnOBH9DqEIA9f9v70zA5KqqPH66q3rJnhBIICOLCQgEDISwOLIGhAgq4rCKTFBgYNjGEUEW2R3gm+gIDI6IiiJ8cWRVQOEDZFMIhE1gEkhICGQlZCW9VtfSPed/b92qV6+rOm13p+st//elUtWv6r137+/cd9+9/3vuuamOjMBFOJfrlHXrW6VT9+HhldQ7GgMsEKwoVgXIsEwKCZAACZAACZAACZAACfSTgLdfgM+IU4v4VlntEyBESE1Nrb63S2N90qwMXq8v2zMojWXr+hlIDsWrfhqFh29xAhSttjhiXoAEKhNwD4meHhzuN1gBsE2FKrzruIm+p83oSK1OAXTRqtwKgLgiR04qc+c3JEACJEACJEACJEACJBBWAt52vmv/IzRIZ2dOstmctLalpKUV8bBqVdSq19hX9Tq47Zsq6IK3KwTvYDlFrLCWiuimm6JVdG3LnAWUgP9B4H1IuCRjHzymcjk8dNLSoUIVPmPDdwmzSqCd326mAebdeylUBdToTBYJkAAJkAAJkAAJkAAJbAEC3vY/+gkQr+BXhcWY8HdLtl0FrJTxumpoqJMhjUn9TS3CZBUGuV1/xNtP8fdZtkDSeUoS6BUBila9wsQfkUD/CRQq/vwccpzROOriiaEbvsd0PyxZm0qldfpfVkdKsiUeU+4c9uGkx0Gs8pzDnIgbCZAACZAACZAACZAACZBA7Aigj2AGtCFc5V9WkOrSWRoZXbwpLc3NtVJfl5BG9b5q0Fi4mGLoXWXcCVg4jet7UMCKXVEKVIYpWgXKHExMlAh4K3mXL/cQcCMiGAHpVBdeuPFixb8OfeGBAiEKv7ExrLpTcUHWneDV/RfcQwIkQAIkQAIkQAIkQAIkEDcCxehVNudeTyz3OZ3Jmhi5+LtRva/q6xNmMac6XcypNgFPreKguuu/FIQrHTRHX8R73rgxZn4HlwBFq8HlzatFnIBfqPKLVMg+9mG6XwYilQpUOfWmymThvotVAXWkwwRbt1ulUQ3/wyjiWJk9EiABEiABEiABEiABEiCBfhJwfQsITgkVp7ChP9KuszzgbYW4V/X1dSpe1erfCRPMvbBBrEKHxWzF1Qcr9VeKB/ITCfSPAEWr/vHj0TEk4BemShHYChz7vNP2MvCm0phU6TS8qjDtr0uFqhyq+7IeVd4HSgwRM8skQAIkQAIkQAIkQAIkQAIDTMDrHVVOwMKCTxhcR1yshHpdJVXIgvcV4mHhhf06BF8Qr6yIVez/eJOLa1HQGmADxvR0FK1ianhmu/cEyolUbpTB7xZb/K1IKpORjFb6RqhSwQoDE4hZhYrejG6oV1Ve2jKJ8Vbq/vP2PrX8JQmQAAmQAAmQAAmQAAmQAAn0TKCcgOUNTZLTAfYMphGi39JmVyy3ApadTphUTyxoWH5hyvWTvO8UsHq2Bb/tmQBFq5758NsYEuiLSIWlZhGfClP+2lMqVmkFD3EK+yFWmUEJ3TD9r7tQhW9ssET7K/5PAiRAAiRAAiRAAiRAAiRAAoNDwAlY/kH0RL4Tg4WictrPQRxexMLChumFdck6syIhYmLZAfnusa5wTr+QheMpZA2ObaNwFYpWUbAi89AvAj2KVLZGLTl/J5aP1T2dOV2FQ72p0hmIVZjyp9P98m6w3gOsUFXc438Y9CvxPJgESIAESIAESIAESIAESIAEBoCAf7aH67dgvxuEdwIUwp1ksx06YN9hrpzUaYQNGg8L0wgxrdDFzPIvLOUXsNzfFLEGwIARPQVFq4galtkqT6CcQIVfeitL75FWnNIV/rr0pSIV5nhjih9W3Mhq8PSaGrN2RuEQryBVch4dYXAPAf/DoHxKuZcESIAESIAESIAESIAESIAEqkfA64GFVFjxqtj3sfGtbPowgI9XS6vt92D6IDywjIilghaOhTeWX8TC0ehD+cUsd71K/avqUeGVB5sARavBJs7rDRqBv1egQsLg+orKVp2pVJzSilc/wBXWiVXQp2wAwkpT/WwlbqcEFgUtClWDZnZeiARIgARIgARIgARIgARIYAAJ+PsyRSEJfR+7oqB/gB4xfTPtWRWxOlSw0pUJ6zSou1mh0AZ4x+qE8Maq1X2uf+VNMoWsATRgyE9F0SrkBmTyi8H/nDrvr+zwt7+ixT54TLk4VIg9hWl/WezTF9479WXdYDEigGVha0tw9yRMueNoHxIgARIgARIgARIgARIgARKIEgFv38rfz3KClvHKwoh/wuYcgd3hHNDVntYd6FtpTKy6hOlnwfsKQd7hiWW8svRvFyPLy62SkIXf4Hr0yopSKSvmhaJVNO0amlxV8ob6ezPgBCt/penOk1NRKpuPO5VF0HRUmipKQXiCcAXBCpsJk56fs11OpMJIQnEUwR3x96aWvycBEiABEiABEiABEiABEiCB6BEo7Y9h2p+Nh2VFLM2vilVm045YuiOrvav8wlVwEig4Cqh4BQ8sfdUl9aXiFnpqELbKbT2JWeV+X24fRa9yVIKxj6JVMOzQp1Q4ocbdpN6btU8nrNJBLh+bu3wlQcorfKV1Kp+Z1qfxpzLpjJnmh3hU2EwAda0csc8eU/TASqia7zbLEX9ZV1d/unqbXv9xA/G3uzbENmfvaqZnIPLEc/SNgLE/SineS159Ox+PCh+B7rZ3ZSF8eWGK+0agpAyYRn/x1bcz8qgwEqhUF4QxL0xz3wiUKwN9OxOPCjsBf1kIRn6sKFU2LdoFU2nKfIW0mxXZtS+HfliHNnTR/7OeWFboMn+bqYYJnWqoIpeKWEbY0ldPohPOvbnN/aY3v93cuQb7e2/aXRlwTAc7LVviehSttgTVQTqnuzFxI9sb2t6sg3T5QbsMbjzkD/GmrPAk6jWl4lQnXEzVgwpT+bSC68qLU+jJFzvz5nb1eEdZV9TuiS9WZJXEse7HDP4eV9+6yttbiQ9+anjFahJAWUCpRXn1vqqZJl57cAn4be/+HtxU8GrVJFCpDAT5OVZNXlG8NsIRVCoHUcwv89SdgNf+3vZh919yT9QJQNYploHa/CB93qspBJlH3KuyW17Mwne2v6crt2ezksrXf3auDPp71ivLhnVBny9p6sd69dSCsOX6lGWvEfKd7rnvdAH3N97DKML5zUHRyk8kRH+7Gw8xmPAZqnQQqyXbudaKBBWNvsw7Otz6H97R4DJT9XQ/VuizwhTiTSFPNl82f4gxVZpDIzUV9SZz8nIMonCzmqw61UrdbC0bZYIvuMWOgLl/NNc66988wO391MNIVuwIRT/DzubOi5RlIPo29+ewaHMdvNEvi397H4z+o/h35AiY9pS+8h7lrhxELp/MUEUC1v5oM9vYrCVt44pH8YuoEUCfwJUB9Avx2d93ikaeS9u7xf5gTld4tzn0949wj8ArK1Grnln6ZSKJ6YdW1MJ3SRW2TGgY/VwUgot9V5wV1zFRuvwnDwBU5AHphkMHPrsOsv0cgAT2MwkUrfoJsJqHw7to2LBGue/3L8qbb38g7al0sCom3DC4eSBIaUPKKb3mhkLQc/WWMnd9vsNdWqkW1acA1gvVNLtWmF1mhQ1MhWxqTpVdNraqCeTFB4UAygEeSXX65F29ZpNs2NQmSZ3myq7qoOAPxEXQEKnXlXg2blgva9c1yboNzcF6BgSCUsQToWUAwWufeuZ1zWiNrFq13jxfo9lJibgt+5G9Lm0Pzn1tgby/ZKUsX7lBPRBYBvqBM3SHop2Mtvaaj9fIosUfqv1zZVdiC13GmOA+EcBA1ojhjdJQnzCzVEwgdG4lBAptZSPuFDcn/OB5iumHpl2dF4PwK3yGx5YJK5Pv5wYGbT5tLW0ZaWiok1O+9vl80qzUFph09jEhNQqffZw+whvMw9wN09qWkt0PuNC4fmLDe5uuwAAByHhUBsmaSKK5T7pXlmZPyW73Y5Mtbr0iYOd4m0qTW6wJ2AcoPK5ijSG2mUdnxQYuLR+cNLZgYpRxrMaEDSsucYshAW1CYYEZeKgjcLFpX/F5EKuCgKa2jQWkPpe0f6xs3y2zWhggZNuhzW7fckePBDw3j9ahFatRI1gFrJ7V9GAQq7W1XQ47eIrcetO/yKSdxpl6ATnBd2He6GkVQusVXRbt3TJCva2CPqpa8aYPIf9AJZkqRaDMUa3EmMcRb7Jq4a/qdfEUMA6rpgywEFTVGFW8eH29bc6xDFTRCFW+dH2dTnMx9UAPHa0qp5GX37IE8Cww48R8FGxZ0GE4exmHgTAkOwxpxC0W1A3TG+HQMmH8GBm71TCTTDwTnLNLUNPdm3RRtOoNpQD9Bg3SVEfaFL6gC1UBwsakkAAJkAAJkAAJkAAJkAAJkAAJkEAkCUC0amlJaVyrnJ3CmM9lFDQDilYhKbJuemAykZAZ0/c2IylRKIAhwc9kkgAJkAAJkAAJkAAJkAAJkAAJkEAgCSBcSFtrh3x28o4FnaCmxgatD7tuwJhWgSxy3RPlRCu8p9PZ7j/gHhIgARIgARIgARIgARIgARIgARIggdgSqNEZWXUa4xJCldMQwg6DolXYLcj0kwAJkAAJkAAJkAAJkAAJkAAJkAAJkEAECXB6YEiM6vW0CkmSmUwSIAESIAESIAESIAESIAESIAESIIFBJkBPq0EGzsuRAAmQAAmQAAmQAAmQAAmQAAmQAAmQAAnEi0BtvLLL3JIACZAACZAACZAACZAACZAACZAACZAACYSBAEWrMFiJaSQBEiABEiABEiABEiABEiABEiABEiCBmBGgaBUzgzO7JEACJEACJEACJEACJEACJEACJEACJBAGAhStwmAlppEESIAESIAESIAESIAESIAESIAESIAEYkaAolXMDM7skgAJkAAJkAAJkAAJkAAJkAAJkAAJkEAYCFC0CoOVmEYSIAESIAESIAESIAESIAESIAESIAESiBkBilYxMzizSwIkQAIkQAIkQAIkQAIkQAIkQAIkQAJhIEDRKgxWYhpJgARIgARIgARIgARIgARIgARIgARIIGYEKFrFzODMLgmQAAmQAAmQAAmQAAmQAAmQAAmQAAmEgQBFqzBYiWkkARIgARIgARIgARIgARIgARIgARIggZgRoGgVM4MzuyRAAiRAAiRAAiRAAiRlPGLSAAAP2UlEQVRAAiRAAiRAAiQQBgIUrcJgJaaRBEiABEiABEiABEiABEiABEiABEiABGJGgKJVzAzO7JIACZAACZAACZAACZAACZAACZAACZBAGAgkw5BIppEESKAyga6uLqmpqRG825f9re4y+913eOcWXQKuHHR22nLgclpTq2VA/2A5iK7tvTkrrQ/y36AuYBmIVAGAnbG5+xr3vd0hUpuv63nPR8rkPWbG3w7AHe/aAO67Hk/AL0NJwG/3fLVQsD3rgFCatdeJ9tq/8AzQo23bn+2+XoPkD0NBoEYLfL6lE4r0MpEkQAJKwHvb4uFkH1ZdUltb6jzZ2dlZIlwBHsWr6BQhf8cVf/vLAHKL8uHtwLAcRKcMuJx0LwsqXqhgyS16BPwd1d7c86z3o1UO/E131w7gPR8tO1fKjb++xzM+kWD7rxKvKO0vtT36A52avZpuz3u2/6NkdeYFBChasRyQQAgJFDotopqz/nMdklffWCyrVm8wOdp54gTZY7dPmc/u9/7PIcw6k+wh4O28ujLw4fI1smjxR9LampJRo4bK5N22l/HbjO5WDggyOgQqiRgrP9ogqY60DGmsl222HiV1yURJXRAdAvHJibM1OqlOoNj4SYu8MHeBdOY6zb0+Wev9kSOGltzz3mdAfGhFP6euA4uc4hnQ1Nwmq9d+IsnahOy4/TZGyKDto1UOKrXn3pz3oSxd+jGahMb2U6dMNBl3dQXLQTTKQWm7z9z5JmNz9Bmwdv0mrQdqZfKu22sfYFuz3/usMDu4kUBICXB6YEgNx2THl0C5Dupdv31Gfn73k7J2XZPktOMCr5pkMin77zNJrr7kZNll0oSCdxZH3KNRdkobLjXSnkrLrFsfkgcffVla21LG3kn1vBuhnddjj9lPLvv28dLQUMdyEA3zl+QC97QrD7bj2io//p9H5A9/ekVS6bR85Yv7y3WXnkLRKgK2d7aGYNXS2i633P5Huf8PL0qzitQoAw31SRk6tEEuOOsYOeO0L/B+j4DNy2UBtnYbykQmm5PZ9z0vd97zlGxqbpdxW4+Uh397hQwb2kjRqhzAEO9zdQCKAOqBv8x5R66fda8sX7VeMpmMGcis13pg54nbyaxrv2lEbApXITa4J+n+dl8qlZHbf/W4/O73L8iGjc3a/rde9bD/If+4h1z9vZPkH7Yby+dANMwf+1wkrtUt9hQIgARCRAANFrj9uu3GHz8oN938gDQ1tctWY4bLPlM+bUbZV65eLwsWrZSnn39bZkzfW0aPHl44hsJViAxeIanecgCh8rtX/lp+PftpI1pO3Gm87KkeVkltuHywdI3MeXWhNGtHZvpBny145bEMVAAbwt2uAwvbz319kZx54U/kj0++Zjxv1qzbJJ9R0XrG4XubjgxqDhfzKIRZjXWSnZ3xnsnk5PxL7pDZD/xVmltSes+PkwnbbiVt7R2yYtUGeemVhTJq5FDZZ69J0qm/dxNFed9HqwhBulr0/iq55Oq75LY7/mTKAsoA9p952hF6z9eZDNPu0bE77n+8MC34qWfflHMv/pm8/8Fq2WbsCJk2ZZJ61Y7Uer9JFi5eKc/PmS8Hfm539cAcZdqN5aYSR4dM9HPibfehXr/i+ntUtHpCBzBSxu7T9ppoPKuXr1wn7yxYZuz/tS99ThrzA5asB6JfRqKcQ3paRdm6zFskCaCxgsYHPKme/stb8qvZfzZeNlddfKL8+7nHFuIaPPXcm3LZdffI4g8/lp/88jGZdd3ppuHq5rlHEk6MMoVyAJGiri6pHjVz5Mln3pRhwxrl+su/LjNPmV4g8Qv1wIOwCUHr0AP3lC8eMVW6IHrCHY9bJAhk1csC5eDu3z0r37vmN9KojdYZh0+VlpZ2ee7F+VKv37nGKq0eXpPDhrB1Uqd53vXbp+SJZ94yAuTF//ZVufiC40zGVq/5xHhd3P/wi3Lz7Y/KfvvsotPEtzf1fiKRCG/mmfISAk60eFnFyZnn3SIrVaj88ox9jefNCy8vULEqQaEqomUGtkddAI/qO+56UjY1tckxR+4jP5l1toweNczkesHiVXLuRbfLm/+3RK66YbY8+JtLjbdVTY09NqJoIp8tb7sPdfy9D70g2VxO/uP7p8pZM48s5P+hR+fIVTf+r8xfsEL7CE/LRecdG3k2zGD0CZRG7Yt+fplDEgg9ATy0MIcd78tWrDcdkcMP+ayc+c9HmgZrNpvVODYZOfKwvXWE5QDJZrLy9vylOjKf5TSB0Fu/mAHTcNWRVjRYHn3iNVn09hL1sptoBCuMwKFzi9e3Tj3CxLZIpTPysnpc4bguClYRKgmIWdFp7ProE6/KmNEj5IYrvyF33nqBxjUZp/d/TssJpaooGNx2VkU9adLy2NNvGI+aAz+3mxGs3P2+7bjRxv4777StIKbZ7PufMx1cCNz22REFEswDbAp7PvfiPB2E6JLzzjpa7vrpt+VLR02T1vYUPWoiXESs+FQjc197Tz0qF5j4ld/RAUsIVqgH0NbbbecJcvbpR8mQIQ2yfMU684LYjWO5hZeAqcPz9/7SZWt1KnijEavPUK9KfJfT9iDa///0lc9rv2CKpLXdN2fuu6z7w2typtxDgJ5WLA4kECACtlPiVgMsnzA0VhMJ2wnF6Npee+wkY7caobErGsyDCe7fnRrXAB3Z4cOHmClBHRqMmVs4CLiOpeuUoI1SbsP+BERK7YweNX2qabAe/YV9TKMVwXfxSqezJo7V0CH1ptO6YWOL9bardNJyF+K+qhBwdYErD5VMBv3RedCceOyB8p3zttZYFpPNdNBs2gpW7hxVyQgvOmAEcA+j4/n2vMWyRKcDDVfPytNOOiwfxxDPhVrJab0/RqeCH3PUvjL/tj/IuwtXmuDc8MJ0ZWrAEsQTVY2Ae9ZP23uS7Dt1khmk0uEI2fhJqyR1IIv3fNVMs8UvjDof9h07dqSc860ZRoiaqCK1LRNoG1qRGosywMsWg1hN6nVrtwoNii2eal5gIAigXZjU9j/eTz3hEJl+8BTZ4VOIWYWzW0HLDWKN0PY/nhcd2g507cmBSAPPQQLVIkDRqlrkeV0SKEMADxZsvV22Go0StzKc93RDdXQNc9z/pt43GJU/SDuxmE6I83N6YBnwAdrlygCShM/5IlEmhXakvU7t+vXjDzYvbK5jaqcOJrQT0yLrNUBnUju0u+joq/m+zNm4K1gEXDkovldOXzIJp2ltxJ54iPkRgjLDyMbDCvauXIgqn5TfBI4A7l285musEkwJQuySA/ffrfC8MJ1WU8d3afDlHXSaaJ1OF9woCzW2IaYJQtDWMQ1uESDg7ukjD9vL3N/wukN5QCfVPQMikE1moQwBDEzC5hiwxMtt3mc/ysGiJatMudiufozsokHZ2fYrAzNku7zP8gnbbSV4+Te0/9etb5J57y7TtkBWDv78HqZO4EYCYSdA0SrsFmT6I0XANTo+XL7GTuvxdTbx/Xbjx5jVobDhOdTZpasF6mc0ZDANsEUDsa5eu1HjHL2sQTrfkgOm7SJnzzzKdGzYmA1+cXGNCzROmnV0FDFq/IGz0SltaEjqCNs2xqYYSbWDbDUFO2NHrS57/rsH/yrz3llmVpD5+vEHWQGDMa0CXxDcvYqOxlptgGKhBa+YDa8KbGNGDdcFGEYYLwtUCCgbdRhddXUHBavA27rXCVT7ol7AKlFYNWrrsaPM4hvY58oL3lFOdtHlzlFvtGqndVNTq/ne1S29vh5/GFgC3s6r8671loPAJpwJ6zcBZ3vz7M9P98M9j/3OG3PpsjUm3hG+P0xjWcLj2pWTfieAJ6gaAW/7EG0D2Ne27UXemveBtLdnZNnKtfLgI3PkJQ0HcagKVmd+43BTNihaVs1svPAAEaBoNUAgeRoSGAgCruMx85xbdAWo9aah4d06dH76nbddYFaBwwMIQpVOBCs8jC677m55970V5hB0VE47aboGaD9BxqlHlntgeRu7A5FmnmNgCXgbJX/RlV/O++4dhak9uBI0iNa2Dtl91+3l8fuuMo1UTAty7lOuIYOR1kcenyu3/OxRadNA/RdfeJxsvdVI23GlkDGwRtsCZ3N1AVaJm3Xr700jdCimeOU7KRAqYetzzzha45l8xXZWtBzQk2YLGCMgp3Sx6CBEIZbd6FFDrQht6oVS/0l43WBfRqeIwtsWn/2/CUi2mIw+EHD1Aw5F/W8GLsqUgz6cmocEnIDX9m4gwwlWLizAjTc/JG+op/00XT30wrO/bJ77TtgKePaYvB4IeOtwuxKk7Qd0aByrCy/9hXz08UbTFsDg9blnHq3xDr9qQke49r+37PRwGX5FAoEkQNEqkGZhouJOoEE7HEM0DpFbrtrxqM3PZffzcQ+yXXX6Fz5D1MBo/MOPzZXVH2+Q6y4/RSbvukNhtJ2dFz/B4PwN2zjhCsITygE6oMVOCbzrxCxh7Ozo3nFcLqeeNnUJefVvi+UHP7xfvXSa5ZxvHiX/qrEv3HmDk1umpDcE6jQuHQLqmnKQF62MrVW0QifFXw56c07+JnwE3P3bm6Dq0DD804B5/4fP5pVSzHu+Epno7/e231x7wQxeqbcVBjl+8KP7zOqhO+04Xn7x3+fLhG3HFAY5KVpEq3wU6wExA5kQqJqbUyYkBFYTXrFynVxz2cny6R3GF8pAtAgwN3EiQNEqTtZmXgNPwD2AHp59eV5g6Nbt8EwRKq4IZUbbVOy45aazCnmc+/p7cuN/3S9/fv4t+VinmP3x3itl5IihhRGXwMOIaQK9DdIZh0+V1579kZq2NBANGp5ooGKDaFHozKqIAcEKbuLfueJXsuiDj2Smett9/6ITTEBW/M6OzsUUboiy7coBFlK49tJT5MrvntjNU6YLU4PzZQMxy7hFm4ArE0MaG8x9/8mmNs0wPGy6T/1GXDMI3ZhGPFxXmGJnNdplg7mLHwEnWNnnukiHrhp4g7b5fnrnY7o4z0iZde3pMlGFK++9721fxI9Y+HPsbIl3DGBZ29eYAe5f3np+IYPP66qi1//wXh24fsWEF3jonksLbUCWgfCXg7jmgKJVXC3PfAeSgHuYIJDi5jbrFl4UtcxDTF8YYUfsggOmfUYuOv84WbJ0jSx8f5U8+9d5cuzR+3Xr+G7uOvx+cAl4G5j4PHzYkM0mAOUG04WwatRiFaouuOTn8p7a/OTjDpSrLz3JTC9EA8crcLHhslmsVf2Bsw/e4VUnvqnC/sTRnn4i0ftbJ/iZTsqOGstuhNYLTRqMfZ16Um6tq4hhw3fYMBVk6fK1xhNvtMY821Y9LVA+WEaiVyaYo3gScPe6e89kO3WQ8gEVrB7XOHcj5T+vmamrCu9lnvt665t739u2iCe18Ofa2y5wq4gjV7Ctfdn2/6Eax+z8DU1yyTV3m4U7XnploRx20J7WOxsFghsJhJDA/wNr7mr/LUNM8QAAAABJRU5ErkJggg==;" vertex="1" parent="1">
          <mxGeometry x="90" y="1260" width="1197" height="608" as="geometry" />
        </mxCell>
        <mxCell id="dyfqsVJVBgxQbuDTN-ic-8" value="" style="rounded=0;whiteSpace=wrap;html=1;" vertex="1" parent="1">
          <mxGeometry x="210" y="1840" width="1040" height="30" as="geometry" />
        </mxCell>
        <mxCell id="dyfqsVJVBgxQbuDTN-ic-9" value="" style="endArrow=classic;startArrow=classic;html=1;rounded=0;" edge="1" parent="1">
          <mxGeometry width="50" height="50" relative="1" as="geometry">
            <mxPoint x="240" y="1920" as="sourcePoint" />
            <mxPoint x="1240" y="1920" as="targetPoint" />
          </mxGeometry>
        </mxCell>
        <mxCell id="dyfqsVJVBgxQbuDTN-ic-10" value="10" style="text;html=1;align=center;verticalAlign=middle;whiteSpace=wrap;rounded=0;fontSize=22;" vertex="1" parent="1">
          <mxGeometry x="210" y="1930" width="60" height="30" as="geometry" />
        </mxCell>
        <mxCell id="dyfqsVJVBgxQbuDTN-ic-11" value="100" style="text;html=1;align=center;verticalAlign=middle;whiteSpace=wrap;rounded=0;fontSize=22;" vertex="1" parent="1">
          <mxGeometry x="1210" y="1930" width="60" height="30" as="geometry" />
        </mxCell>
        <mxCell id="dyfqsVJVBgxQbuDTN-ic-12" value="50" style="text;html=1;align=center;verticalAlign=middle;whiteSpace=wrap;rounded=0;fontSize=22;" vertex="1" parent="1">
          <mxGeometry x="690" y="1930" width="60" height="30" as="geometry" />
        </mxCell>
        <mxCell id="dyfqsVJVBgxQbuDTN-ic-13" value="18" style="text;html=1;align=center;verticalAlign=middle;whiteSpace=wrap;rounded=0;fontSize=22;" vertex="1" parent="1">
          <mxGeometry x="310" y="1930" width="60" height="30" as="geometry" />
        </mxCell>
        <mxCell id="dyfqsVJVBgxQbuDTN-ic-30" style="edgeStyle=orthogonalEdgeStyle;rounded=0;orthogonalLoop=1;jettySize=auto;html=1;" edge="1" parent="1" source="dyfqsVJVBgxQbuDTN-ic-15" target="dyfqsVJVBgxQbuDTN-ic-11">
          <mxGeometry relative="1" as="geometry" />
        </mxCell>
        <mxCell id="dyfqsVJVBgxQbuDTN-ic-15" value="80" style="text;html=1;align=center;verticalAlign=middle;whiteSpace=wrap;rounded=0;fontSize=22;" vertex="1" parent="1">
          <mxGeometry x="970" y="1930" width="60" height="30" as="geometry" />
        </mxCell>
        <mxCell id="dyfqsVJVBgxQbuDTN-ic-16" value="30" style="text;html=1;align=center;verticalAlign=middle;whiteSpace=wrap;rounded=0;fontSize=22;" vertex="1" parent="1">
          <mxGeometry x="410" y="1930" width="60" height="30" as="geometry" />
        </mxCell>
        <mxCell id="dyfqsVJVBgxQbuDTN-ic-17" value="40" style="text;html=1;align=center;verticalAlign=middle;whiteSpace=wrap;rounded=0;fontSize=22;" vertex="1" parent="1">
          <mxGeometry x="550" y="1940" width="60" height="30" as="geometry" />
        </mxCell>
        <mxCell id="dyfqsVJVBgxQbuDTN-ic-18" value="60" style="text;html=1;align=center;verticalAlign=middle;whiteSpace=wrap;rounded=0;fontSize=22;" vertex="1" parent="1">
          <mxGeometry x="790" y="1930" width="60" height="30" as="geometry" />
        </mxCell>
        <mxCell id="dyfqsVJVBgxQbuDTN-ic-19" value="70" style="text;html=1;align=center;verticalAlign=middle;whiteSpace=wrap;rounded=0;fontSize=22;" vertex="1" parent="1">
          <mxGeometry x="880" y="1930" width="60" height="30" as="geometry" />
        </mxCell>
        <mxCell id="dyfqsVJVBgxQbuDTN-ic-21" value="precise" style="text;html=1;align=center;verticalAlign=middle;whiteSpace=wrap;rounded=0;fontSize=22;" vertex="1" parent="1">
          <mxGeometry x="560" y="1280" width="60" height="30" as="geometry" />
        </mxCell>
        <mxCell id="dyfqsVJVBgxQbuDTN-ic-22" value="sharp" style="text;html=1;align=center;verticalAlign=middle;whiteSpace=wrap;rounded=0;fontSize=22;" vertex="1" parent="1">
          <mxGeometry x="560" y="1310" width="60" height="30" as="geometry" />
        </mxCell>
        <mxCell id="dyfqsVJVBgxQbuDTN-ic-23" value="exact" style="text;html=1;align=center;verticalAlign=middle;whiteSpace=wrap;rounded=0;fontSize=22;" vertex="1" parent="1">
          <mxGeometry x="560" y="1340" width="60" height="30" as="geometry" />
        </mxCell>
        <mxCell id="dyfqsVJVBgxQbuDTN-ic-24" value="" style="rounded=0;whiteSpace=wrap;html=1;" vertex="1" parent="1">
          <mxGeometry x="670" y="1290" width="120" height="100" as="geometry" />
        </mxCell>
        <mxCell id="dyfqsVJVBgxQbuDTN-ic-26" value="50.5" style="text;html=1;align=center;verticalAlign=middle;whiteSpace=wrap;rounded=0;fontSize=22;" vertex="1" parent="1">
          <mxGeometry x="720" y="1950" width="60" height="30" as="geometry" />
        </mxCell>
        <mxCell id="dyfqsVJVBgxQbuDTN-ic-27" value="49.5" style="text;html=1;align=center;verticalAlign=middle;whiteSpace=wrap;rounded=0;fontSize=22;" vertex="1" parent="1">
          <mxGeometry x="650" y="1940" width="60" height="30" as="geometry" />
        </mxCell>
        <mxCell id="dyfqsVJVBgxQbuDTN-ic-31" value="F" style="text;html=1;align=center;verticalAlign=middle;whiteSpace=wrap;rounded=0;fontStyle=1;fontSize=32;" vertex="1" parent="1">
          <mxGeometry x="1090" y="1960" width="60" height="30" as="geometry" />
        </mxCell>
        <mxCell id="dyfqsVJVBgxQbuDTN-ic-32" value="E" style="text;html=1;align=center;verticalAlign=middle;whiteSpace=wrap;rounded=0;fontStyle=1;fontSize=32;" vertex="1" parent="1">
          <mxGeometry x="930" y="1960" width="60" height="30" as="geometry" />
        </mxCell>
        <mxCell id="dyfqsVJVBgxQbuDTN-ic-33" value="D" style="text;html=1;align=center;verticalAlign=middle;whiteSpace=wrap;rounded=0;fontStyle=1;fontSize=32;" vertex="1" parent="1">
          <mxGeometry x="870" y="1990" width="60" height="30" as="geometry" />
        </mxCell>
        <mxCell id="dyfqsVJVBgxQbuDTN-ic-34" value="C" style="text;html=1;align=center;verticalAlign=middle;whiteSpace=wrap;rounded=0;fontStyle=1;fontSize=32;" vertex="1" parent="1">
          <mxGeometry x="810" y="1990" width="60" height="30" as="geometry" />
        </mxCell>
        <mxCell id="dyfqsVJVBgxQbuDTN-ic-35" value="" style="endArrow=none;dashed=1;html=1;dashPattern=1 3;strokeWidth=2;rounded=0;" edge="1" parent="1">
          <mxGeometry width="50" height="50" relative="1" as="geometry">
            <mxPoint x="870" y="2040" as="sourcePoint" />
            <mxPoint x="870" y="1930" as="targetPoint" />
          </mxGeometry>
        </mxCell>
        <mxCell id="dyfqsVJVBgxQbuDTN-ic-36" value="49" style="text;html=1;align=center;verticalAlign=middle;whiteSpace=wrap;rounded=0;fontSize=22;" vertex="1" parent="1">
          <mxGeometry x="630" y="1920" width="60" height="30" as="geometry" />
        </mxCell>
      </root>
    </mxGraphModel>
  </diagram>
</mxfile>
